# Blender 4.5.0
# www.blender.org
mtllib DoorLigth.mtl
o Cube
v 1.722414 0.198973 -1.000000
v 1.722414 -0.198973 -1.000000
v 1.722414 0.198973 1.000000
v 1.722414 -0.198973 1.000000
v -1.722414 0.198973 -1.000000
v -1.722414 -0.198973 -1.000000
v -1.722414 0.198973 1.000000
v -1.722414 -0.198973 1.000000
vn -0.0000 1.0000 -0.0000
vn -0.0000 -0.0000 1.0000
vn -1.0000 -0.0000 -0.0000
vn -0.0000 -1.0000 -0.0000
vn 1.0000 -0.0000 -0.0000
vn -0.0000 -0.0000 -1.0000
vt 0.625000 0.500000
vt 0.875000 0.500000
vt 0.875000 0.750000
vt 0.625000 0.750000
vt 0.375000 0.750000
vt 0.625000 1.000000
vt 0.375000 1.000000
vt 0.375000 0.000000
vt 0.625000 0.000000
vt 0.625000 0.250000
vt 0.375000 0.250000
vt 0.125000 0.500000
vt 0.375000 0.500000
vt 0.125000 0.750000
s 0
usemtl Material
f 1/1/1 5/2/1 7/3/1 3/4/1
f 4/5/2 3/4/2 7/6/2 8/7/2
f 8/8/3 7/9/3 5/10/3 6/11/3
f 6/12/4 2/13/4 4/5/4 8/14/4
f 2/13/5 1/1/5 3/4/5 4/5/5
f 6/11/6 5/10/6 1/1/6 2/13/6
o Sphere
v 0.000000 0.775365 -0.504447
v 0.000000 0.518082 -0.754958
v 0.000000 0.181926 -0.890533
v 0.060340 0.914605 -0.173734
v 0.118362 0.861539 -0.340792
v 0.171835 0.775365 -0.494754
v 0.218704 0.659393 -0.629702
v 0.257169 0.518082 -0.740451
v 0.285751 0.356861 -0.822745
v 0.303351 0.181926 -0.873422
v 0.118362 0.914605 -0.163654
v 0.232175 0.861539 -0.321019
v 0.337066 0.775365 -0.466048
v 0.429003 0.659393 -0.593166
v 0.504454 0.518082 -0.697490
v 0.560520 0.356861 -0.775009
v 0.595045 0.181926 -0.822745
v 0.171835 0.914605 -0.147285
v 0.337066 0.861539 -0.288910
v 0.489344 0.775365 -0.419432
v 0.622816 0.659393 -0.533836
v 0.732354 0.518082 -0.627724
v 0.813749 0.356861 -0.697490
v 0.863871 0.181926 -0.740451
v 0.218704 0.914605 -0.125256
v 0.429003 0.861539 -0.245698
v 0.622816 0.775365 -0.356697
v 0.792695 0.659393 -0.453990
v 0.932110 0.518082 -0.533836
v 1.035706 0.356861 -0.593166
v 1.099499 0.181926 -0.629702
v 0.257169 0.914605 -0.098413
v 0.504455 0.861539 -0.193043
v 0.732354 0.775365 -0.280255
v 0.932110 0.659393 -0.356698
v 1.096046 0.518082 -0.419432
v 1.217861 0.356861 -0.466048
v 1.292874 0.181926 -0.494754
v 0.000000 0.932523 0.000000
v 0.285750 0.914605 -0.067788
v 0.560520 0.861539 -0.132971
v 0.813749 0.775365 -0.193043
v 1.035706 0.659393 -0.245698
v 1.217861 0.518082 -0.288910
v 1.353215 0.356861 -0.321019
v 1.436565 0.181926 -0.340792
v 0.303351 0.914605 -0.034558
v 0.595045 0.861539 -0.067788
v 0.863871 0.775365 -0.098413
v 1.099499 0.659393 -0.125256
v 1.292874 0.518082 -0.147285
v 1.436565 0.356861 -0.163654
v 1.525049 0.181926 -0.173734
v 0.309294 0.914605 0.000000
v 0.606702 0.861539 0.000000
v 0.880795 0.775365 0.000000
v 1.121040 0.659393 -0.000000
v 1.318203 0.518082 0.000000
v 1.464709 0.356861 -0.000000
v 1.554927 0.181926 0.000000
v 0.303351 0.914605 0.034558
v 0.595045 0.861539 0.067788
v 0.863871 0.775365 0.098413
v 1.099499 0.659393 0.125256
v 1.292874 0.518082 0.147285
v 1.436565 0.356861 0.163654
v 1.525049 0.181926 0.173734
v 0.285750 0.914605 0.067788
v 0.560520 0.861539 0.132971
v 0.813748 0.775365 0.193043
v 1.035706 0.659393 0.245698
v 1.217861 0.518082 0.288910
v 1.353215 0.356861 0.321019
v 1.436565 0.181926 0.340792
v 0.257169 0.914605 0.098413
v 0.504454 0.861539 0.193043
v 0.732354 0.775365 0.280255
v 0.932110 0.659393 0.356698
v 1.096046 0.518082 0.419432
v 1.217861 0.356861 0.466048
v 1.292874 0.181926 0.494754
v 0.218704 0.914605 0.125255
v 0.429003 0.861539 0.245698
v 0.622816 0.775365 0.356698
v 0.792695 0.659393 0.453990
v 0.932110 0.518082 0.533836
v 1.035706 0.356861 0.593166
v 1.099499 0.181926 0.629702
v 0.171835 0.914605 0.147285
v 0.337066 0.861539 0.288910
v 0.489343 0.775365 0.419432
v 0.622816 0.659393 0.533836
v 0.732354 0.518082 0.627724
v 0.813749 0.356861 0.697490
v 0.863871 0.181926 0.740451
v 0.118362 0.914605 0.163654
v 0.232175 0.861539 0.321019
v 0.337065 0.775365 0.466048
v 0.429003 0.659393 0.593166
v 0.504454 0.518082 0.697490
v 0.560520 0.356861 0.775009
v 0.595044 0.181926 0.822745
v 0.060340 0.914605 0.173734
v 0.118362 0.861539 0.340792
v 0.171834 0.775365 0.494754
v 0.218704 0.659393 0.629702
v 0.257168 0.518082 0.740451
v 0.285751 0.356861 0.822745
v 0.303351 0.181926 0.873422
v -0.000000 0.914605 0.177138
v -0.000000 0.861539 0.347469
v -0.000000 0.775365 0.504446
v -0.000000 0.659393 0.642039
v -0.000000 0.518082 0.754957
v 0.000000 0.356861 0.838864
v -0.000000 0.181926 0.890533
v -0.060340 0.914605 0.173734
v -0.118362 0.861539 0.340792
v -0.171835 0.775365 0.494753
v -0.218704 0.659393 0.629702
v -0.257169 0.518082 0.740451
v -0.285750 0.356861 0.822745
v -0.303351 0.181926 0.873422
v -0.118362 0.914605 0.163654
v -0.232175 0.861539 0.321019
v -0.337066 0.775365 0.466048
v -0.429003 0.659393 0.593166
v -0.504454 0.518082 0.697490
v -0.560520 0.356861 0.775009
v -0.595045 0.181926 0.822745
v -0.171835 0.914605 0.147285
v -0.337066 0.861539 0.288910
v -0.489343 0.775365 0.419432
v -0.622816 0.659393 0.533836
v -0.732354 0.518082 0.627724
v -0.813748 0.356861 0.697490
v -0.863871 0.181926 0.740451
v -0.218704 0.914605 0.125255
v -0.429003 0.861539 0.245697
v -0.622816 0.775365 0.356697
v -0.792695 0.659393 0.453990
v -0.932110 0.518082 0.533835
v -1.035705 0.356861 0.593166
v -1.099499 0.181926 0.629702
v -0.257169 0.914605 0.098413
v -0.504454 0.861539 0.193043
v -0.732354 0.775365 0.280255
v -0.932110 0.659393 0.356697
v -1.096046 0.518082 0.419432
v -1.217861 0.356861 0.466048
v -1.292874 0.181926 0.494753
v -0.285750 0.914605 0.067788
v -0.560520 0.861539 0.132970
v -0.813748 0.775365 0.193043
v -1.035705 0.659393 0.245697
v -1.217860 0.518082 0.288909
v -1.353214 0.356861 0.321019
v -1.436565 0.181926 0.340792
v -0.303351 0.914605 0.034558
v -0.595044 0.861539 0.067788
v -0.863870 0.775365 0.098412
v -1.099499 0.659393 0.125255
v -1.292874 0.518082 0.147285
v -1.436564 0.356861 0.163654
v -1.525049 0.181926 0.173734
v -0.309294 0.914605 -0.000000
v -0.606702 0.861539 -0.000000
v -0.880795 0.775365 -0.000000
v -1.121039 0.659393 -0.000000
v -1.318203 0.518082 -0.000000
v -1.464708 0.356861 -0.000000
v -1.554926 0.181926 -0.000000
v -0.303351 0.914605 -0.034558
v -0.595044 0.861539 -0.067788
v -0.863870 0.775365 -0.098413
v -1.099499 0.659393 -0.125256
v -1.292874 0.518082 -0.147285
v -1.436564 0.356861 -0.163654
v -1.525048 0.181926 -0.173735
v -0.285750 0.914605 -0.067788
v -0.560520 0.861539 -0.132971
v -0.813748 0.775365 -0.193043
v -1.035705 0.659393 -0.245698
v -1.217860 0.518082 -0.288910
v -1.353214 0.356861 -0.321019
v -1.436564 0.181926 -0.340792
v -0.257168 0.914605 -0.098413
v -0.504454 0.861539 -0.193043
v -0.732354 0.775365 -0.280255
v -0.932110 0.659393 -0.356697
v -1.096045 0.518082 -0.419432
v -1.217860 0.356861 -0.466048
v -1.292874 0.181926 -0.494754
v -0.218704 0.914605 -0.125255
v -0.429003 0.861539 -0.245697
v -0.622815 0.775365 -0.356697
v -0.792695 0.659393 -0.453990
v -0.932110 0.518082 -0.533835
v -1.035705 0.356861 -0.593166
v -1.099498 0.181926 -0.629702
v -0.171834 0.914605 -0.147285
v -0.337066 0.861539 -0.288910
v -0.489343 0.775365 -0.419432
v -0.622816 0.659393 -0.533836
v -0.732354 0.518082 -0.627724
v -0.813748 0.356861 -0.697490
v -0.863870 0.181926 -0.740451
v -0.118362 0.914605 -0.163654
v -0.232175 0.861539 -0.321019
v -0.337065 0.775365 -0.466047
v -0.429003 0.659393 -0.593166
v -0.504454 0.518082 -0.697489
v -0.560520 0.356861 -0.775009
v -0.595044 0.181926 -0.822745
v -0.060340 0.914605 -0.173734
v -0.118362 0.861539 -0.340792
v -0.171834 0.775365 -0.494753
v -0.218704 0.659393 -0.629702
v -0.257168 0.518082 -0.740451
v -0.285750 0.356861 -0.822745
v -0.303351 0.181926 -0.873421
v 0.000000 0.914605 -0.177138
v 0.000000 0.861539 -0.347469
v 0.000000 0.659393 -0.642038
v 0.000000 0.356861 -0.838863
v 0.000000 0.110633 -0.897370
v 0.305694 0.110211 -0.880167
v 0.599666 0.109804 -0.829135
v 0.870615 0.109429 -0.746232
v 1.108122 0.109101 -0.634640
v 1.303051 0.108831 -0.498648
v 1.447904 0.108631 -0.343482
v 1.537107 0.108507 -0.175108
v 1.567227 0.108466 0.000000
v 1.537106 0.108507 0.175108
v 1.447903 0.108631 0.343482
v 1.303051 0.108831 0.498648
v 1.108122 0.109100 0.634640
v 0.870615 0.109429 0.746232
v 0.599666 0.109804 0.829135
v 0.305693 0.110210 0.880167
v -0.000000 0.110633 0.897370
v -0.305667 0.111056 0.880087
v -0.599560 0.111462 0.828988
v -0.870391 0.111837 0.746040
v -1.107759 0.112165 0.634432
v -1.302549 0.112435 0.498456
v -1.447284 0.112635 0.343335
v -1.536408 0.112758 0.175028
v -1.566501 0.112800 -0.000000
v -1.536407 0.112758 -0.175029
v -1.447283 0.112635 -0.343335
v -1.302548 0.112435 -0.498456
v -1.107758 0.112166 -0.634432
v -0.870390 0.111837 -0.746040
v -0.599559 0.111463 -0.828988
v -0.305665 0.111056 -0.880087
vn 0.0561 0.0953 -0.9939
vn 0.0057 0.9949 -0.1006
vn 0.0168 0.9546 -0.2974
vn 0.0271 0.8763 -0.4810
vn 0.0363 0.7641 -0.6440
vn 0.0440 0.6237 -0.7805
vn 0.0500 0.4611 -0.8859
vn 0.0540 0.2829 -0.9576
vn 0.1638 0.2897 -0.9430
vn 0.1703 0.0978 -0.9805
vn 0.0168 0.9952 -0.0968
vn 0.0498 0.9568 -0.2866
vn 0.0808 0.8815 -0.4653
vn 0.1087 0.7723 -0.6259
vn 0.1324 0.6335 -0.7623
vn 0.1510 0.4705 -0.8694
vn 0.1327 0.8913 -0.4336
vn 0.1802 0.7881 -0.5886
vn 0.2217 0.6530 -0.7242
vn 0.2552 0.4896 -0.8337
vn 0.2789 0.3036 -0.9111
vn 0.2912 0.1029 -0.9511
vn 0.0273 0.9956 -0.0893
vn 0.0812 0.9608 -0.2653
vn 0.4022 0.3254 -0.8558
vn 0.4227 0.1110 -0.8994
vn 0.0368 0.9963 -0.0783
vn 0.1099 0.9661 -0.2338
vn 0.1813 0.9046 -0.3857
vn 0.2493 0.8102 -0.5304
vn 0.3113 0.6814 -0.6624
vn 0.3637 0.5185 -0.7739
vn 0.3136 0.8365 -0.4494
vn 0.3990 0.7168 -0.5718
vn 0.4755 0.5563 -0.6814
vn 0.5350 0.3552 -0.7666
vn 0.5680 0.1224 -0.8139
vn 0.0449 0.9969 -0.0643
vn 0.1347 0.9719 -0.1930
vn 0.2246 0.9198 -0.3219
vn 0.7242 0.1368 -0.6759
vn 0.0512 0.9975 -0.0478
vn 0.1545 0.9774 -0.1442
vn 0.2603 0.9344 -0.2430
vn 0.3692 0.8631 -0.3446
vn 0.4795 0.7549 -0.4475
vn 0.5850 0.5998 -0.5459
vn 0.6727 0.3915 -0.6278
vn 0.5435 0.7885 -0.2878
vn 0.6783 0.6410 -0.3593
vn 0.7985 0.4283 -0.4230
vn 0.8734 0.1521 -0.4626
vn 0.0556 0.9980 -0.0294
vn 0.1684 0.9817 -0.0892
vn 0.2860 0.9462 -0.1515
vn 0.4109 0.8853 -0.2177
vn 0.0578 0.9983 -0.0099
vn 0.1756 0.9840 -0.0302
vn 0.2995 0.9527 -0.0515
vn 0.4335 0.8981 -0.0746
vn 0.5796 0.8087 -0.0997
vn 0.7342 0.6671 -0.1263
vn 0.8786 0.4531 -0.1511
vn 0.9724 0.1628 -0.1672
vn 0.5796 0.8087 0.0997
vn 0.7342 0.6671 0.1263
vn 0.8786 0.4531 0.1511
vn 0.9724 0.1628 0.1672
vn 0.0578 0.9983 0.0099
vn 0.1756 0.9840 0.0302
vn 0.2995 0.9527 0.0515
vn 0.4335 0.8981 0.0746
vn 0.1684 0.9817 0.0892
vn 0.2860 0.9462 0.1515
vn 0.4109 0.8853 0.2177
vn 0.5435 0.7885 0.2878
vn 0.6783 0.6410 0.3593
vn 0.7985 0.4283 0.4230
vn 0.8734 0.1521 0.4626
vn 0.0556 0.9980 0.0294
vn 0.5850 0.5998 0.5459
vn 0.6727 0.3915 0.6278
vn 0.7242 0.1368 0.6759
vn 0.0512 0.9975 0.0478
vn 0.1545 0.9774 0.1442
vn 0.2604 0.9344 0.2430
vn 0.3692 0.8631 0.3446
vn 0.4795 0.7549 0.4475
vn 0.1347 0.9719 0.1930
vn 0.2246 0.9198 0.3219
vn 0.3136 0.8365 0.4494
vn 0.3990 0.7168 0.5718
vn 0.4755 0.5563 0.6814
vn 0.5350 0.3552 0.7666
vn 0.5680 0.1224 0.8139
vn 0.0449 0.9969 0.0643
vn 0.3637 0.5185 0.7739
vn 0.4022 0.3254 0.8558
vn 0.4227 0.1110 0.8994
vn 0.0368 0.9963 0.0783
vn 0.1099 0.9661 0.2338
vn 0.1813 0.9046 0.3857
vn 0.2493 0.8102 0.5304
vn 0.3113 0.6814 0.6624
vn 0.1327 0.8913 0.4336
vn 0.1802 0.7881 0.5886
vn 0.2217 0.6530 0.7242
vn 0.2552 0.4896 0.8337
vn 0.2789 0.3036 0.9111
vn 0.2912 0.1029 0.9511
vn 0.0273 0.9956 0.0893
vn 0.0812 0.9608 0.2653
vn 0.1638 0.2897 0.9430
vn 0.1703 0.0978 0.9805
vn 0.0168 0.9952 0.0968
vn 0.0498 0.9568 0.2866
vn 0.0808 0.8815 0.4653
vn 0.1087 0.7723 0.6259
vn 0.1324 0.6335 0.7623
vn 0.1510 0.4705 0.8694
vn 0.0363 0.7641 0.6440
vn 0.0440 0.6237 0.7805
vn 0.0500 0.4611 0.8859
vn 0.0540 0.2829 0.9576
vn 0.0561 0.0953 0.9939
vn 0.0057 0.9949 0.1006
vn 0.0168 0.9546 0.2974
vn 0.0271 0.8763 0.4810
vn -0.0561 0.0953 0.9939
vn -0.0057 0.9949 0.1006
vn -0.0168 0.9546 0.2974
vn -0.0271 0.8763 0.4810
vn -0.0363 0.7641 0.6440
vn -0.0440 0.6237 0.7805
vn -0.0500 0.4611 0.8859
vn -0.0540 0.2829 0.9576
vn -0.1087 0.7723 0.6259
vn -0.1324 0.6335 0.7623
vn -0.1510 0.4705 0.8694
vn -0.1638 0.2897 0.9430
vn -0.1703 0.0978 0.9805
vn -0.0168 0.9952 0.0968
vn -0.0498 0.9568 0.2866
vn -0.0808 0.8815 0.4653
vn -0.2912 0.1029 0.9511
vn -0.0273 0.9956 0.0893
vn -0.0812 0.9608 0.2653
vn -0.1327 0.8913 0.4336
vn -0.1802 0.7881 0.5886
vn -0.2217 0.6530 0.7242
vn -0.2552 0.4896 0.8337
vn -0.2789 0.3036 0.9111
vn -0.3113 0.6814 0.6624
vn -0.3637 0.5185 0.7739
vn -0.4022 0.3254 0.8558
vn -0.4227 0.1110 0.8994
vn -0.0368 0.9963 0.0783
vn -0.1099 0.9661 0.2338
vn -0.1813 0.9046 0.3857
vn -0.2493 0.8102 0.5304
vn -0.0449 0.9969 0.0643
vn -0.1347 0.9719 0.1930
vn -0.2246 0.9198 0.3219
vn -0.3136 0.8365 0.4494
vn -0.3990 0.7168 0.5718
vn -0.4755 0.5563 0.6814
vn -0.5350 0.3552 0.7666
vn -0.5680 0.1224 0.8139
vn -0.4795 0.7549 0.4475
vn -0.5850 0.5998 0.5459
vn -0.6727 0.3915 0.6278
vn -0.7242 0.1368 0.6759
vn -0.0512 0.9975 0.0478
vn -0.1545 0.9774 0.1442
vn -0.2604 0.9344 0.2430
vn -0.3692 0.8631 0.3446
vn -0.1684 0.9817 0.0892
vn -0.2860 0.9462 0.1515
vn -0.4109 0.8853 0.2177
vn -0.5435 0.7885 0.2878
vn -0.6783 0.6410 0.3593
vn -0.7985 0.4283 0.4230
vn -0.8734 0.1521 0.4626
vn -0.0556 0.9980 0.0294
vn -0.7342 0.6671 0.1263
vn -0.8786 0.4531 0.1511
vn -0.9724 0.1628 0.1672
vn -0.0578 0.9983 0.0099
vn -0.1756 0.9840 0.0302
vn -0.2995 0.9527 0.0515
vn -0.4335 0.8981 0.0746
vn -0.5796 0.8087 0.0997
vn -0.2995 0.9527 -0.0515
vn -0.4335 0.8981 -0.0746
vn -0.5796 0.8087 -0.0997
vn -0.7342 0.6671 -0.1263
vn -0.8786 0.4531 -0.1511
vn -0.9724 0.1628 -0.1672
vn -0.0578 0.9983 -0.0099
vn -0.1756 0.9840 -0.0302
vn -0.7985 0.4283 -0.4230
vn -0.8734 0.1521 -0.4626
vn -0.0556 0.9980 -0.0294
vn -0.1684 0.9817 -0.0892
vn -0.2860 0.9462 -0.1515
vn -0.4109 0.8853 -0.2177
vn -0.5435 0.7885 -0.2878
vn -0.6783 0.6410 -0.3593
vn -0.2604 0.9344 -0.2430
vn -0.3692 0.8631 -0.3446
vn -0.4795 0.7549 -0.4475
vn -0.5850 0.5998 -0.5459
vn -0.6727 0.3915 -0.6278
vn -0.7242 0.1368 -0.6759
vn -0.0512 0.9975 -0.0478
vn -0.1545 0.9774 -0.1442
vn -0.5350 0.3552 -0.7666
vn -0.5680 0.1224 -0.8139
vn -0.0449 0.9969 -0.0643
vn -0.1347 0.9719 -0.1930
vn -0.2246 0.9198 -0.3219
vn -0.3136 0.8365 -0.4494
vn -0.3990 0.7168 -0.5718
vn -0.4755 0.5563 -0.6814
vn -0.2493 0.8102 -0.5304
vn -0.3113 0.6814 -0.6624
vn -0.3637 0.5185 -0.7739
vn -0.4022 0.3254 -0.8558
vn -0.4227 0.1110 -0.8994
vn -0.0368 0.9963 -0.0783
vn -0.1099 0.9661 -0.2338
vn -0.1813 0.9046 -0.3857
vn -0.2912 0.1029 -0.9511
vn -0.0273 0.9956 -0.0893
vn -0.0812 0.9608 -0.2653
vn -0.1327 0.8913 -0.4336
vn -0.1802 0.7881 -0.5886
vn -0.2217 0.6530 -0.7242
vn -0.2552 0.4896 -0.8337
vn -0.2789 0.3036 -0.9111
vn -0.1087 0.7723 -0.6259
vn -0.1324 0.6335 -0.7623
vn -0.1510 0.4705 -0.8694
vn -0.1638 0.2897 -0.9430
vn -0.1703 0.0978 -0.9805
vn -0.0168 0.9952 -0.0968
vn -0.0498 0.9568 -0.2866
vn -0.0808 0.8815 -0.4653
vn -0.0561 0.0953 -0.9939
vn -0.0057 0.9949 -0.1006
vn -0.0168 0.9546 -0.2974
vn -0.0271 0.8763 -0.4810
vn -0.0363 0.7641 -0.6440
vn -0.0440 0.6237 -0.7805
vn -0.0500 0.4611 -0.8859
vn -0.0540 0.2829 -0.9576
vt 0.750000 0.538008
vt 0.750000 0.562500
vt 0.718750 0.562500
vt 0.718750 0.537862
vt 0.750000 0.937500
vt 0.734375 1.000000
vt 0.718750 0.937500
vt 0.750000 0.875000
vt 0.718750 0.875000
vt 0.750000 0.812500
vt 0.718750 0.812500
vt 0.750000 0.750000
vt 0.718750 0.750000
vt 0.750000 0.687500
vt 0.718750 0.687500
vt 0.750000 0.625000
vt 0.718750 0.625000
vt 0.687500 0.625000
vt 0.687500 0.562500
vt 0.687500 0.537723
vt 0.703125 1.000000
vt 0.687500 0.937500
vt 0.687500 0.875000
vt 0.687500 0.812500
vt 0.687500 0.750000
vt 0.687500 0.687500
vt 0.656250 0.875000
vt 0.656250 0.812500
vt 0.656250 0.750000
vt 0.656250 0.687500
vt 0.656250 0.625000
vt 0.656250 0.562500
vt 0.656250 0.537594
vt 0.671875 1.000000
vt 0.656250 0.937500
vt 0.625000 0.625000
vt 0.625000 0.562500
vt 0.625000 0.537481
vt 0.640625 1.000000
vt 0.625000 0.937500
vt 0.625000 0.875000
vt 0.625000 0.812500
vt 0.625000 0.750000
vt 0.625000 0.687500
vt 0.593750 0.812500
vt 0.593750 0.750000
vt 0.593750 0.687500
vt 0.593750 0.625000
vt 0.593750 0.562500
vt 0.593750 0.537388
vt 0.609375 1.000000
vt 0.593750 0.937500
vt 0.593750 0.875000
vt 0.562500 0.562500
vt 0.562500 0.537320
vt 0.578125 1.000000
vt 0.562500 0.937500
vt 0.562500 0.875000
vt 0.562500 0.812500
vt 0.562500 0.750000
vt 0.562500 0.687500
vt 0.562500 0.625000
vt 0.531250 0.750000
vt 0.531250 0.687500
vt 0.531250 0.625000
vt 0.531250 0.562500
vt 0.531250 0.537277
vt 0.546875 1.000000
vt 0.531250 0.937500
vt 0.531250 0.875000
vt 0.531250 0.812500
vt 0.515625 1.000000
vt 0.500000 0.937500
vt 0.500000 0.875000
vt 0.500000 0.812500
vt 0.500000 0.750000
vt 0.500000 0.687500
vt 0.500000 0.625000
vt 0.500000 0.562500
vt 0.500000 0.537263
vt 0.468750 0.750000
vt 0.468750 0.687500
vt 0.468750 0.625000
vt 0.468750 0.562500
vt 0.468750 0.537277
vt 0.484375 1.000000
vt 0.468750 0.937500
vt 0.468750 0.875000
vt 0.468750 0.812500
vt 0.437500 0.937500
vt 0.437500 0.875000
vt 0.437500 0.812500
vt 0.437500 0.750000
vt 0.437500 0.687500
vt 0.437500 0.625000
vt 0.437500 0.562500
vt 0.437500 0.537320
vt 0.453125 1.000000
vt 0.406250 0.687500
vt 0.406250 0.625000
vt 0.406250 0.562500
vt 0.406250 0.537388
vt 0.421875 1.000000
vt 0.406250 0.937500
vt 0.406250 0.875000
vt 0.406250 0.812500
vt 0.406250 0.750000
vt 0.375000 0.937500
vt 0.375000 0.875000
vt 0.375000 0.812500
vt 0.375000 0.750000
vt 0.375000 0.687500
vt 0.375000 0.625000
vt 0.375000 0.562500
vt 0.375000 0.537481
vt 0.390625 1.000000
vt 0.343750 0.687500
vt 0.343750 0.625000
vt 0.343750 0.562500
vt 0.343750 0.537594
vt 0.359375 1.000000
vt 0.343750 0.937500
vt 0.343750 0.875000
vt 0.343750 0.812500
vt 0.343750 0.750000
vt 0.312500 0.875000
vt 0.312500 0.812500
vt 0.312500 0.750000
vt 0.312500 0.687500
vt 0.312500 0.625000
vt 0.312500 0.562500
vt 0.312500 0.537723
vt 0.328125 1.000000
vt 0.312500 0.937500
vt 0.281250 0.625000
vt 0.281250 0.562500
vt 0.281250 0.537862
vt 0.296875 1.000000
vt 0.281250 0.937500
vt 0.281250 0.875000
vt 0.281250 0.812500
vt 0.281250 0.750000
vt 0.281250 0.687500
vt 0.250000 0.812500
vt 0.250000 0.750000
vt 0.250000 0.687500
vt 0.250000 0.625000
vt 0.250000 0.562500
vt 0.250000 0.538008
vt 0.265625 1.000000
vt 0.250000 0.937500
vt 0.250000 0.875000
vt 0.218750 0.562500
vt 0.218750 0.538153
vt 0.234375 1.000000
vt 0.218750 0.937500
vt 0.218750 0.875000
vt 0.218750 0.812500
vt 0.218750 0.750000
vt 0.218750 0.687500
vt 0.218750 0.625000
vt 0.187500 0.812500
vt 0.187500 0.750000
vt 0.187500 0.687500
vt 0.187500 0.625000
vt 0.187500 0.562500
vt 0.187500 0.538292
vt 0.203125 1.000000
vt 0.187500 0.937500
vt 0.187500 0.875000
vt 0.156250 0.562500
vt 0.156250 0.538421
vt 0.171875 1.000000
vt 0.156250 0.937500
vt 0.156250 0.875000
vt 0.156250 0.812500
vt 0.156250 0.750000
vt 0.156250 0.687500
vt 0.156250 0.625000
vt 0.125000 0.750000
vt 0.125000 0.687500
vt 0.125000 0.625000
vt 0.125000 0.562500
vt 0.125000 0.538534
vt 0.140625 1.000000
vt 0.125000 0.937500
vt 0.125000 0.875000
vt 0.125000 0.812500
vt 0.109375 1.000000
vt 0.093750 0.937500
vt 0.093750 0.875000
vt 0.093750 0.812500
vt 0.093750 0.750000
vt 0.093750 0.687500
vt 0.093750 0.625000
vt 0.093750 0.562500
vt 0.093750 0.538626
vt 0.062500 0.750000
vt 0.062500 0.687500
vt 0.062500 0.625000
vt 0.062500 0.562500
vt 0.062500 0.538695
vt 0.078125 1.000000
vt 0.062500 0.937500
vt 0.062500 0.875000
vt 0.062500 0.812500
vt 0.031250 0.937500
vt 0.031250 0.875000
vt 0.031250 0.812500
vt 0.031250 0.750000
vt 0.031250 0.687500
vt 0.031250 0.625000
vt 0.031250 0.562500
vt 0.031250 0.538738
vt 0.046875 1.000000
vt 0.000000 0.687500
vt 0.000000 0.625000
vt 0.000000 0.562500
vt 0.000000 0.538752
vt 0.015625 1.000000
vt 0.000000 0.937500
vt 0.000000 0.875000
vt 0.000000 0.812500
vt 0.000000 0.750000
vt 1.000000 0.812500
vt 1.000000 0.875000
vt 0.968750 0.875000
vt 0.968750 0.812500
vt 1.000000 0.750000
vt 0.968750 0.750000
vt 1.000000 0.687500
vt 0.968750 0.687500
vt 1.000000 0.625000
vt 0.968750 0.625000
vt 1.000000 0.562500
vt 0.968750 0.562500
vt 1.000000 0.538752
vt 0.968750 0.538738
vt 1.000000 0.937500
vt 0.984375 1.000000
vt 0.968750 0.937500
vt 0.937500 0.625000
vt 0.937500 0.562500
vt 0.937500 0.538695
vt 0.953125 1.000000
vt 0.937500 0.937500
vt 0.937500 0.875000
vt 0.937500 0.812500
vt 0.937500 0.750000
vt 0.937500 0.687500
vt 0.906250 0.875000
vt 0.906250 0.812500
vt 0.906250 0.750000
vt 0.906250 0.687500
vt 0.906250 0.625000
vt 0.906250 0.562500
vt 0.906250 0.538627
vt 0.921875 1.000000
vt 0.906250 0.937500
vt 0.875000 0.625000
vt 0.875000 0.562500
vt 0.875000 0.538534
vt 0.890625 1.000000
vt 0.875000 0.937500
vt 0.875000 0.875000
vt 0.875000 0.812500
vt 0.875000 0.750000
vt 0.875000 0.687500
vt 0.843750 0.812500
vt 0.843750 0.750000
vt 0.843750 0.687500
vt 0.843750 0.625000
vt 0.843750 0.562500
vt 0.843750 0.538421
vt 0.859375 1.000000
vt 0.843750 0.937500
vt 0.843750 0.875000
vt 0.812500 0.562500
vt 0.812500 0.538293
vt 0.828125 1.000000
vt 0.812500 0.937500
vt 0.812500 0.875000
vt 0.812500 0.812500
vt 0.812500 0.750000
vt 0.812500 0.687500
vt 0.812500 0.625000
vt 0.781250 0.812500
vt 0.781250 0.750000
vt 0.781250 0.687500
vt 0.781250 0.625000
vt 0.781250 0.562500
vt 0.781250 0.538153
vt 0.796875 1.000000
vt 0.781250 0.937500
vt 0.781250 0.875000
vt 0.765625 1.000000
s 0
usemtl Material.001
f 234/15/7 11/16/7 18/17/7 235/18/7
f 230/19/8 47/20/8 12/21/8
f 231/22/9 230/19/9 12/21/9 13/23/9
f 9/24/10 231/22/10 13/23/10 14/25/10
f 232/26/11 9/24/11 14/25/11 15/27/11
f 10/28/12 232/26/12 15/27/12 16/29/12
f 233/30/13 10/28/13 16/29/13 17/31/13
f 11/16/14 233/30/14 17/31/14 18/17/14
f 18/17/15 17/31/15 24/32/15 25/33/15
f 235/18/16 18/17/16 25/33/16 236/34/16
f 12/21/17 47/35/17 19/36/17
f 13/23/18 12/21/18 19/36/18 20/37/18
f 14/25/19 13/23/19 20/37/19 21/38/19
f 15/27/20 14/25/20 21/38/20 22/39/20
f 16/29/21 15/27/21 22/39/21 23/40/21
f 17/31/22 16/29/22 23/40/22 24/32/22
f 21/38/23 20/37/23 27/41/23 28/42/23
f 22/39/24 21/38/24 28/42/24 29/43/24
f 23/40/25 22/39/25 29/43/25 30/44/25
f 24/32/26 23/40/26 30/44/26 31/45/26
f 25/33/27 24/32/27 31/45/27 32/46/27
f 236/34/28 25/33/28 32/46/28 237/47/28
f 19/36/29 47/48/29 26/49/29
f 20/37/30 19/36/30 26/49/30 27/41/30
f 32/46/31 31/45/31 38/50/31 39/51/31
f 237/47/32 32/46/32 39/51/32 238/52/32
f 26/49/33 47/53/33 33/54/33
f 27/41/34 26/49/34 33/54/34 34/55/34
f 28/42/35 27/41/35 34/55/35 35/56/35
f 29/43/36 28/42/36 35/56/36 36/57/36
f 30/44/37 29/43/37 36/57/37 37/58/37
f 31/45/38 30/44/38 37/58/38 38/50/38
f 36/57/39 35/56/39 42/59/39 43/60/39
f 37/58/40 36/57/40 43/60/40 44/61/40
f 38/50/41 37/58/41 44/61/41 45/62/41
f 39/51/42 38/50/42 45/62/42 46/63/42
f 238/52/43 39/51/43 46/63/43 239/64/43
f 33/54/44 47/65/44 40/66/44
f 34/55/45 33/54/45 40/66/45 41/67/45
f 35/56/46 34/55/46 41/67/46 42/59/46
f 239/64/47 46/63/47 54/68/47 240/69/47
f 40/66/48 47/70/48 48/71/48
f 41/67/49 40/66/49 48/71/49 49/72/49
f 42/59/50 41/67/50 49/72/50 50/73/50
f 43/60/51 42/59/51 50/73/51 51/74/51
f 44/61/52 43/60/52 51/74/52 52/75/52
f 45/62/53 44/61/53 52/75/53 53/76/53
f 46/63/54 45/62/54 53/76/54 54/68/54
f 52/75/55 51/74/55 58/77/55 59/78/55
f 53/76/56 52/75/56 59/78/56 60/79/56
f 54/68/57 53/76/57 60/79/57 61/80/57
f 240/69/58 54/68/58 61/80/58 241/81/58
f 48/71/59 47/82/59 55/83/59
f 49/72/60 48/71/60 55/83/60 56/84/60
f 50/73/61 49/72/61 56/84/61 57/85/61
f 51/74/62 50/73/62 57/85/62 58/77/62
f 55/83/63 47/86/63 62/87/63
f 56/84/64 55/83/64 62/87/64 63/88/64
f 57/85/65 56/84/65 63/88/65 64/89/65
f 58/77/66 57/85/66 64/89/66 65/90/66
f 59/78/67 58/77/67 65/90/67 66/91/67
f 60/79/68 59/78/68 66/91/68 67/92/68
f 61/80/69 60/79/69 67/92/69 68/93/69
f 241/81/70 61/80/70 68/93/70 242/94/70
f 66/91/71 65/90/71 72/95/71 73/96/71
f 67/92/72 66/91/72 73/96/72 74/97/72
f 68/93/73 67/92/73 74/97/73 75/98/73
f 242/94/74 68/93/74 75/98/74 243/99/74
f 62/87/75 47/100/75 69/101/75
f 63/88/76 62/87/76 69/101/76 70/102/76
f 64/89/77 63/88/77 70/102/77 71/103/77
f 65/90/78 64/89/78 71/103/78 72/95/78
f 70/102/79 69/101/79 76/104/79 77/105/79
f 71/103/80 70/102/80 77/105/80 78/106/80
f 72/95/81 71/103/81 78/106/81 79/107/81
f 73/96/82 72/95/82 79/107/82 80/108/82
f 74/97/83 73/96/83 80/108/83 81/109/83
f 75/98/84 74/97/84 81/109/84 82/110/84
f 243/99/85 75/98/85 82/110/85 244/111/85
f 69/101/86 47/112/86 76/104/86
f 81/109/87 80/108/87 87/113/87 88/114/87
f 82/110/88 81/109/88 88/114/88 89/115/88
f 244/111/89 82/110/89 89/115/89 245/116/89
f 76/104/90 47/117/90 83/118/90
f 77/105/91 76/104/91 83/118/91 84/119/91
f 78/106/92 77/105/92 84/119/92 85/120/92
f 79/107/93 78/106/93 85/120/93 86/121/93
f 80/108/94 79/107/94 86/121/94 87/113/94
f 84/119/95 83/118/95 90/122/95 91/123/95
f 85/120/96 84/119/96 91/123/96 92/124/96
f 86/121/97 85/120/97 92/124/97 93/125/97
f 87/113/98 86/121/98 93/125/98 94/126/98
f 88/114/99 87/113/99 94/126/99 95/127/99
f 89/115/100 88/114/100 95/127/100 96/128/100
f 245/116/101 89/115/101 96/128/101 246/129/101
f 83/118/102 47/130/102 90/122/102
f 95/127/103 94/126/103 101/131/103 102/132/103
f 96/128/104 95/127/104 102/132/104 103/133/104
f 246/129/105 96/128/105 103/133/105 247/134/105
f 90/122/106 47/135/106 97/136/106
f 91/123/107 90/122/107 97/136/107 98/137/107
f 92/124/108 91/123/108 98/137/108 99/138/108
f 93/125/109 92/124/109 99/138/109 100/139/109
f 94/126/110 93/125/110 100/139/110 101/131/110
f 99/138/111 98/137/111 105/140/111 106/141/111
f 100/139/112 99/138/112 106/141/112 107/142/112
f 101/131/113 100/139/113 107/142/113 108/143/113
f 102/132/114 101/131/114 108/143/114 109/144/114
f 103/133/115 102/132/115 109/144/115 110/145/115
f 247/134/116 103/133/116 110/145/116 248/146/116
f 97/136/117 47/147/117 104/148/117
f 98/137/118 97/136/118 104/148/118 105/140/118
f 110/145/119 109/144/119 116/149/119 117/150/119
f 248/146/120 110/145/120 117/150/120 249/151/120
f 104/148/121 47/152/121 111/153/121
f 105/140/122 104/148/122 111/153/122 112/154/122
f 106/141/123 105/140/123 112/154/123 113/155/123
f 107/142/124 106/141/124 113/155/124 114/156/124
f 108/143/125 107/142/125 114/156/125 115/157/125
f 109/144/126 108/143/126 115/157/126 116/149/126
f 114/156/127 113/155/127 120/158/127 121/159/127
f 115/157/128 114/156/128 121/159/128 122/160/128
f 116/149/129 115/157/129 122/160/129 123/161/129
f 117/150/130 116/149/130 123/161/130 124/162/130
f 249/151/131 117/150/131 124/162/131 250/163/131
f 111/153/132 47/164/132 118/165/132
f 112/154/133 111/153/133 118/165/133 119/166/133
f 113/155/134 112/154/134 119/166/134 120/158/134
f 250/163/135 124/162/135 131/167/135 251/168/135
f 118/165/136 47/169/136 125/170/136
f 119/166/137 118/165/137 125/170/137 126/171/137
f 120/158/138 119/166/138 126/171/138 127/172/138
f 121/159/139 120/158/139 127/172/139 128/173/139
f 122/160/140 121/159/140 128/173/140 129/174/140
f 123/161/141 122/160/141 129/174/141 130/175/141
f 124/162/142 123/161/142 130/175/142 131/167/142
f 128/173/143 127/172/143 134/176/143 135/177/143
f 129/174/144 128/173/144 135/177/144 136/178/144
f 130/175/145 129/174/145 136/178/145 137/179/145
f 131/167/146 130/175/146 137/179/146 138/180/146
f 251/168/147 131/167/147 138/180/147 252/181/147
f 125/170/148 47/182/148 132/183/148
f 126/171/149 125/170/149 132/183/149 133/184/149
f 127/172/150 126/171/150 133/184/150 134/176/150
f 252/181/151 138/180/151 145/185/151 253/186/151
f 132/183/152 47/187/152 139/188/152
f 133/184/153 132/183/153 139/188/153 140/189/153
f 134/176/154 133/184/154 140/189/154 141/190/154
f 135/177/155 134/176/155 141/190/155 142/191/155
f 136/178/156 135/177/156 142/191/156 143/192/156
f 137/179/157 136/178/157 143/192/157 144/193/157
f 138/180/158 137/179/158 144/193/158 145/185/158
f 143/192/159 142/191/159 149/194/159 150/195/159
f 144/193/160 143/192/160 150/195/160 151/196/160
f 145/185/161 144/193/161 151/196/161 152/197/161
f 253/186/162 145/185/162 152/197/162 254/198/162
f 139/188/163 47/199/163 146/200/163
f 140/189/164 139/188/164 146/200/164 147/201/164
f 141/190/165 140/189/165 147/201/165 148/202/165
f 142/191/166 141/190/166 148/202/166 149/194/166
f 146/200/167 47/203/167 153/204/167
f 147/201/168 146/200/168 153/204/168 154/205/168
f 148/202/169 147/201/169 154/205/169 155/206/169
f 149/194/170 148/202/170 155/206/170 156/207/170
f 150/195/171 149/194/171 156/207/171 157/208/171
f 151/196/172 150/195/172 157/208/172 158/209/172
f 152/197/173 151/196/173 158/209/173 159/210/173
f 254/198/174 152/197/174 159/210/174 255/211/174
f 157/208/175 156/207/175 163/212/175 164/213/175
f 158/209/176 157/208/176 164/213/176 165/214/176
f 159/210/177 158/209/177 165/214/177 166/215/177
f 255/211/178 159/210/178 166/215/178 256/216/178
f 153/204/179 47/217/179 160/218/179
f 154/205/180 153/204/180 160/218/180 161/219/180
f 155/206/181 154/205/181 161/219/181 162/220/181
f 156/207/182 155/206/182 162/220/182 163/212/182
f 161/219/183 160/218/183 167/221/183 168/222/183
f 162/220/184 161/219/184 168/222/184 169/223/184
f 163/212/185 162/220/185 169/223/185 170/224/185
f 164/213/186 163/212/186 170/224/186 171/225/186
f 165/214/187 164/213/187 171/225/187 172/226/187
f 166/215/188 165/214/188 172/226/188 173/227/188
f 256/216/189 166/215/189 173/227/189 257/228/189
f 160/218/190 47/229/190 167/221/190
f 172/226/191 171/225/191 178/230/191 179/231/191
f 173/227/192 172/226/192 179/231/192 180/232/192
f 257/228/193 173/227/193 180/232/193 258/233/193
f 167/221/194 47/234/194 174/235/194
f 168/222/195 167/221/195 174/235/195 175/236/195
f 169/223/196 168/222/196 175/236/196 176/237/196
f 170/224/197 169/223/197 176/237/197 177/238/197
f 171/225/198 170/224/198 177/238/198 178/230/198
f 176/239/199 175/240/199 182/241/199 183/242/199
f 177/243/200 176/239/200 183/242/200 184/244/200
f 178/245/201 177/243/201 184/244/201 185/246/201
f 179/247/202 178/245/202 185/246/202 186/248/202
f 180/249/203 179/247/203 186/248/203 187/250/203
f 258/251/204 180/249/204 187/250/204 259/252/204
f 174/253/205 47/254/205 181/255/205
f 175/240/206 174/253/206 181/255/206 182/241/206
f 187/250/207 186/248/207 193/256/207 194/257/207
f 259/252/208 187/250/208 194/257/208 260/258/208
f 181/255/209 47/259/209 188/260/209
f 182/241/210 181/255/210 188/260/210 189/261/210
f 183/242/211 182/241/211 189/261/211 190/262/211
f 184/244/212 183/242/212 190/262/212 191/263/212
f 185/246/213 184/244/213 191/263/213 192/264/213
f 186/248/214 185/246/214 192/264/214 193/256/214
f 190/262/215 189/261/215 196/265/215 197/266/215
f 191/263/216 190/262/216 197/266/216 198/267/216
f 192/264/217 191/263/217 198/267/217 199/268/217
f 193/256/218 192/264/218 199/268/218 200/269/218
f 194/257/219 193/256/219 200/269/219 201/270/219
f 260/258/220 194/257/220 201/270/220 261/271/220
f 188/260/221 47/272/221 195/273/221
f 189/261/222 188/260/222 195/273/222 196/265/222
f 201/270/223 200/269/223 207/274/223 208/275/223
f 261/271/224 201/270/224 208/275/224 262/276/224
f 195/273/225 47/277/225 202/278/225
f 196/265/226 195/273/226 202/278/226 203/279/226
f 197/266/227 196/265/227 203/279/227 204/280/227
f 198/267/228 197/266/228 204/280/228 205/281/228
f 199/268/229 198/267/229 205/281/229 206/282/229
f 200/269/230 199/268/230 206/282/230 207/274/230
f 205/281/231 204/280/231 211/283/231 212/284/231
f 206/282/232 205/281/232 212/284/232 213/285/232
f 207/274/233 206/282/233 213/285/233 214/286/233
f 208/275/234 207/274/234 214/286/234 215/287/234
f 262/276/235 208/275/235 215/287/235 263/288/235
f 202/278/236 47/289/236 209/290/236
f 203/279/237 202/278/237 209/290/237 210/291/237
f 204/280/238 203/279/238 210/291/238 211/283/238
f 263/288/239 215/287/239 222/292/239 264/293/239
f 209/290/240 47/294/240 216/295/240
f 210/291/241 209/290/241 216/295/241 217/296/241
f 211/283/242 210/291/242 217/296/242 218/297/242
f 212/284/243 211/283/243 218/297/243 219/298/243
f 213/285/244 212/284/244 219/298/244 220/299/244
f 214/286/245 213/285/245 220/299/245 221/300/245
f 215/287/246 214/286/246 221/300/246 222/292/246
f 219/298/247 218/297/247 225/301/247 226/302/247
f 220/299/248 219/298/248 226/302/248 227/303/248
f 221/300/249 220/299/249 227/303/249 228/304/249
f 222/292/250 221/300/250 228/304/250 229/305/250
f 264/293/251 222/292/251 229/305/251 265/306/251
f 216/295/252 47/307/252 223/308/252
f 217/296/253 216/295/253 223/308/253 224/309/253
f 218/297/254 217/296/254 224/309/254 225/301/254
f 265/306/255 229/305/255 11/16/255 234/15/255
f 223/308/256 47/310/256 230/19/256
f 224/309/257 223/308/257 230/19/257 231/22/257
f 225/301/258 224/309/258 231/22/258 9/24/258
f 226/302/259 225/301/259 9/24/259 232/26/259
f 227/303/260 226/302/260 232/26/260 10/28/260
f 228/304/261 227/303/261 10/28/261 233/30/261
f 229/305/262 228/304/262 233/30/262 11/16/262
