# This file is brought to you by Roblox Corporation
# Generated by Roblox Studio

mtllib FloatingSign.mtl

g Part1

v 13.2859 0.999999 -33.93 
v 13.2859 0.999999 -30.27 
v 13.2859 -6.25849e-07 -33.93 
v 13.2859 -6.25849e-07 -30.27 
v 9.2859 0.999999 -30.27 
v 13.2859 0.999999 -30.27 
v 9.2859 0.999999 -33.93 
v 13.2859 0.999999 -33.93 
v 13.2859 0.999999 -30.27 
v 9.2859 0.999999 -30.27 
v 13.2859 -6.25849e-07 -30.27 
v 9.2859 -6.25849e-07 -30.27 
v 9.2859 0.999999 -30.27 
v 9.2859 0.999999 -33.93 
v 9.2859 -6.25849e-07 -30.27 
v 9.2859 -6.25849e-07 -33.93 
v 9.2859 -6.25849e-07 -33.93 
v 13.2859 -6.25849e-07 -33.93 
v 9.2859 -6.25849e-07 -30.27 
v 13.2859 -6.25849e-07 -30.27 
v 9.2859 0.999999 -33.93 
v 13.2859 0.999999 -33.93 
v 9.2859 -6.25849e-07 -33.93 
v 13.2859 -6.25849e-07 -33.93 

vn 1 0 0 
vn 1 0 0 
vn 1 0 0 
vn 1 0 0 
vn 0 1 0 
vn 0 1 0 
vn 0 1 0 
vn 0 1 0 
vn 0 0 1 
vn 0 0 1 
vn 0 0 1 
vn 0 0 1 
vn -1 0 0 
vn -1 0 0 
vn -1 0 0 
vn -1 0 0 
vn 0 -1 0 
vn 0 -1 0 
vn 0 -1 0 
vn 0 -1 0 
vn 0 0 -1 
vn 0 0 -1 
vn 0 0 -1 
vn 0 0 -1 

vt -0.0261578 0.624231 
vt -0.483658 0.624231 
vt -0.0261578 0.499231 
vt -0.483658 0.499231 
vt 0.0163423 0.624231 
vt -0.483658 0.624231 
vt 0.0163423 0.166731 
vt -0.483658 0.166731 
vt 0.0163423 0.624231 
vt -0.483658 0.624231 
vt 0.0163423 0.499231 
vt -0.483658 0.499231 
vt -0.0261578 0.624231 
vt -0.483658 0.624231 
vt -0.0261578 0.499231 
vt -0.483658 0.499231 
vt 0.0163423 0.624231 
vt -0.483658 0.624231 
vt 0.0163423 0.166731 
vt -0.483658 0.166731 
vt 0.0163423 0.624231 
vt -0.483658 0.624231 
vt 0.0163423 0.499231 
vt -0.483658 0.499231 

usemtl Part1Mtl

f 1/1/1 2/2/2 3/3/3 
f 3/3/3 2/2/2 4/4/4 
f 5/5/5 6/6/6 7/7/7 
f 7/7/7 6/6/6 8/8/8 
f 9/9/9 10/10/10 11/11/11 
f 11/11/11 10/10/10 12/12/12 
f 13/13/13 14/14/14 15/15/15 
f 15/15/15 14/14/14 16/16/16 
f 17/17/17 18/18/18 19/19/19 
f 19/19/19 18/18/18 20/20/20 
f 21/21/21 22/22/22 23/23/23 
f 23/23/23 22/22/22 24/24/24 

g Part2

v 11.2409 1.79026 -32.04 
v 10.5232 1.79026 -31.3223 
v 10.3964 1.79026 -31.477 
v 10.278 1.79026 -31.719 
v 10.2259 1.79026 -32.04 
v 10.278 1.79026 -32.361 
v 10.3964 1.79026 -32.603 
v 10.5232 1.79026 -32.7577 
v 10.5232 1.79026 -32.7577 
v 10.6779 1.79026 -32.8845 
v 10.9199 1.79026 -33.0029 
v 11.2409 1.79026 -33.055 
v 11.5619 1.79026 -33.0029 
v 11.8039 1.79026 -32.8845 
v 11.9586 1.79026 -32.7577 
v 11.9586 1.79026 -32.7577 
v 12.0854 1.79026 -32.603 
v 12.2038 1.79026 -32.361 
v 12.2559 1.79026 -32.04 
v 12.2038 1.79026 -31.719 
v 12.0854 1.79026 -31.477 
v 11.9586 1.79026 -31.3223 
v 11.9586 1.79026 -31.3223 
v 11.8039 1.79026 -31.1955 
v 11.5619 1.79026 -31.0771 
v 11.2409 1.79026 -31.025 
v 10.9199 1.79026 -31.0771 
v 10.6779 1.79026 -31.1955 
v 10.5232 1.79026 -31.3223 
v 11.9586 1.00026 -31.3223 
v 11.9586 1.79026 -31.3223 
v 11.8039 1.00026 -31.1955 
v 11.8039 1.79026 -31.1955 
v 11.5619 1.00026 -31.0771 
v 11.5619 1.79026 -31.0771 
v 11.2409 1.00026 -31.025 
v 11.2409 1.79026 -31.025 
v 10.9199 1.00026 -31.0771 
v 10.9199 1.79026 -31.0771 
v 10.6779 1.00026 -31.1955 
v 10.6779 1.79026 -31.1955 
v 10.5232 1.00026 -31.3223 
v 10.5232 1.79026 -31.3223 
v 11.9586 1.79026 -31.3223 
v 11.9586 1.00026 -31.3223 
v 12.0854 1.79026 -31.477 
v 12.0854 1.00026 -31.477 
v 12.2038 1.79026 -31.719 
v 12.2038 1.00026 -31.719 
v 12.2559 1.79026 -32.04 
v 12.2559 1.00026 -32.04 
v 12.2038 1.79026 -32.361 
v 12.2038 1.00026 -32.361 
v 12.0854 1.79026 -32.603 
v 12.0854 1.00026 -32.603 
v 11.9586 1.79026 -32.7577 
v 11.9586 1.00026 -32.7577 
v 11.2409 1.00026 -32.04 
v 11.9586 1.00026 -31.3223 
v 12.0854 1.00026 -31.477 
v 12.2038 1.00026 -31.719 
v 12.2559 1.00026 -32.04 
v 12.2038 1.00026 -32.361 
v 12.0854 1.00026 -32.603 
v 11.9586 1.00026 -32.7577 
v 11.9586 1.00026 -32.7577 
v 11.8039 1.00026 -32.8845 
v 11.5619 1.00026 -33.0029 
v 11.2409 1.00026 -33.055 
v 10.9199 1.00026 -33.0029 
v 10.6779 1.00026 -32.8845 
v 10.5232 1.00026 -32.7577 
v 10.5232 1.00026 -32.7577 
v 10.3964 1.00026 -32.603 
v 10.278 1.00026 -32.361 
v 10.2259 1.00026 -32.04 
v 10.278 1.00026 -31.719 
v 10.3964 1.00026 -31.477 
v 10.5232 1.00026 -31.3223 
v 10.5232 1.00026 -31.3223 
v 10.6779 1.00026 -31.1955 
v 10.9199 1.00026 -31.0771 
v 11.2409 1.00026 -31.025 
v 11.5619 1.00026 -31.0771 
v 11.8039 1.00026 -31.1955 
v 11.9586 1.00026 -31.3223 
v 10.5232 1.00026 -32.7577 
v 10.5232 1.79026 -32.7577 
v 10.6779 1.00026 -32.8845 
v 10.6779 1.79026 -32.8845 
v 10.9199 1.00026 -33.0029 
v 10.9199 1.79026 -33.0029 
v 11.2409 1.00026 -33.055 
v 11.2409 1.79026 -33.055 
v 11.5619 1.00026 -33.0029 
v 11.5619 1.79026 -33.0029 
v 11.8039 1.00026 -32.8845 
v 11.8039 1.79026 -32.8845 
v 11.9586 1.00026 -32.7577 
v 11.9586 1.79026 -32.7577 
v 10.5232 1.00026 -31.3223 
v 10.5232 1.79026 -31.3223 
v 10.3964 1.00026 -31.477 
v 10.3964 1.79026 -31.477 
v 10.278 1.00026 -31.719 
v 10.278 1.79026 -31.719 
v 10.2259 1.00026 -32.04 
v 10.2259 1.79026 -32.04 
v 10.278 1.00026 -32.361 
v 10.278 1.79026 -32.361 
v 10.3964 1.00026 -32.603 
v 10.3964 1.79026 -32.603 
v 10.5232 1.00026 -32.7577 
v 10.5232 1.79026 -32.7577 

vn 0 1 0 
vn 0 1 0 
vn 0 1 0 
vn 0 1 0 
vn 0 1 0 
vn 0 1 0 
vn 0 1 0 
vn 0 1 0 
vn 0 1 0 
vn 0 1 0 
vn 0 1 0 
vn 0 1 0 
vn 0 1 0 
vn 0 1 0 
vn 0 1 0 
vn 0 1 0 
vn 0 1 0 
vn 0 1 0 
vn 0 1 0 
vn 0 1 0 
vn 0 1 0 
vn 0 1 0 
vn 0 1 0 
vn 0 1 0 
vn 0 1 0 
vn 0 1 0 
vn 0 1 0 
vn 0 1 0 
vn 0 1 0 
vn 0.708661 0 0.708661 
vn 0.708661 0 0.708661 
vn 0.551181 0 0.834646 
vn 0.551181 0 0.834646 
vn 0.314961 0 0.944882 
vn 0.314961 0 0.944882 
vn 0 0 1 
vn 0 0 1 
vn -0.314961 0 0.944882 
vn -0.314961 0 0.944882 
vn -0.551181 0 0.834646 
vn -0.551181 0 0.834646 
vn -0.708661 0 0.708661 
vn -0.708661 0 0.708661 
vn 0.708661 0 0.708661 
vn 0.708661 0 0.708661 
vn 0.834646 0 0.551181 
vn 0.834646 0 0.551181 
vn 0.944882 0 0.314961 
vn 0.944882 0 0.314961 
vn 1 0 0 
vn 1 0 0 
vn 0.944882 0 -0.314961 
vn 0.944882 0 -0.314961 
vn 0.834646 0 -0.551181 
vn 0.834646 0 -0.551181 
vn 0.708661 0 -0.708661 
vn 0.708661 0 -0.708661 
vn 0 -1 0 
vn 0 -1 0 
vn 0 -1 0 
vn 0 -1 0 
vn 0 -1 0 
vn 0 -1 0 
vn 0 -1 0 
vn 0 -1 0 
vn 0 -1 0 
vn 0 -1 0 
vn 0 -1 0 
vn 0 -1 0 
vn 0 -1 0 
vn 0 -1 0 
vn 0 -1 0 
vn 0 -1 0 
vn 0 -1 0 
vn 0 -1 0 
vn 0 -1 0 
vn 0 -1 0 
vn 0 -1 0 
vn 0 -1 0 
vn 0 -1 0 
vn 0 -1 0 
vn 0 -1 0 
vn 0 -1 0 
vn 0 -1 0 
vn 0 -1 0 
vn 0 -1 0 
vn -0.708661 0 -0.708661 
vn -0.708661 0 -0.708661 
vn -0.551181 0 -0.834646 
vn -0.551181 0 -0.834646 
vn -0.314961 0 -0.944882 
vn -0.314961 0 -0.944882 
vn 0 0 -1 
vn 0 0 -1 
vn 0.314961 0 -0.944882 
vn 0.314961 0 -0.944882 
vn 0.551181 0 -0.834646 
vn 0.551181 0 -0.834646 
vn 0.708661 0 -0.708661 
vn 0.708661 0 -0.708661 
vn -0.708661 0 0.708661 
vn -0.708661 0 0.708661 
vn -0.834646 0 0.551181 
vn -0.834646 0 0.551181 
vn -0.944882 0 0.314961 
vn -0.944882 0 0.314961 
vn -1 0 0 
vn -1 0 0 
vn -0.944882 0 -0.314961 
vn -0.944882 0 -0.314961 
vn -0.834646 0 -0.551181 
vn -0.834646 0 -0.551181 
vn -0.708661 0 -0.708661 
vn -0.708661 0 -0.708661 

vt 0.373397 1.09936 
vt 0.463111 1.18907 
vt 0.478963 1.16974 
vt 0.493761 1.13948 
vt 0.500272 1.09936 
vt 0.493761 1.05924 
vt 0.478963 1.02898 
vt 0.463111 1.00964 
vt 0.463111 1.00964 
vt 0.443774 0.993791 
vt 0.413518 0.978993 
vt 0.373397 0.972483 
vt 0.333275 0.978993 
vt 0.303019 0.993791 
vt 0.283682 1.00964 
vt 0.283682 1.00964 
vt 0.26783 1.02898 
vt 0.253032 1.05924 
vt 0.246522 1.09936 
vt 0.253032 1.13948 
vt 0.26783 1.16974 
vt 0.283682 1.18907 
vt 0.283682 1.18907 
vt 0.303019 1.20492 
vt 0.333275 1.21972 
vt 0.373397 1.22623 
vt 0.413518 1.21972 
vt 0.443774 1.20492 
vt 0.463111 1.18907 
vt 0.591793 1.45247 
vt 0.493043 1.45247 
vt 0.591793 1.41017 
vt 0.493043 1.41017 
vt 0.591793 1.36788 
vt 0.493043 1.36788 
vt 0.591793 1.32559 
vt 0.493043 1.32559 
vt 0.591793 1.2833 
vt 0.493043 1.2833 
vt 0.591793 1.24101 
vt 0.493043 1.24101 
vt 0.591793 1.19872 
vt 0.493043 1.19872 
vt 0.591793 1.45247 
vt 0.493043 1.45247 
vt 0.591793 1.41017 
vt 0.493043 1.41017 
vt 0.591793 1.36788 
vt 0.493043 1.36788 
vt 0.591793 1.32559 
vt 0.493043 1.32559 
vt 0.591793 1.2833 
vt 0.493043 1.2833 
vt 0.591793 1.24101 
vt 0.493043 1.24101 
vt 0.591793 1.19872 
vt 0.493043 1.19872 
vt 0.373397 1.09936 
vt 0.463111 1.18907 
vt 0.478963 1.16974 
vt 0.493761 1.13948 
vt 0.500272 1.09936 
vt 0.493761 1.05924 
vt 0.478963 1.02898 
vt 0.463111 1.00964 
vt 0.463111 1.00964 
vt 0.443774 0.993791 
vt 0.413518 0.978993 
vt 0.373397 0.972483 
vt 0.333275 0.978993 
vt 0.303019 0.993791 
vt 0.283682 1.00964 
vt 0.283682 1.00964 
vt 0.26783 1.02898 
vt 0.253032 1.05924 
vt 0.246522 1.09936 
vt 0.253032 1.13948 
vt 0.26783 1.16974 
vt 0.283682 1.18907 
vt 0.283682 1.18907 
vt 0.303019 1.20492 
vt 0.333275 1.21972 
vt 0.373397 1.22623 
vt 0.413518 1.21972 
vt 0.443774 1.20492 
vt 0.463111 1.18907 
vt 0.591793 1.45247 
vt 0.493043 1.45247 
vt 0.591793 1.41017 
vt 0.493043 1.41017 
vt 0.591793 1.36788 
vt 0.493043 1.36788 
vt 0.591793 1.32559 
vt 0.493043 1.32559 
vt 0.591793 1.2833 
vt 0.493043 1.2833 
vt 0.591793 1.24101 
vt 0.493043 1.24101 
vt 0.591793 1.19872 
vt 0.493043 1.19872 
vt 0.591793 1.45247 
vt 0.493043 1.45247 
vt 0.591793 1.41017 
vt 0.493043 1.41017 
vt 0.591793 1.36788 
vt 0.493043 1.36788 
vt 0.591793 1.32559 
vt 0.493043 1.32559 
vt 0.591793 1.2833 
vt 0.493043 1.2833 
vt 0.591793 1.24101 
vt 0.493043 1.24101 
vt 0.591793 1.19872 
vt 0.493043 1.19872 

usemtl Part2Mtl

f 25/25/25 27/27/27 26/26/26 
f 25/25/25 28/28/28 27/27/27 
f 25/25/25 29/29/29 28/28/28 
f 25/25/25 30/30/30 29/29/29 
f 25/25/25 31/31/31 30/30/30 
f 25/25/25 32/32/32 31/31/31 
f 25/25/25 34/34/34 33/33/33 
f 25/25/25 35/35/35 34/34/34 
f 25/25/25 36/36/36 35/35/35 
f 25/25/25 37/37/37 36/36/36 
f 25/25/25 38/38/38 37/37/37 
f 25/25/25 39/39/39 38/38/38 
f 25/25/25 41/41/41 40/40/40 
f 25/25/25 42/42/42 41/41/41 
f 25/25/25 43/43/43 42/42/42 
f 25/25/25 44/44/44 43/43/43 
f 25/25/25 45/45/45 44/44/44 
f 25/25/25 46/46/46 45/45/45 
f 25/25/25 48/48/48 47/47/47 
f 25/25/25 49/49/49 48/48/48 
f 25/25/25 50/50/50 49/49/49 
f 25/25/25 51/51/51 50/50/50 
f 25/25/25 52/52/52 51/51/51 
f 25/25/25 53/53/53 52/52/52 
f 54/54/54 55/55/55 56/56/56 
f 56/56/56 55/55/55 57/57/57 
f 56/56/56 57/57/57 58/58/58 
f 58/58/58 57/57/57 59/59/59 
f 58/58/58 59/59/59 60/60/60 
f 60/60/60 59/59/59 61/61/61 
f 60/60/60 61/61/61 62/62/62 
f 62/62/62 61/61/61 63/63/63 
f 62/62/62 63/63/63 64/64/64 
f 64/64/64 63/63/63 65/65/65 
f 64/64/64 65/65/65 66/66/66 
f 66/66/66 65/65/65 67/67/67 
f 68/68/68 69/69/69 70/70/70 
f 70/70/70 69/69/69 71/71/71 
f 70/70/70 71/71/71 72/72/72 
f 72/72/72 71/71/71 73/73/73 
f 72/72/72 73/73/73 74/74/74 
f 74/74/74 73/73/73 75/75/75 
f 74/74/74 75/75/75 76/76/76 
f 76/76/76 75/75/75 77/77/77 
f 76/76/76 77/77/77 78/78/78 
f 78/78/78 77/77/77 79/79/79 
f 78/78/78 79/79/79 80/80/80 
f 80/80/80 79/79/79 81/81/81 
f 82/82/82 84/84/84 83/83/83 
f 82/82/82 85/85/85 84/84/84 
f 82/82/82 86/86/86 85/85/85 
f 82/82/82 87/87/87 86/86/86 
f 82/82/82 88/88/88 87/87/87 
f 82/82/82 89/89/89 88/88/88 
f 82/82/82 91/91/91 90/90/90 
f 82/82/82 92/92/92 91/91/91 
f 82/82/82 93/93/93 92/92/92 
f 82/82/82 94/94/94 93/93/93 
f 82/82/82 95/95/95 94/94/94 
f 82/82/82 96/96/96 95/95/95 
f 82/82/82 98/98/98 97/97/97 
f 82/82/82 99/99/99 98/98/98 
f 82/82/82 100/100/100 99/99/99 
f 82/82/82 101/101/101 100/100/100 
f 82/82/82 102/102/102 101/101/101 
f 82/82/82 103/103/103 102/102/102 
f 82/82/82 105/105/105 104/104/104 
f 82/82/82 106/106/106 105/105/105 
f 82/82/82 107/107/107 106/106/106 
f 82/82/82 108/108/108 107/107/107 
f 82/82/82 109/109/109 108/108/108 
f 82/82/82 110/110/110 109/109/109 
f 111/111/111 112/112/112 113/113/113 
f 113/113/113 112/112/112 114/114/114 
f 113/113/113 114/114/114 115/115/115 
f 115/115/115 114/114/114 116/116/116 
f 115/115/115 116/116/116 117/117/117 
f 117/117/117 116/116/116 118/118/118 
f 117/117/117 118/118/118 119/119/119 
f 119/119/119 118/118/118 120/120/120 
f 119/119/119 120/120/120 121/121/121 
f 121/121/121 120/120/120 122/122/122 
f 121/121/121 122/122/122 123/123/123 
f 123/123/123 122/122/122 124/124/124 
f 125/125/125 126/126/126 127/127/127 
f 127/127/127 126/126/126 128/128/128 
f 127/127/127 128/128/128 129/129/129 
f 129/129/129 128/128/128 130/130/130 
f 129/129/129 130/130/130 131/131/131 
f 131/131/131 130/130/130 132/132/132 
f 131/131/131 132/132/132 133/133/133 
f 133/133/133 132/132/132 134/134/134 
f 133/133/133 134/134/134 135/135/135 
f 135/135/135 134/134/134 136/136/136 
f 135/135/135 136/136/136 137/137/137 
f 137/137/137 136/136/136 138/138/138 

g Part3

v 13.1259 1.32026 -33.63 
v 13.1259 1.32026 -30.55 
v 13.1259 0.320257 -33.63 
v 13.1259 0.320257 -30.55 
v 9.68588 1.32026 -30.55 
v 13.1259 1.32026 -30.55 
v 9.68588 1.32026 -33.63 
v 13.1259 1.32026 -33.63 
v 13.1259 1.32026 -30.55 
v 9.68588 1.32026 -30.55 
v 13.1259 0.320257 -30.55 
v 9.68588 0.320257 -30.55 
v 9.68588 1.32026 -30.55 
v 9.68588 1.32026 -33.63 
v 9.68588 0.320257 -30.55 
v 9.68588 0.320257 -33.63 
v 9.68588 0.320257 -33.63 
v 13.1259 0.320257 -33.63 
v 9.68588 0.320257 -30.55 
v 13.1259 0.320257 -30.55 
v 9.68588 1.32026 -33.63 
v 13.1259 1.32026 -33.63 
v 9.68588 0.320257 -33.63 
v 13.1259 0.320257 -33.63 

vn 1 0 0 
vn 1 0 0 
vn 1 0 0 
vn 1 0 0 
vn 0 1 0 
vn 0 1 0 
vn 0 1 0 
vn 0 1 0 
vn 0 0 1 
vn 0 0 1 
vn 0 0 1 
vn 0 0 1 
vn -1 0 0 
vn -1 0 0 
vn -1 0 0 
vn -1 0 0 
vn 0 -1 0 
vn 0 -1 0 
vn 0 -1 0 
vn 0 -1 0 
vn 0 0 -1 
vn 0 0 -1 
vn 0 0 -1 
vn 0 0 -1 

vt 0.0768501 1.07151 
vt -0.30815 1.07151 
vt 0.0768501 0.946508 
vt -0.30815 0.946508 
vt 0.12185 1.07151 
vt -0.30815 1.07151 
vt 0.12185 0.686508 
vt -0.30815 0.686508 
vt 0.12185 1.07151 
vt -0.30815 1.07151 
vt 0.12185 0.946508 
vt -0.30815 0.946508 
vt 0.0768501 1.07151 
vt -0.30815 1.07151 
vt 0.0768501 0.946508 
vt -0.30815 0.946508 
vt 0.12185 1.07151 
vt -0.30815 1.07151 
vt 0.12185 0.686508 
vt -0.30815 0.686508 
vt 0.12185 1.07151 
vt -0.30815 1.07151 
vt 0.12185 0.946508 
vt -0.30815 0.946508 

usemtl Part1Mtl

f 139/139/139 140/140/140 141/141/141 
f 141/141/141 140/140/140 142/142/142 
f 143/143/143 144/144/144 145/145/145 
f 145/145/145 144/144/144 146/146/146 
f 147/147/147 148/148/148 149/149/149 
f 149/149/149 148/148/148 150/150/150 
f 151/151/151 152/152/152 153/153/153 
f 153/153/153 152/152/152 154/154/154 
f 155/155/155 156/156/156 157/157/157 
f 157/157/157 156/156/156 158/158/158 
f 159/159/159 160/160/160 161/161/161 
f 161/161/161 160/160/160 162/162/162 

g Part4

v 12.8459 1.59042 -33.39 
v 12.8459 1.59042 -30.71 
v 12.8459 1.18042 -33.39 
v 12.8459 1.18042 -30.71 
v 9.88589 1.59042 -30.71 
v 12.8459 1.59042 -30.71 
v 9.88589 1.59042 -33.39 
v 12.8459 1.59042 -33.39 
v 12.8459 1.59042 -30.71 
v 9.88589 1.59042 -30.71 
v 12.8459 1.18042 -30.71 
v 9.88589 1.18042 -30.71 
v 9.88589 1.59042 -30.71 
v 9.88589 1.59042 -33.39 
v 9.88589 1.18042 -30.71 
v 9.88589 1.18042 -33.39 
v 9.88589 1.18042 -33.39 
v 12.8459 1.18042 -33.39 
v 9.88589 1.18042 -30.71 
v 12.8459 1.18042 -30.71 
v 9.88589 1.59042 -33.39 
v 12.8459 1.59042 -33.39 
v 9.88589 1.18042 -33.39 
v 12.8459 1.18042 -33.39 

vn 1 0 0 
vn 1 0 0 
vn 1 0 0 
vn 1 0 0 
vn 0 1 0 
vn 0 1 0 
vn 0 1 0 
vn 0 1 0 
vn 0 0 1 
vn 0 0 1 
vn 0 0 1 
vn 0 0 1 
vn -1 0 0 
vn -1 0 0 
vn -1 0 0 
vn -1 0 0 
vn 0 -1 0 
vn 0 -1 0 
vn 0 -1 0 
vn 0 -1 0 
vn 0 0 -1 
vn 0 0 -1 
vn 0 0 -1 
vn 0 0 -1 

vt 0.603254 0.902198 
vt 0.268254 0.902198 
vt 0.603254 0.850948 
vt 0.268254 0.850948 
vt 0.638254 0.902198 
vt 0.268254 0.902198 
vt 0.638254 0.567198 
vt 0.268254 0.567198 
vt 0.638254 0.902198 
vt 0.268254 0.902198 
vt 0.638254 0.850948 
vt 0.268254 0.850948 
vt 0.603254 0.902198 
vt 0.268254 0.902198 
vt 0.603254 0.850948 
vt 0.268254 0.850948 
vt 0.638254 0.902198 
vt 0.268254 0.902198 
vt 0.638254 0.567198 
vt 0.268254 0.567198 
vt 0.638254 0.902198 
vt 0.268254 0.902198 
vt 0.638254 0.850948 
vt 0.268254 0.850948 

usemtl Part1Mtl

f 163/163/163 164/164/164 165/165/165 
f 165/165/165 164/164/164 166/166/166 
f 167/167/167 168/168/168 169/169/169 
f 169/169/169 168/168/168 170/170/170 
f 171/171/171 172/172/172 173/173/173 
f 173/173/173 172/172/172 174/174/174 
f 175/175/175 176/176/176 177/177/177 
f 177/177/177 176/176/176 178/178/178 
f 179/179/179 180/180/180 181/181/181 
f 181/181/181 180/180/180 182/182/182 
f 183/183/183 184/184/184 185/185/185 
f 185/185/185 184/184/184 186/186/186 

g Part5

v 19.0759 23.6503 -32.27 
v 19.0759 23.6503 -31.3 
v 19.0759 12.8503 -32.27 
v 19.0759 12.8503 -31.3 
v 2.3259 23.6503 -31.3 
v 19.0759 23.6503 -31.3 
v 2.3259 23.6503 -32.27 
v 19.0759 23.6503 -32.27 
v 19.0759 23.6503 -31.3 
v 2.3259 23.6503 -31.3 
v 19.0759 12.8503 -31.3 
v 2.3259 12.8503 -31.3 
v 2.3259 23.6503 -31.3 
v 2.3259 23.6503 -32.27 
v 2.3259 12.8503 -31.3 
v 2.3259 12.8503 -32.27 
v 2.3259 12.8503 -32.27 
v 19.0759 12.8503 -32.27 
v 2.3259 12.8503 -31.3 
v 19.0759 12.8503 -31.3 
v 2.3259 23.6503 -32.27 
v 19.0759 23.6503 -32.27 
v 2.3259 12.8503 -32.27 
v 19.0759 12.8503 -32.27 

vn 1 0 0 
vn 1 0 0 
vn 1 0 0 
vn 1 0 0 
vn 0 1 0 
vn 0 1 0 
vn 0 1 0 
vn 0 1 0 
vn 0 0 1 
vn 0 0 1 
vn 0 0 1 
vn 0 0 1 
vn -1 0 0 
vn -1 0 0 
vn -1 0 0 
vn -1 0 0 
vn 0 -1 0 
vn 0 -1 0 
vn 0 -1 0 
vn 0 -1 0 
vn 0 0 -1 
vn 0 0 -1 
vn 0 0 -1 
vn 0 0 -1 

vt -0.320175 -0.596567 
vt -0.441425 -0.596567 
vt -0.320175 -1.94657 
vt -0.441425 -1.94657 
vt 1.65232 -0.596567 
vt -0.441425 -0.596567 
vt 1.65232 -0.717817 
vt -0.441425 -0.717817 
vt 1.65232 -0.596567 
vt -0.441425 -0.596567 
vt 1.65232 -1.94657 
vt -0.441425 -1.94657 
vt -0.320175 -0.596567 
vt -0.441425 -0.596567 
vt -0.320175 -1.94657 
vt -0.441425 -1.94657 
vt 1.65232 -0.596567 
vt -0.441425 -0.596567 
vt 1.65232 -0.717817 
vt -0.441425 -0.717817 
vt 1.65232 -0.596567 
vt -0.441425 -0.596567 
vt 1.65232 -1.94657 
vt -0.441425 -1.94657 

usemtl Part5Mtl

f 187/187/187 188/188/188 189/189/189 
f 189/189/189 188/188/188 190/190/190 
f 191/191/191 192/192/192 193/193/193 
f 193/193/193 192/192/192 194/194/194 
f 195/195/195 196/196/196 197/197/197 
f 197/197/197 196/196/196 198/198/198 
f 199/199/199 200/200/200 201/201/201 
f 201/201/201 200/200/200 202/202/202 
f 203/203/203 204/204/204 205/205/205 
f 205/205/205 204/204/204 206/206/206 
f 207/207/207 208/208/208 209/209/209 
f 209/209/209 208/208/208 210/210/210 

g Part6

v 20.5602 12.6208 -31.8364 
v 20.5602 12.6208 -30.8668 
v 19.406 12.6006 -31.8364 
v 19.406 12.6006 -30.8668 
v 20.3525 24.5197 -30.8668 
v 20.5602 12.6208 -30.8668 
v 20.3525 24.5197 -31.8364 
v 20.5602 12.6208 -31.8364 
v 20.5602 12.6208 -30.8668 
v 20.3525 24.5197 -30.8668 
v 19.406 12.6006 -30.8668 
v 19.1983 24.4996 -30.8668 
v 20.3525 24.5197 -30.8668 
v 20.3525 24.5197 -31.8364 
v 19.1983 24.4996 -30.8668 
v 19.1983 24.4996 -31.8364 
v 19.1983 24.4996 -31.8364 
v 19.406 12.6006 -31.8364 
v 19.1983 24.4996 -30.8668 
v 19.406 12.6006 -30.8668 
v 20.3525 24.5197 -31.8364 
v 20.5602 12.6208 -31.8364 
v 19.1983 24.4996 -31.8364 
v 19.406 12.6006 -31.8364 

vn 0.015748 -1 0 
vn 0.015748 -1 0 
vn 0.015748 -1 0 
vn 0.015748 -1 0 
vn 1 0.015748 0 
vn 1 0.015748 0 
vn 1 0.015748 0 
vn 1 0.015748 0 
vn 0 0 1 
vn 0 0 1 
vn 0 0 1 
vn 0 0 1 
vn -0.015748 1 0 
vn -0.015748 1 0 
vn -0.015748 1 0 
vn -0.015748 1 0 
vn -1 -0.015748 0 
vn -1 -0.015748 0 
vn -1 -0.015748 0 
vn -1 -0.015748 0 
vn 0 0 -1 
vn 0 0 -1 
vn 0 0 -1 
vn 0 0 -1 

vt 0.743398 1.87324 
vt 0.622198 1.87324 
vt 0.743398 1.72896 
vt 0.622198 1.72896 
vt 2.10979 1.87324 
vt 0.622198 1.87324 
vt 2.10979 1.75204 
vt 0.622198 1.75204 
vt 2.10979 1.87324 
vt 0.622198 1.87324 
vt 2.10979 1.72896 
vt 0.622198 1.72896 
vt 0.743398 1.87324 
vt 0.622198 1.87324 
vt 0.743398 1.72896 
vt 0.622198 1.72896 
vt 2.10979 1.87324 
vt 0.622198 1.87324 
vt 2.10979 1.75204 
vt 0.622198 1.75204 
vt 2.10979 1.87324 
vt 0.622198 1.87324 
vt 2.10979 1.72896 
vt 0.622198 1.72896 

usemtl Part6Mtl

f 211/211/211 212/212/212 213/213/213 
f 213/213/213 212/212/212 214/214/214 
f 215/215/215 216/216/216 217/217/217 
f 217/217/217 216/216/216 218/218/218 
f 219/219/219 220/220/220 221/221/221 
f 221/221/221 220/220/220 222/222/222 
f 223/223/223 224/224/224 225/225/225 
f 225/225/225 224/224/224 226/226/226 
f 227/227/227 228/228/228 229/229/229 
f 229/229/229 228/228/228 230/230/230 
f 231/231/231 232/232/232 233/233/233 
f 233/233/233 232/232/232 234/234/234 

g Part7

v 2.58509 12.5441 -31.8101 
v 2.58179 12.5467 -30.8405 
v 2.58112 13.6983 -31.8133 
v 2.57782 13.701 -30.8437 
v 19.5728 12.6053 -30.7829 
v 2.58179 12.5467 -30.8405 
v 19.5761 12.6026 -31.7525 
v 2.58509 12.5441 -31.8101 
v 2.58179 12.5467 -30.8405 
v 19.5728 12.6053 -30.7829 
v 2.57782 13.701 -30.8437 
v 19.5688 13.7596 -30.786 
v 19.5728 12.6053 -30.7829 
v 19.5761 12.6026 -31.7525 
v 19.5688 13.7596 -30.786 
v 19.5721 13.7569 -31.7556 
v 19.5721 13.7569 -31.7556 
v 2.58112 13.6983 -31.8133 
v 19.5688 13.7596 -30.786 
v 2.57782 13.701 -30.8437 
v 19.5761 12.6026 -31.7525 
v 2.58509 12.5441 -31.8101 
v 19.5721 13.7569 -31.7556 
v 2.58112 13.6983 -31.8133 

vn -1 0 0 
vn -1 0 0 
vn -1 0 0 
vn -1 0 0 
vn 0 -1 0 
vn 0 -1 0 
vn 0 -1 0 
vn 0 -1 0 
vn 0 0 1 
vn 0 0 1 
vn 0 0 1 
vn 0 0 1 
vn 1 0 0 
vn 1 0 0 
vn 1 0 0 
vn 1 0 0 
vn 0 1 0 
vn 0 1 0 
vn 0 1 0 
vn 0 1 0 
vn 0 0 -1 
vn 0 0 -1 
vn 0 0 -1 
vn 0 0 -1 

vt -0.414791 0.00540769 
vt -0.535992 0.00540769 
vt -0.414791 -0.138879 
vt -0.535992 -0.138879 
vt 1.58791 0.00540769 
vt -0.535992 0.00540769 
vt 1.58791 -0.115793 
vt -0.535992 -0.115793 
vt 1.58791 0.00540769 
vt -0.535992 0.00540769 
vt 1.58791 -0.138879 
vt -0.535992 -0.138879 
vt -0.414791 0.00540769 
vt -0.535992 0.00540769 
vt -0.414791 -0.138879 
vt -0.535992 -0.138879 
vt 1.58791 0.00540769 
vt -0.535992 0.00540769 
vt 1.58791 -0.115793 
vt -0.535992 -0.115793 
vt 1.58791 0.00540769 
vt -0.535992 0.00540769 
vt 1.58791 -0.138879 
vt -0.535992 -0.138879 

usemtl Part6Mtl

f 235/235/235 236/236/236 237/237/237 
f 237/237/237 236/236/236 238/238/238 
f 239/239/239 240/240/240 241/241/241 
f 241/241/241 240/240/240 242/242/242 
f 243/243/243 244/244/244 245/245/245 
f 245/245/245 244/244/244 246/246/246 
f 247/247/247 248/248/248 249/249/249 
f 249/249/249 248/248/248 250/250/250 
f 251/251/251 252/252/252 253/253/253 
f 253/253/253 252/252/252 254/254/254 
f 255/255/255 256/256/256 257/257/257 
f 257/257/257 256/256/256 258/258/258 

g Part8

v 2.62138 12.6102 -32.7833 
v 2.62138 12.6102 -31.8137 
v 1.46714 12.5981 -32.7833 
v 1.46714 12.5981 -31.8137 
v 2.49675 24.5103 -31.8137 
v 2.62138 12.6102 -31.8137 
v 2.49675 24.5103 -32.7833 
v 2.62138 12.6102 -32.7833 
v 2.62138 12.6102 -31.8137 
v 2.49675 24.5103 -31.8137 
v 1.46714 12.5981 -31.8137 
v 1.34252 24.4982 -31.8137 
v 2.49675 24.5103 -31.8137 
v 2.49675 24.5103 -32.7833 
v 1.34252 24.4982 -31.8137 
v 1.34252 24.4982 -32.7833 
v 1.34252 24.4982 -32.7833 
v 1.46714 12.5981 -32.7833 
v 1.34252 24.4982 -31.8137 
v 1.46714 12.5981 -31.8137 
v 2.49675 24.5103 -32.7833 
v 2.62138 12.6102 -32.7833 
v 1.34252 24.4982 -32.7833 
v 1.46714 12.5981 -32.7833 

vn 0.00787402 -1 0 
vn 0.00787402 -1 0 
vn 0.00787402 -1 0 
vn 0.00787402 -1 0 
vn 1 0.00787402 0 
vn 1 0.00787402 0 
vn 1 0.00787402 0 
vn 1 0.00787402 0 
vn 0 0 1 
vn 0 0 1 
vn 0 0 1 
vn 0 0 1 
vn -0.00787402 1 0 
vn -0.00787402 1 0 
vn -0.00787402 1 0 
vn -0.00787402 1 0 
vn -1 -0.00787402 0 
vn -1 -0.00787402 0 
vn -1 -0.00787402 0 
vn -1 -0.00787402 0 
vn 0 0 -1 
vn 0 0 -1 
vn 0 0 -1 
vn 0 0 -1 

vt -0.633544 0.377802 
vt -0.754745 0.377802 
vt -0.633544 0.233516 
vt -0.754745 0.233516 
vt 0.732852 0.377802 
vt -0.754745 0.377802 
vt 0.732852 0.256602 
vt -0.754745 0.256602 
vt 0.732852 0.377802 
vt -0.754745 0.377802 
vt 0.732852 0.233516 
vt -0.754745 0.233516 
vt -0.633544 0.377802 
vt -0.754745 0.377802 
vt -0.633544 0.233516 
vt -0.754745 0.233516 
vt 0.732852 0.377802 
vt -0.754745 0.377802 
vt 0.732852 0.256602 
vt -0.754745 0.256602 
vt 0.732852 0.377802 
vt -0.754745 0.377802 
vt 0.732852 0.233516 
vt -0.754745 0.233516 

usemtl Part6Mtl

f 259/259/259 260/260/260 261/261/261 
f 261/261/261 260/260/260 262/262/262 
f 263/263/263 264/264/264 265/265/265 
f 265/265/265 264/264/264 266/266/266 
f 267/267/267 268/268/268 269/269/269 
f 269/269/269 268/268/268 270/270/270 
f 271/271/271 272/272/272 273/273/273 
f 273/273/273 272/272/272 274/274/274 
f 275/275/275 276/276/276 277/277/277 
f 277/277/277 276/276/276 278/278/278 
f 279/279/279 280/280/280 281/281/281 
f 281/281/281 280/280/280 282/282/282 

g Part9

v 2.50844 12.6126 -32.7571 
v 2.50516 12.6152 -31.7875 
v 2.51253 13.7669 -32.7602 
v 2.50925 13.7695 -31.7906 
v 19.4962 12.5552 -31.7298 
v 2.50516 12.6152 -31.7875 
v 19.4994 12.5525 -32.6994 
v 2.50844 12.6126 -32.7571 
v 2.50516 12.6152 -31.7875 
v 19.4962 12.5552 -31.7298 
v 2.50925 13.7695 -31.7906 
v 19.5003 13.7095 -31.733 
v 19.4962 12.5552 -31.7298 
v 19.4994 12.5525 -32.6994 
v 19.5003 13.7095 -31.733 
v 19.5035 13.7068 -32.7026 
v 19.5035 13.7068 -32.7026 
v 2.51253 13.7669 -32.7602 
v 19.5003 13.7095 -31.733 
v 2.50925 13.7695 -31.7906 
v 19.4994 12.5525 -32.6994 
v 2.50844 12.6126 -32.7571 
v 19.5035 13.7068 -32.7026 
v 2.51253 13.7669 -32.7602 

vn -1 0 0 
vn -1 0 0 
vn -1 0 0 
vn -1 0 0 
vn 0 -1 0 
vn 0 -1 0 
vn 0 -1 0 
vn 0 -1 0 
vn 0 0 1 
vn 0 0 1 
vn 0 0 1 
vn 0 0 1 
vn 1 0 0 
vn 1 0 0 
vn 1 0 0 
vn 1 0 0 
vn 0 1 0 
vn 0 1 0 
vn 0 1 0 
vn 0 1 0 
vn 0 0 -1 
vn 0 0 -1 
vn 0 0 -1 
vn 0 0 -1 

vt 0.0850423 0.288987 
vt -0.0361586 0.288987 
vt 0.0850423 0.144701 
vt -0.0361586 0.144701 
vt 2.08774 0.288987 
vt -0.0361586 0.288987 
vt 2.08774 0.167787 
vt -0.0361586 0.167787 
vt 2.08774 0.288987 
vt -0.0361586 0.288987 
vt 2.08774 0.144701 
vt -0.0361586 0.144701 
vt 0.0850423 0.288987 
vt -0.0361586 0.288987 
vt 0.0850423 0.144701 
vt -0.0361586 0.144701 
vt 2.08774 0.288987 
vt -0.0361586 0.288987 
vt 2.08774 0.167787 
vt -0.0361586 0.167787 
vt 2.08774 0.288987 
vt -0.0361586 0.288987 
vt 2.08774 0.144701 
vt -0.0361586 0.144701 

usemtl Part6Mtl

f 283/283/283 284/284/284 285/285/285 
f 285/285/285 284/284/284 286/286/286 
f 287/287/287 288/288/288 289/289/289 
f 289/289/289 288/288/288 290/290/290 
f 291/291/291 292/292/292 293/293/293 
f 293/293/293 292/292/292 294/294/294 
f 295/295/295 296/296/296 297/297/297 
f 297/297/297 296/296/296 298/298/298 
f 299/299/299 300/300/300 301/301/301 
f 301/301/301 300/300/300 302/302/302 
f 303/303/303 304/304/304 305/305/305 
f 305/305/305 304/304/304 306/306/306 

g Part10

v 20.4836 12.5638 -32.7833 
v 20.4836 12.5638 -31.8137 
v 19.3294 12.5517 -32.7833 
v 19.3294 12.5517 -31.8137 
v 20.359 24.4639 -31.8137 
v 20.4836 12.5638 -31.8137 
v 20.359 24.4639 -32.7833 
v 20.4836 12.5638 -32.7833 
v 20.4836 12.5638 -31.8137 
v 20.359 24.4639 -31.8137 
v 19.3294 12.5517 -31.8137 
v 19.2047 24.4518 -31.8137 
v 20.359 24.4639 -31.8137 
v 20.359 24.4639 -32.7833 
v 19.2047 24.4518 -31.8137 
v 19.2047 24.4518 -32.7833 
v 19.2047 24.4518 -32.7833 
v 19.3294 12.5517 -32.7833 
v 19.2047 24.4518 -31.8137 
v 19.3294 12.5517 -31.8137 
v 20.359 24.4639 -32.7833 
v 20.4836 12.5638 -32.7833 
v 19.2047 24.4518 -32.7833 
v 19.3294 12.5517 -32.7833 

vn 0.00787402 -1 0 
vn 0.00787402 -1 0 
vn 0.00787402 -1 0 
vn 0.00787402 -1 0 
vn 1 0.00787402 0 
vn 1 0.00787402 0 
vn 1 0.00787402 0 
vn 1 0.00787402 0 
vn 0 0 1 
vn 0 0 1 
vn 0 0 1 
vn 0 0 1 
vn -0.00787402 1 0 
vn -0.00787402 1 0 
vn -0.00787402 1 0 
vn -0.00787402 1 0 
vn -1 -0.00787402 0 
vn -1 -0.00787402 0 
vn -1 -0.00787402 0 
vn -1 -0.00787402 0 
vn 0 0 -1 
vn 0 0 -1 
vn 0 0 -1 
vn 0 0 -1 

vt -0.00505273 0.910554 
vt -0.126254 0.910554 
vt -0.00505273 0.766267 
vt -0.126254 0.766267 
vt 1.36134 0.910554 
vt -0.126254 0.910554 
vt 1.36134 0.789353 
vt -0.126254 0.789353 
vt 1.36134 0.910554 
vt -0.126254 0.910554 
vt 1.36134 0.766267 
vt -0.126254 0.766267 
vt -0.00505273 0.910554 
vt -0.126254 0.910554 
vt -0.00505273 0.766267 
vt -0.126254 0.766267 
vt 1.36134 0.910554 
vt -0.126254 0.910554 
vt 1.36134 0.789353 
vt -0.126254 0.789353 
vt 1.36134 0.910554 
vt -0.126254 0.910554 
vt 1.36134 0.766267 
vt -0.126254 0.766267 

usemtl Part6Mtl

f 307/307/307 308/308/308 309/309/309 
f 309/309/309 308/308/308 310/310/310 
f 311/311/311 312/312/312 313/313/313 
f 313/313/313 312/312/312 314/314/314 
f 315/315/315 316/316/316 317/317/317 
f 317/317/317 316/316/316 318/318/318 
f 319/319/319 320/320/320 321/321/321 
f 321/321/321 320/320/320 322/322/322 
f 323/323/323 324/324/324 325/325/325 
f 325/325/325 324/324/324 326/326/326 
f 327/327/327 328/328/328 329/329/329 
f 329/329/329 328/328/328 330/330/330 

g Part11

v 2.32253 23.3608 -32.791 
v 2.31925 23.3635 -31.8214 
v 2.32662 24.5151 -32.7942 
v 2.32334 24.5177 -31.8246 
v 19.3103 23.3034 -31.7638 
v 2.31925 23.3635 -31.8214 
v 19.3135 23.3007 -32.7334 
v 2.32253 23.3608 -32.791 
v 2.31925 23.3635 -31.8214 
v 19.3103 23.3034 -31.7638 
v 2.32334 24.5177 -31.8246 
v 19.3143 24.4577 -31.767 
v 19.3103 23.3034 -31.7638 
v 19.3135 23.3007 -32.7334 
v 19.3143 24.4577 -31.767 
v 19.3176 24.455 -32.7366 
v 19.3176 24.455 -32.7366 
v 2.32662 24.5151 -32.7942 
v 19.3143 24.4577 -31.767 
v 2.32334 24.5177 -31.8246 
v 19.3135 23.3007 -32.7334 
v 2.32253 23.3608 -32.791 
v 19.3176 24.455 -32.7366 
v 2.32662 24.5151 -32.7942 

vn -1 0 0 
vn -1 0 0 
vn -1 0 0 
vn -1 0 0 
vn 0 -1 0 
vn 0 -1 0 
vn 0 -1 0 
vn 0 -1 0 
vn 0 0 1 
vn 0 0 1 
vn 0 0 1 
vn 0 0 1 
vn 1 0 0 
vn 1 0 0 
vn 1 0 0 
vn 1 0 0 
vn 0 1 0 
vn 0 1 0 
vn 0 1 0 
vn 0 1 0 
vn 0 0 -1 
vn 0 0 -1 
vn 0 0 -1 
vn 0 0 -1 

vt 0.901728 0.168385 
vt 0.780527 0.168385 
vt 0.901728 0.0240987 
vt 0.780527 0.0240987 
vt 2.90443 0.168385 
vt 0.780527 0.168385 
vt 2.90443 0.0471846 
vt 0.780527 0.0471846 
vt 2.90443 0.168385 
vt 0.780527 0.168385 
vt 2.90443 0.0240987 
vt 0.780527 0.0240987 
vt 0.901728 0.168385 
vt 0.780527 0.168385 
vt 0.901728 0.0240987 
vt 0.780527 0.0240987 
vt 2.90443 0.168385 
vt 0.780527 0.168385 
vt 2.90443 0.0471846 
vt 0.780527 0.0471846 
vt 2.90443 0.168385 
vt 0.780527 0.168385 
vt 2.90443 0.0240987 
vt 0.780527 0.0240987 

usemtl Part6Mtl

f 331/331/331 332/332/332 333/333/333 
f 333/333/333 332/332/332 334/334/334 
f 335/335/335 336/336/336 337/337/337 
f 337/337/337 336/336/336 338/338/338 
f 339/339/339 340/340/340 341/341/341 
f 341/341/341 340/340/340 342/342/342 
f 343/343/343 344/344/344 345/345/345 
f 345/345/345 344/344/344 346/346/346 
f 347/347/347 348/348/348 349/349/349 
f 349/349/349 348/348/348 350/350/350 
f 351/351/351 352/352/352 353/353/353 
f 353/353/353 352/352/352 354/354/354 

g Part12

v 2.32415 23.2907 -31.8441 
v 2.32085 23.2933 -30.8745 
v 2.32018 24.445 -31.8473 
v 2.31688 24.4476 -30.8777 
v 19.3119 23.3519 -30.8169 
v 2.32085 23.2933 -30.8745 
v 19.3152 23.3493 -31.7865 
v 2.32415 23.2907 -31.8441 
v 2.32085 23.2933 -30.8745 
v 19.3119 23.3519 -30.8169 
v 2.31688 24.4476 -30.8777 
v 19.3079 24.5062 -30.82 
v 19.3119 23.3519 -30.8169 
v 19.3152 23.3493 -31.7865 
v 19.3079 24.5062 -30.82 
v 19.3112 24.5035 -31.7896 
v 19.3112 24.5035 -31.7896 
v 2.32018 24.445 -31.8473 
v 19.3079 24.5062 -30.82 
v 2.31688 24.4476 -30.8777 
v 19.3152 23.3493 -31.7865 
v 2.32415 23.2907 -31.8441 
v 19.3112 24.5035 -31.7896 
v 2.32018 24.445 -31.8473 

vn -1 0 0 
vn -1 0 0 
vn -1 0 0 
vn -1 0 0 
vn 0 -1 0 
vn 0 -1 0 
vn 0 -1 0 
vn 0 -1 0 
vn 0 0 1 
vn 0 0 1 
vn 0 0 1 
vn 0 0 1 
vn 1 0 0 
vn 1 0 0 
vn 1 0 0 
vn 1 0 0 
vn 0 1 0 
vn 0 1 0 
vn 0 1 0 
vn 0 1 0 
vn 0 0 -1 
vn 0 0 -1 
vn 0 0 -1 
vn 0 0 -1 

vt 0.551933 0.295188 
vt 0.430733 0.295188 
vt 0.551933 0.150901 
vt 0.430733 0.150901 
vt 2.55463 0.295188 
vt 0.430733 0.295188 
vt 2.55463 0.173987 
vt 0.430733 0.173987 
vt 2.55463 0.295188 
vt 0.430733 0.295188 
vt 2.55463 0.150901 
vt 0.430733 0.150901 
vt 0.551933 0.295188 
vt 0.430733 0.295188 
vt 0.551933 0.150901 
vt 0.430733 0.150901 
vt 2.55463 0.295188 
vt 0.430733 0.295188 
vt 2.55463 0.173987 
vt 0.430733 0.173987 
vt 2.55463 0.295188 
vt 0.430733 0.295188 
vt 2.55463 0.150901 
vt 0.430733 0.150901 

usemtl Part6Mtl

f 355/355/355 356/356/356 357/357/357 
f 357/357/357 356/356/356 358/358/358 
f 359/359/359 360/360/360 361/361/361 
f 361/361/361 360/360/360 362/362/362 
f 363/363/363 364/364/364 365/365/365 
f 365/365/365 364/364/364 366/366/366 
f 367/367/367 368/368/368 369/369/369 
f 369/369/369 368/368/368 370/370/370 
f 371/371/371 372/372/372 373/373/373 
f 373/373/373 372/372/372 374/374/374 
f 375/375/375 376/376/376 377/377/377 
f 377/377/377 376/376/376 378/378/378 

g Part13

v 2.69805 12.5424 -31.8364 
v 2.69805 12.5424 -30.8668 
v 1.54393 12.5223 -31.8364 
v 1.54393 12.5223 -30.8668 
v 2.49035 24.4414 -30.8668 
v 2.69805 12.5424 -30.8668 
v 2.49035 24.4414 -31.8364 
v 2.69805 12.5424 -31.8364 
v 2.69805 12.5424 -30.8668 
v 2.49035 24.4414 -30.8668 
v 1.54393 12.5223 -30.8668 
v 1.33624 24.4212 -30.8668 
v 2.49035 24.4414 -30.8668 
v 2.49035 24.4414 -31.8364 
v 1.33624 24.4212 -30.8668 
v 1.33624 24.4212 -31.8364 
v 1.33624 24.4212 -31.8364 
v 1.54393 12.5223 -31.8364 
v 1.33624 24.4212 -30.8668 
v 1.54393 12.5223 -30.8668 
v 2.49035 24.4414 -31.8364 
v 2.69805 12.5424 -31.8364 
v 1.33624 24.4212 -31.8364 
v 1.54393 12.5223 -31.8364 

vn 0.015748 -1 0 
vn 0.015748 -1 0 
vn 0.015748 -1 0 
vn 0.015748 -1 0 
vn 1 0.015748 0 
vn 1 0.015748 0 
vn 1 0.015748 0 
vn 1 0.015748 0 
vn 0 0 1 
vn 0 0 1 
vn 0 0 1 
vn 0 0 1 
vn -0.015748 1 0 
vn -0.015748 1 0 
vn -0.015748 1 0 
vn -0.015748 1 0 
vn -1 -0.015748 0 
vn -1 -0.015748 0 
vn -1 -0.015748 0 
vn -1 -0.015748 0 
vn 0 0 -1 
vn 0 0 -1 
vn 0 0 -1 
vn 0 0 -1 

vt 0.382323 0.878666 
vt 0.261122 0.878666 
vt 0.382323 0.734379 
vt 0.261122 0.734379 
vt 1.74872 0.878666 
vt 0.261122 0.878666 
vt 1.74872 0.757465 
vt 0.261122 0.757465 
vt 1.74872 0.878666 
vt 0.261122 0.878666 
vt 1.74872 0.734379 
vt 0.261122 0.734379 
vt 0.382323 0.878666 
vt 0.261122 0.878666 
vt 0.382323 0.734379 
vt 0.261122 0.734379 
vt 1.74872 0.878666 
vt 0.261122 0.878666 
vt 1.74872 0.757465 
vt 0.261122 0.757465 
vt 1.74872 0.878666 
vt 0.261122 0.878666 
vt 1.74872 0.734379 
vt 0.261122 0.734379 

usemtl Part6Mtl

f 379/379/379 380/380/380 381/381/381 
f 381/381/381 380/380/380 382/382/382 
f 383/383/383 384/384/384 385/385/385 
f 385/385/385 384/384/384 386/386/386 
f 387/387/387 388/388/388 389/389/389 
f 389/389/389 388/388/388 390/390/390 
f 391/391/391 392/392/392 393/393/393 
f 393/393/393 392/392/392 394/394/394 
f 395/395/395 396/396/396 397/397/397 
f 397/397/397 396/396/396 398/398/398 
f 399/399/399 400/400/400 401/401/401 
f 401/401/401 400/400/400 402/402/402 

