# This file is brought to you by Roblox Corporation
# Generated by Roblox Studio

mtllib exitSign.mtl

g Union1

v 20.8338 0.106372 -21.7777 
v 20.8338 1.56316 -21.7777 
v 20.8338 0.106372 -20 
v 20.8338 1.56316 -18.2223 
v 20.8338 0.106372 -18.2223 
v 21.1662 8.34465e-07 -18.7276 
v 21.1662 8.34465e-07 -18.7276 
v 21.1616 8.34465e-07 -18.6932 
v 21.2726 8.34465e-07 -18.116 
v 21.1484 9.53674e-07 -18.6612 
v 21.1272 6.55651e-07 -18.6336 
v 21.0997 9.53674e-07 -18.6124 
v 21.0677 8.34465e-07 -18.5992 
v 21.0332 6.55651e-07 -18.5946 
v 20.9988 8.34465e-07 -18.5992 
v 20.9668 9.53674e-07 -18.6124 
v 21.0677 8.34465e-07 -20.2479 
v 21.0332 6.55651e-07 -20.2434 
v 21.0532 6.55651e-07 -20.246 
v 21.1484 9.53674e-07 -20.3099 
v 21.1706 8.34465e-07 -19.7691 
v 21.1273 6.55651e-07 -20.2824 
v 21.1617 8.34465e-07 -20.3419 
v 21.1662 6.55651e-07 -20.3763 
v 21.1662 8.34465e-07 -20.3763 
v 21.1656 6.55651e-07 -20.3719 
v 21.1662 8.34465e-07 -20.3764 
v 21.1662 8.34465e-07 -20.3764 
v 21.0332 6.55651e-07 -21.4135 
v 21.2726 8.34465e-07 -21.8841 
v 21.0677 8.34465e-07 -21.4089 
v 21.0997 9.53674e-07 -21.3957 
v 21.1273 6.55651e-07 -21.3745 
v 21.1484 9.53674e-07 -21.347 
v 21.1617 8.34465e-07 -21.3149 
v 21.1662 6.55651e-07 -21.2805 
v 21.1662 8.34465e-07 -21.2805 
v 21.1662 8.34465e-07 -21.2805 
v 21.0332 6.55651e-07 -19.7647 
v 21.0677 8.34465e-07 -19.7602 
v 21.0997 9.53674e-07 -19.7469 
v 21.1273 6.55651e-07 -19.7258 
v 21.1484 9.53674e-07 -19.6982 
v 21.1616 8.34465e-07 -19.6662 
v 21.1662 8.34465e-07 -19.6318 
v 21.1662 8.34465e-07 -19.6318 
v 21.1662 6.55651e-07 -18.7511 
v 21.2726 1.66954 -21.8841 
v 20.7275 1.66954 -21.8841 
v 21.2726 1.66954 -18.116 
v 20.7275 1.66954 -18.116 
v 21.2726 8.34465e-07 -21.8841 
v 20.7275 8.34465e-07 -21.8841 
v 21.2726 1.66954 -21.8841 
v 20.7275 1.66954 -21.8841 
v 20.7275 8.34465e-07 -18.116 
v 20.7275 1.66954 -18.116 
v 20.7275 8.34465e-07 -21.8841 
v 20.7275 1.66954 -21.8841 
v 21.2726 1.66954 -18.116 
v 20.7275 1.66954 -18.116 
v 21.2726 8.34465e-07 -18.116 
v 20.7275 8.34465e-07 -18.116 
v 20.9181 9.53674e-07 -18.6612 
v 20.8959 8.34465e-07 -18.5902 
v 20.9393 6.55651e-07 -18.6336 
v 20.7275 8.34465e-07 -18.116 
v 20.9048 8.34465e-07 -18.6932 
v 20.9009 6.55651e-07 -18.7232 
v 20.9003 8.34465e-07 -19.6317 
v 20.9003 8.34465e-07 -18.7277 
v 20.9003 6.55651e-07 -18.7277 
v 20.9003 6.55651e-07 -19.6317 
v 20.8959 8.34465e-07 -20.239 
v 20.9048 8.34465e-07 -19.6662 
v 20.9181 9.53674e-07 -19.6982 
v 20.9392 6.55651e-07 -19.7258 
v 20.9668 9.53674e-07 -19.7469 
v 20.9988 8.34465e-07 -19.7602 
v 20.9003 8.34465e-07 -21.2805 
v 20.9003 8.34465e-07 -20.3764 
v 20.9003 8.34465e-07 -21.2805 
v 20.7275 8.34465e-07 -21.8841 
v 20.9003 6.55651e-07 -21.2805 
v 20.9048 8.34465e-07 -21.3149 
v 20.9181 9.53674e-07 -21.347 
v 20.9392 6.55651e-07 -21.3745 
v 20.9668 9.53674e-07 -21.3957 
v 20.9988 8.34465e-07 -21.4089 
v 20.9392 6.55651e-07 -20.2823 
v 20.9668 9.53674e-07 -20.2612 
v 20.9988 8.34465e-07 -20.2479 
v 21.0997 9.53674e-07 -20.2612 
v 20.918 9.53674e-07 -20.3099 
v 20.9048 8.34465e-07 -20.3419 
v 20.9009 6.55651e-07 -20.3719 
v 20.9003 6.55651e-07 -20.3763 
v 21.2726 0.106372 -20 
v 21.1662 0.106372 -19.6318 
v 21.2726 0.106372 -18.2223 
v 21.1662 0.106372 -18.7276 
v 21.0677 0.106372 -18.5992 
v 21.0997 0.106372 -18.6124 
v 21.1617 0.106372 -18.6932 
v 21.1662 0.106372 -18.7276 
v 21.1273 0.106372 -18.6336 
v 21.1484 0.106372 -18.6612 
v 21.0332 0.106372 -19.7647 
v 21.0677 0.106372 -19.7602 
v 21.1662 0.106372 -19.6318 
v 21.1617 0.106372 -19.6663 
v 21.0997 0.106372 -19.7469 
v 21.1484 0.106372 -19.6982 
v 21.1273 0.106372 -19.7258 
v 21.1662 0.106372 -19.6318 
v 21.1662 8.34465e-07 -18.7276 
v 21.1662 0.106372 -18.7276 
v 21.1662 0.106372 -18.7276 
v 21.1662 8.34465e-07 -18.7276 
v 21.1662 0.106372 -18.7276 
v 21.0677 0.106372 -19.7602 
v 21.0677 0.10196 -19.7602 
v 21.0997 0.106372 -19.7469 
v 21.0997 0.10196 -19.7469 
v 21.1273 0.106372 -19.7258 
v 21.1273 0.106372 -19.7258 
v 21.1484 0.10196 -19.6982 
v 21.1484 0.106372 -19.6982 
v 21.1617 0.106372 -19.6663 
v 21.1617 0.10196 -19.6663 
v 21.1662 0.106372 -19.6318 
v 21.1662 0.10196 -19.6318 
v 21.1662 0.106372 -19.6318 
v 21.1662 0.10196 -19.6318 
v 21.1662 0.106372 -19.6318 
v 21.1662 0.10196 -19.6318 
v 21.1662 0.10196 -18.7276 
v 21.1617 0.10196 -18.6932 
v 21.1617 0.106372 -18.6932 
v 21.1662 0.10196 -18.7276 
v 21.1662 0.106372 -18.7276 
v 21.1484 0.106372 -18.6612 
v 21.1484 0.10196 -18.6612 
v 21.1273 0.106372 -18.6336 
v 21.0997 0.10196 -18.6124 
v 21.0997 0.106372 -18.6124 
v 21.1273 0.106372 -18.6336 
v 21.0677 0.10196 -18.5992 
v 21.0677 0.106372 -18.5992 
v 21.2726 0.106372 -21.7777 
v 21.2726 0.834769 -21.7777 
v 21.2726 1.56316 -21.7777 
v 21.2726 0.106372 -21.7777 
v 21.1662 0.106372 -21.2805 
v 21.1662 0.106372 -20.3764 
v 21.0677 0.106372 -20.2479 
v 21.1341 0.106372 -20.2755 
v 21.0997 0.106372 -20.2612 
v 21.0532 0.106372 -21.7777 
v 21.0677 0.106372 -21.4089 
v 21.0997 0.106372 -21.3957 
v 21.1273 0.106372 -21.3745 
v 21.1484 0.106372 -21.347 
v 21.1662 0.106372 -21.2805 
v 21.1662 0.106372 -21.2805 
v 21.1617 0.106372 -21.3149 
v 21.1484 0.106372 -20.3099 
v 21.1617 0.106372 -20.3419 
v 21.1662 0.106372 -20.3763 
v 21.1662 0.106372 -20.3764 
v 21.1273 0.106372 -20.2823 
v 21.1662 0.106372 -21.2805 
v 21.1662 0.10196 -20.3764 
v 21.1662 0.106372 -20.3764 
v 21.1662 0.106372 -21.2805 
v 21.1662 0.10196 -21.2805 
v 21.1662 0.106372 -21.2805 
v 21.0997 0.106372 -21.3957 
v 21.0997 0.10196 -21.3957 
v 21.1273 0.106372 -21.3745 
v 21.1273 0.106372 -21.3745 
v 21.1484 0.10196 -21.347 
v 21.1484 0.106372 -21.347 
v 21.1617 0.106372 -21.3149 
v 21.1617 0.10196 -21.3149 
v 21.1662 0.106372 -21.2805 
v 21.1662 0.10196 -21.2805 
v 21.1662 0.106372 -21.2805 
v 21.1662 0.10196 -21.2805 
v 21.0532 0.106372 -20.246 
v 21.0677 0.106372 -20.2479 
v 21.0677 0.10196 -20.2479 
v 21.0332 0.10196 -21.4135 
v 21.0677 0.10196 -21.4089 
v 21.0677 0.106372 -21.4089 
v 21.1662 0.106372 -20.3764 
v 21.1662 0.10196 -20.3764 
v 21.1662 0.106372 -20.3764 
v 21.1484 0.106372 -20.3099 
v 21.1484 0.10196 -20.3099 
v 21.1273 0.106372 -20.2823 
v 21.0997 0.10196 -20.2612 
v 21.0997 0.106372 -20.2612 
v 21.1273 0.106372 -20.2823 
v 21.1662 0.10196 -20.3763 
v 21.1662 0.106372 -20.3763 
v 21.1662 0.106372 -20.3764 
v 21.1617 0.106372 -20.3419 
v 21.1617 0.10196 -20.3419 
v 21.2726 0.106372 -20 
v 21.2726 0.106372 -18.2223 
v 21.2726 0.106372 -21.7777 
v 21.2726 1.56316 -21.7777 
v 21.2726 0.834769 -21.7777 
v 20.9003 0.106372 -18.2223 
v 20.9003 0.106372 -18.6634 
v 20.8338 0.106372 -18.2223 
v 20.9003 0.106372 -18.7276 
v 20.9048 0.106372 -18.6932 
v 20.9003 0.106372 -19.6317 
v 20.8338 0.106372 -20 
v 20.9003 0.106372 -19.6318 
v 20.9003 0.106372 -18.7277 
v 20.9003 0.106372 -19.6317 
v 20.9668 0.106372 -18.6124 
v 20.9392 0.106372 -18.6336 
v 21.0332 0.106372 -18.5946 
v 20.9048 0.106372 -19.6662 
v 20.9988 0.106372 -18.5992 
v 20.918 0.106372 -19.6982 
v 20.9392 0.106372 -19.7258 
v 20.9668 0.106372 -19.7469 
v 20.9181 0.106372 -18.6612 
v 20.9988 0.106372 -19.7602 
v 20.9003 0.106372 -18.7276 
v 20.9003 0.10196 -18.7276 
v 20.9003 0.106372 -18.7277 
v 20.9003 0.10196 -18.7277 
v 21.0332 0.106372 -19.7647 
v 21.0332 0.10196 -19.7647 
v 20.9048 0.106372 -19.6662 
v 20.9048 0.10196 -19.6662 
v 20.918 0.106372 -19.6982 
v 20.9181 0.10196 -19.6982 
v 20.9392 0.106372 -19.7258 
v 20.9392 0.106372 -19.7258 
v 20.9668 0.10196 -19.7469 
v 20.9668 0.106372 -19.7469 
v 20.9988 0.106372 -19.7602 
v 20.9988 0.10196 -19.7602 
v 20.9003 0.10196 -19.6317 
v 20.9003 0.106372 -19.6317 
v 20.9003 0.10196 -19.6317 
v 20.9003 0.106372 -19.6317 
v 20.9003 0.106372 -19.6318 
v 20.9392 0.106372 -18.6336 
v 20.9181 0.10196 -18.6612 
v 20.9181 0.106372 -18.6612 
v 20.9048 0.106372 -18.6932 
v 20.9048 0.10196 -18.6932 
v 20.9003 0.106372 -18.7277 
v 20.9003 0.10196 -19.6317 
v 20.9003 0.106372 -19.6317 
v 20.9988 0.10196 -18.5992 
v 20.9988 0.106372 -18.5992 
v 21.0332 0.10196 -18.5946 
v 21.0332 0.106372 -18.5946 
v 20.9668 0.10196 -18.6124 
v 20.9668 0.106372 -18.6124 
v 20.9392 0.106372 -18.6336 
v 20.9003 0.106372 -21.2805 
v 20.8338 0.106372 -21.7777 
v 20.9003 0.106372 -20.3763 
v 20.9003 0.106372 -20.3764 
v 20.9003 0.106372 -21.2805 
v 20.9048 0.106372 -20.3419 
v 20.9392 0.106372 -20.2823 
v 20.918 0.106372 -20.3099 
v 20.9668 0.106372 -20.2612 
v 20.9003 0.106372 -21.7777 
v 21.0332 0.106372 -21.4135 
v 20.9988 0.106372 -21.4089 
v 20.9988 0.106372 -20.2479 
v 20.9668 0.106372 -21.3957 
v 21.0332 0.106372 -20.2434 
v 20.9392 0.106372 -21.3745 
v 21.0532 0.106372 -20.246 
v 20.9181 0.106372 -21.347 
v 20.9048 0.106372 -21.3149 
v 20.9048 0.106372 -20.3419 
v 20.9048 0.10196 -20.3419 
v 20.9003 0.106372 -20.3763 
v 20.9003 0.10196 -20.3763 
v 20.918 0.106372 -20.3099 
v 20.918 0.10196 -20.3099 
v 20.9988 0.106372 -21.4089 
v 20.9988 0.10196 -21.4089 
v 21.0332 0.106372 -21.4135 
v 20.9668 0.106372 -21.3957 
v 20.9668 0.10196 -21.3957 
v 20.9392 0.106372 -21.3745 
v 20.9181 0.106372 -21.347 
v 20.9181 0.10196 -21.347 
v 20.9392 0.106372 -21.3745 
v 20.9048 0.106372 -21.3149 
v 20.9048 0.10196 -21.3149 
v 20.9003 0.106372 -21.2805 
v 20.9003 0.10196 -21.2805 
v 21.0332 0.10196 -20.2434 
v 21.0332 0.106372 -20.2434 
v 20.9988 0.10196 -20.2479 
v 20.9988 0.106372 -20.2479 
v 20.9668 0.10196 -20.2612 
v 20.9668 0.106372 -20.2612 
v 20.9003 0.106372 -21.2805 
v 20.9003 0.10196 -21.2805 
v 20.9392 0.106372 -20.2823 
v 20.9392 0.106372 -20.2823 
v 20.9003 0.106372 -20.3764 
v 20.9003 0.10196 -21.2805 
v 20.9003 0.106372 -21.2805 
v 20.9003 0.10196 -20.3764 
v 20.9003 0.106372 -20.3764 
v 20.8338 0.106372 -21.7777 
v 20.9003 0.106372 -21.7777 
v 21.0532 0.106372 -21.7777 
v 21.2726 0.106372 -18.2223 
v 20.9003 0.106372 -18.2223 
v 21.2726 0.834769 -18.2223 
v 20.8338 0.106372 -18.2223 
v 20.8338 1.56316 -18.2223 
v 21.2726 1.56316 -18.2223 
v 21.2726 1.66954 -21.8841 
v 21.2726 1.66954 -18.116 
v 21.2726 0.834769 -18.2223 
v 21.2726 8.34465e-07 -18.116 
v 21.1662 8.34465e-07 -20.3764 
v 21.1662 8.34465e-07 -21.2805 
v 21.1662 0.10196 -21.2805 
v 21.1662 8.34465e-07 -21.2805 
v 21.1662 8.34465e-07 -21.2805 
v 21.1662 6.55651e-07 -18.7511 
v 21.1662 0.10196 -21.2805 
v 21.0997 9.53674e-07 -21.3957 
v 21.1273 6.55651e-07 -21.3745 
v 21.1273 6.55651e-07 -21.3745 
v 21.1484 9.53674e-07 -21.347 
v 21.1662 8.34465e-07 -19.6318 
v 21.1662 0.10196 -19.6318 
v 21.0677 8.34465e-07 -19.7602 
v 21.0997 9.53674e-07 -19.7469 
v 21.1273 6.55651e-07 -19.7258 
v 21.1273 6.55651e-07 -19.7258 
v 21.1484 9.53674e-07 -19.6982 
v 21.1616 8.34465e-07 -19.6662 
v 21.1662 8.34465e-07 -19.6318 
v 21.1662 8.34465e-07 -19.6318 
v 21.1662 8.34465e-07 -19.6318 
v 21.1617 8.34465e-07 -21.3149 
v 21.1662 6.55651e-07 -21.2805 
v 21.1662 8.34465e-07 -21.2805 
v 21.1662 8.34465e-07 -18.7276 
v 21.1616 8.34465e-07 -18.6932 
v 21.1662 8.34465e-07 -18.7276 
v 21.1484 9.53674e-07 -18.6612 
v 21.1272 6.55651e-07 -18.6336 
v 21.0997 9.53674e-07 -18.6124 
v 21.1272 6.55651e-07 -18.6336 
v 21.0677 8.34465e-07 -18.5992 
v 21.0332 6.55651e-07 -18.5946 
v 21.0677 8.34465e-07 -20.2479 
v 21.0532 6.55651e-07 -20.246 
v 21.0677 8.34465e-07 -21.4089 
v 21.1662 8.34465e-07 -20.3764 
v 21.1662 8.34465e-07 -20.3764 
v 21.1484 9.53674e-07 -20.3099 
v 21.1273 6.55651e-07 -20.2824 
v 21.0997 9.53674e-07 -20.2612 
v 21.1273 6.55651e-07 -20.2824 
v 21.1662 6.55651e-07 -20.3763 
v 21.1662 8.34465e-07 -20.3764 
v 21.1656 6.55651e-07 -20.3719 
v 21.1617 8.34465e-07 -20.3419 
v 21.2726 8.34465e-07 -21.8841 
v 20.9003 6.55651e-07 -20.3763 
v 20.9003 8.34465e-07 -20.3764 
v 20.9048 8.34465e-07 -20.3419 
v 20.9009 6.55651e-07 -20.3719 
v 20.918 9.53674e-07 -20.3099 
v 20.9988 8.34465e-07 -21.4089 
v 21.0332 6.55651e-07 -21.4135 
v 20.9668 9.53674e-07 -21.3957 
v 20.9392 6.55651e-07 -21.3745 
v 20.9181 9.53674e-07 -21.347 
v 20.9392 6.55651e-07 -21.3745 
v 20.9048 8.34465e-07 -21.3149 
v 20.9003 6.55651e-07 -21.2805 
v 20.9003 8.34465e-07 -21.2805 
v 20.9003 0.10196 -18.7277 
v 20.9003 8.34465e-07 -19.6317 
v 20.9003 6.55651e-07 -18.7277 
v 20.9003 8.34465e-07 -18.7277 
v 21.0332 6.55651e-07 -19.7647 
v 20.9048 8.34465e-07 -19.6662 
v 20.9181 9.53674e-07 -19.6982 
v 20.9392 6.55651e-07 -19.7258 
v 20.9392 6.55651e-07 -19.7258 
v 20.9668 9.53674e-07 -19.7469 
v 20.9988 8.34465e-07 -19.7602 
v 20.9003 6.55651e-07 -19.6317 
v 20.9003 8.34465e-07 -19.6317 
v 20.9393 6.55651e-07 -18.6336 
v 20.9181 9.53674e-07 -18.6612 
v 20.9048 8.34465e-07 -18.6932 
v 20.9009 6.55651e-07 -18.7232 
v 20.9003 8.34465e-07 -18.7277 
v 20.9988 8.34465e-07 -18.5992 
v 20.9668 9.53674e-07 -18.6124 
v 20.9393 6.55651e-07 -18.6336 
v 21.0332 6.55651e-07 -20.2434 
v 20.9988 8.34465e-07 -20.2479 
v 20.9668 9.53674e-07 -20.2612 
v 20.9003 8.34465e-07 -21.2805 
v 20.9392 6.55651e-07 -20.2823 
v 20.9392 6.55651e-07 -20.2823 
v 20.9003 8.34465e-07 -20.3764 
v 20.9003 8.34465e-07 -21.2805 
v 20.9003 0.10196 -20.3764 
v 21.2726 1.56316 -18.2223 
v 20.8338 1.56316 -18.2223 
v 20.8338 1.56316 -21.7777 
v 21.2726 1.56316 -18.2223 
v 21.2726 1.56316 -21.7777 
v 20.8338 1.56316 -21.7777 

vn 1 0 0 
vn 1 0 0 
vn 1 0 0 
vn 1 0 0 
vn 1 0 0 
vn 0 -1 0 
vn 0 -1 0 
vn 0 -1 0 
vn 0 -1 0 
vn 0 -1 0 
vn 0 -1 0 
vn 0 -1 0 
vn 0 -1 0 
vn 0 -1 0 
vn 0 -1 0 
vn 0 -1 0 
vn 0 -1 0 
vn 0 -1 0 
vn 0 -1 0 
vn 0 -1 0 
vn 0 -1 0 
vn 0 -1 0 
vn 0 -1 0 
vn 0 -1 0 
vn 0 -1 0 
vn 0 -1 0 
vn 0 -1 0 
vn 0 -1 0 
vn 0 -1 0 
vn 0 -1 0 
vn 0 -1 0 
vn 0 -1 0 
vn 0 -1 0 
vn 0 -1 0 
vn 0 -1 0 
vn 0 -1 0 
vn 0 -1 0 
vn 0 -1 0 
vn 0 -1 0 
vn 0 -1 0 
vn 0 -1 0 
vn 0 -1 0 
vn 0 -1 0 
vn 0 -1 0 
vn 0 -1 0 
vn 0 -1 0 
vn 0 -1 0 
vn 0 1 0 
vn 0 1 0 
vn 0 1 0 
vn 0 1 0 
vn 0 0 -1 
vn 0 0 -1 
vn 0 0 -1 
vn 0 0 -1 
vn -1 0 0 
vn -1 0 0 
vn -1 0 0 
vn -1 0 0 
vn 0 0 1 
vn 0 0 1 
vn 0 0 1 
vn 0 0 1 
vn 0 -1 0 
vn 0 -1 0 
vn 0 -1 0 
vn 0 -1 0 
vn 0 -1 0 
vn 0 -1 0 
vn 0 -1 0 
vn 0 -1 0 
vn 0 -1 0 
vn 0 -1 0 
vn 0 -1 0 
vn 0 -1 0 
vn 0 -1 0 
vn 0 -1 0 
vn 0 -1 0 
vn 0 -1 0 
vn 0 -1 0 
vn 0 -1 0 
vn 0 -1 0 
vn 0 -1 0 
vn 0 -1 0 
vn 0 -1 0 
vn 0 -1 0 
vn 0 -1 0 
vn 0 -1 0 
vn 0 -1 0 
vn 0 -1 0 
vn 0 -1 0 
vn 0 -1 0 
vn 0 -1 0 
vn 0 -1 0 
vn 0 -1 0 
vn 0 -1 0 
vn 0 -1 0 
vn 0 1 0 
vn 0 1 0 
vn 0 1 0 
vn 0 1 0 
vn 0 1 0 
vn 0 1 0 
vn 0 1 0 
vn 0 1 0 
vn 0 1 0 
vn 0 1 0 
vn 0 1 0 
vn 0 1 0 
vn 0 1 0 
vn 0 1 0 
vn 0 1 0 
vn 0 1 0 
vn 0 1 0 
vn -1 0 0 
vn -1 0 0 
vn -1 0 0 
vn 0 0 -1 
vn 0 0 -1 
vn 0 0 -1 
vn -0.259843 0 0.968504 
vn -0.259843 0 0.968504 
vn -0.496063 0 0.866142 
vn -0.496063 0 0.866142 
vn -0.708661 0 0.708661 
vn -0.708661 0 0.708661 
vn -0.866142 0 0.496063 
vn -0.866142 0 0.496063 
vn -0.968504 0 0.259843 
vn -0.968504 0 0.259843 
vn -1 0 0 
vn -1 0 0 
vn 0 0 1 
vn 0 0 1 
vn 0 0 1 
vn 0 0 1 
vn 0 0 -1 
vn -0.968504 0 -0.259843 
vn -0.968504 0 -0.259843 
vn -1 0 0 
vn -1 0 0 
vn -0.866142 0 -0.496063 
vn -0.866142 0 -0.496063 
vn -0.708661 0 -0.708661 
vn -0.496063 0 -0.866142 
vn -0.496063 0 -0.866142 
vn -0.708661 0 -0.708661 
vn -0.259843 0 -0.968504 
vn -0.259843 0 -0.968504 
vn 0 0 1 
vn 0 0 1 
vn 0 0 1 
vn 0 1 0 
vn 0 1 0 
vn 0 1 0 
vn 0 1 0 
vn 0 1 0 
vn 0 1 0 
vn 0 1 0 
vn 0 1 0 
vn 0 1 0 
vn 0 1 0 
vn 0 1 0 
vn 0 1 0 
vn 0 1 0 
vn 0 1 0 
vn 0 1 0 
vn 0 1 0 
vn 0 1 0 
vn 0 1 0 
vn 0 1 0 
vn -1 0 0 
vn -1 0 0 
vn -1 0 0 
vn 0 0 1 
vn 0 0 1 
vn 0 0 1 
vn -0.496063 0 0.866142 
vn -0.496063 0 0.866142 
vn -0.708661 0 0.708661 
vn -0.708661 0 0.708661 
vn -0.866142 0 0.503937 
vn -0.866142 0 0.503937 
vn -0.968504 0 0.259843 
vn -0.968504 0 0.259843 
vn -1 0 0 
vn -1 0 0 
vn -1 0 0 
vn -1 0 0 
vn -0.149606 0 -0.992126 
vn -0.259843 0 -0.968504 
vn -0.259843 0 -0.968504 
vn 0 0 1 
vn -0.259843 0 0.968504 
vn -0.259843 0 0.968504 
vn 0 0 -1 
vn 0 0 -1 
vn 0 0 -1 
vn -0.866142 0 -0.496063 
vn -0.866142 0 -0.496063 
vn -0.708661 0 -0.708661 
vn -0.496063 0 -0.866142 
vn -0.496063 0 -0.866142 
vn -0.708661 0 -0.708661 
vn -1 0 0 
vn -1 0 0 
vn -1 0 0 
vn -0.968504 0 -0.259843 
vn -0.968504 0 -0.259843 
vn 1 0 0 
vn 1 0 0 
vn 1 0 0 
vn 1 0 0 
vn 1 0 0 
vn 0 1 0 
vn 0 1 0 
vn 0 1 0 
vn 0 1 0 
vn 0 1 0 
vn 0 1 0 
vn 0 1 0 
vn 0 1 0 
vn 0 1 0 
vn 0 1 0 
vn 0 1 0 
vn 0 1 0 
vn 0 1 0 
vn 0 1 0 
vn 0 1 0 
vn 0 1 0 
vn 0 1 0 
vn 0 1 0 
vn 0 1 0 
vn 0 1 0 
vn 1 0 0 
vn 1 0 0 
vn 1 0 0 
vn 1 0 0 
vn 0 0 1 
vn 0 0 1 
vn 0.968504 0 0.259843 
vn 0.968504 0 0.259843 
vn 0.866142 0 0.496063 
vn 0.866142 0 0.496063 
vn 0.708661 0 0.708661 
vn 0.708661 0 0.708661 
vn 0.496063 0 0.866142 
vn 0.496063 0 0.866142 
vn 0.259843 0 0.968504 
vn 0.259843 0 0.968504 
vn 1 0 0 
vn 1 0 0 
vn 1 0 0 
vn 1 0 0 
vn 1 0 0 
vn 0.708661 0 -0.708661 
vn 0.866142 0 -0.496063 
vn 0.866142 0 -0.496063 
vn 0.968504 0 -0.259843 
vn 0.968504 0 -0.259843 
vn 1 0 0 
vn 1 0 0 
vn 1 0 0 
vn 0.259843 0 -0.968504 
vn 0.259843 0 -0.968504 
vn 0 0 -1 
vn 0 0 -1 
vn 0.496063 0 -0.866142 
vn 0.496063 0 -0.866142 
vn 0.708661 0 -0.708661 
vn 0 1 0 
vn 0 1 0 
vn 0 1 0 
vn 0 1 0 
vn 0 1 0 
vn 0 1 0 
vn 0 1 0 
vn 0 1 0 
vn 0 1 0 
vn 0 1 0 
vn 0 1 0 
vn 0 1 0 
vn 0 1 0 
vn 0 1 0 
vn 0 1 0 
vn 0 1 0 
vn 0 1 0 
vn 0 1 0 
vn 0 1 0 
vn 0.968504 0 -0.259843 
vn 0.968504 0 -0.259843 
vn 1 0 0 
vn 1 0 0 
vn 0.866142 0 -0.496063 
vn 0.866142 0 -0.496063 
vn 0.259843 0 0.968504 
vn 0.259843 0 0.968504 
vn 0 0 1 
vn 0.496063 0 0.866142 
vn 0.496063 0 0.866142 
vn 0.708661 0 0.708661 
vn 0.866142 0 0.496063 
vn 0.866142 0 0.496063 
vn 0.708661 0 0.708661 
vn 0.968504 0 0.259843 
vn 0.968504 0 0.259843 
vn 1 0 0 
vn 1 0 0 
vn 0 0 -1 
vn 0 0 -1 
vn 0.259843 0 -0.968504 
vn 0.259843 0 -0.968504 
vn 0.496063 0 -0.866142 
vn 0.496063 0 -0.866142 
vn 1 0 0 
vn 1 0 0 
vn 0.708661 0 -0.708661 
vn 0.708661 0 -0.708661 
vn 1 0 0 
vn 1 0 0 
vn 1 0 0 
vn 1 0 0 
vn 1 0 0 
vn 0 0 1 
vn 0 0 1 
vn 0 0 1 
vn 0 0 -1 
vn 0 0 -1 
vn 0 0 -1 
vn 0 0 -1 
vn 0 0 -1 
vn 1 0 0 
vn 1 0 0 
vn 1 0 0 
vn 1 0 0 
vn 1 0 0 
vn -1 0 0 
vn -1 0 0 
vn -1 0 0 
vn 0 0 1 
vn 0 0 1 
vn -1 0 0 
vn 0 0 1 
vn -0.496063 0 0.866142 
vn -0.708661 0 0.708661 
vn -0.708661 0 0.708661 
vn -0.866142 0 0.503937 
vn -1 0 0 
vn -1 0 0 
vn -0.259843 0 0.968504 
vn -0.496063 0 0.866142 
vn -0.708661 0 0.708661 
vn -0.708661 0 0.708661 
vn -0.866142 0 0.496063 
vn -0.968504 0 0.259843 
vn -1 0 0 
vn 0 0 1 
vn 0 0 1 
vn -0.968504 0 0.259843 
vn -1 0 0 
vn -1 0 0 
vn 0 0 -1 
vn -0.968504 0 -0.259843 
vn -1 0 0 
vn -0.866142 0 -0.496063 
vn -0.708661 0 -0.708661 
vn -0.496063 0 -0.866142 
vn -0.708661 0 -0.708661 
vn -0.259843 0 -0.968504 
vn 0 0 -1 
vn -0.259843 0 -0.968504 
vn -0.149606 0 -0.992126 
vn -0.259843 0 0.968504 
vn 0 0 -1 
vn 0 0 -1 
vn -0.866142 0 -0.496063 
vn -0.708661 0 -0.708661 
vn -0.496063 0 -0.866142 
vn -0.708661 0 -0.708661 
vn -1 0 0 
vn -1 0 0 
vn -1 0 -0.0314961 
vn -0.968504 0 -0.259843 
vn 1 0 0 
vn 1 0 0 
vn 1 0 0 
vn 0.968504 0 -0.259843 
vn 1 0 -0.0314961 
vn 0.866142 0 -0.496063 
vn 0.259843 0 0.968504 
vn 0 0 1 
vn 0.496063 0 0.866142 
vn 0.708661 0 0.708661 
vn 0.866142 0 0.496063 
vn 0.708661 0 0.708661 
vn 0.968504 0 0.259843 
vn 1 0 0 
vn 1 0 0 
vn 1 0 0 
vn 1 0 0 
vn 1 0 0 
vn 1 0 0 
vn 0 0 1 
vn 0.968504 0 0.259843 
vn 0.866142 0 0.496063 
vn 0.708661 0 0.708661 
vn 0.708661 0 0.708661 
vn 0.496063 0 0.866142 
vn 0.259843 0 0.968504 
vn 1 0 0 
vn 1 0 0 
vn 0.708661 0 -0.708661 
vn 0.866142 0 -0.496063 
vn 0.968504 0 -0.259843 
vn 1 0 -0.0314961 
vn 1 0 0 
vn 0.259843 0 -0.968504 
vn 0.496063 0 -0.866142 
vn 0.708661 0 -0.708661 
vn 0 0 -1 
vn 0.259843 0 -0.968504 
vn 0.496063 0 -0.866142 
vn 1 0 0 
vn 0.708661 0 -0.708661 
vn 0.708661 0 -0.708661 
vn 1 0 0 
vn 1 0 0 
vn 1 0 0 
vn 0 0 -1 
vn 0 -1 0 
vn 0 -1 0 
vn 0 -1 0 
vn 0 -1 0 
vn 0 0 1 

vt -0.047211 -2.06495 
vt -0.047211 -1.88285 
vt -0.269421 -2.06495 
vt -0.49163 -1.88285 
vt -0.49163 -2.06495 
vt -0.110371 -1.99468 
vt -0.110371 -1.99468 
vt -0.106064 -1.99411 
vt -0.0339158 -2.00797 
vt -0.102065 -1.99245 
vt -0.0986195 -1.98981 
vt -0.0959759 -1.98636 
vt -0.0943173 -1.98236 
vt -0.0937513 -1.97806 
vt -0.0943173 -1.97375 
vt -0.0959769 -1.96975 
vt -0.300411 -1.98236 
vt -0.299845 -1.97806 
vt -0.300174 -1.98055 
vt -0.308159 -1.99245 
vt -0.240563 -1.99523 
vt -0.304714 -1.98981 
vt -0.31216 -1.99411 
vt -0.316459 -1.99468 
vt -0.316453 -1.99468 
vt -0.315913 -1.9946 
vt -0.316466 -1.99468 
vt -0.316465 -1.99468 
vt -0.446105 -1.97806 
vt -0.504927 -2.00797 
vt -0.445538 -1.98236 
vt -0.443881 -1.98636 
vt -0.441235 -1.98981 
vt -0.437797 -1.99245 
vt -0.433787 -1.99411 
vt -0.429486 -1.99468 
vt -0.429485 -1.99468 
vt -0.429485 -1.99468 
vt -0.240013 -1.97806 
vt -0.239445 -1.98236 
vt -0.237787 -1.98636 
vt -0.235143 -1.98981 
vt -0.231692 -1.99246 
vt -0.227701 -1.99411 
vt -0.22339 -1.99468 
vt -0.223391 -1.99468 
vt -0.113309 -1.99468 
vt -0.0339147 -2.00797 
vt -0.0339147 -1.93984 
vt -0.504926 -2.00797 
vt -0.504926 -1.93984 
vt -0.303492 -2.07825 
vt -0.235352 -2.07825 
vt -0.303492 -1.86956 
vt -0.235352 -1.86956 
vt -0.0339158 -2.07825 
vt -0.0339158 -1.86956 
vt -0.504927 -2.07825 
vt -0.504927 -1.86956 
vt -0.23535 -1.86956 
vt -0.30349 -1.86956 
vt -0.23535 -2.07825 
vt -0.30349 -2.07825 
vt -0.102066 -1.96366 
vt -0.0932004 -1.96088 
vt -0.0986145 -1.96631 
vt -0.0339158 -1.93984 
vt -0.106066 -1.962 
vt -0.10982 -1.96151 
vt -0.223381 -1.96144 
vt -0.110384 -1.96144 
vt -0.110378 -1.96144 
vt -0.223388 -1.96144 
vt -0.299293 -1.96088 
vt -0.2277 -1.962 
vt -0.231695 -1.96366 
vt -0.235144 -1.96631 
vt -0.237788 -1.96975 
vt -0.239444 -1.97375 
vt -0.429479 -1.96144 
vt -0.316466 -1.96144 
vt -0.429485 -1.96144 
vt -0.504927 -1.93984 
vt -0.429486 -1.96144 
vt -0.433788 -1.962 
vt -0.437794 -1.96366 
vt -0.441237 -1.9663 
vt -0.443881 -1.96975 
vt -0.445537 -1.97375 
vt -0.304711 -1.96631 
vt -0.302071 -1.96975 
vt -0.300411 -1.97375 
vt -0.302069 -1.98636 
vt -0.308163 -1.96366 
vt -0.312158 -1.962 
vt -0.315913 -1.96151 
vt -0.316459 -1.96144 
vt -0.269421 -2.00797 
vt -0.315451 -1.99468 
vt -0.491628 -2.00797 
vt -0.42847 -1.99468 
vt -0.444525 -1.98236 
vt -0.442867 -1.98636 
vt -0.432778 -1.99411 
vt -0.42847 -1.99468 
vt -0.440224 -1.98981 
vt -0.436778 -1.99245 
vt -0.298831 -1.97806 
vt -0.299397 -1.98236 
vt -0.315452 -1.99468 
vt -0.31114 -1.99411 
vt -0.301055 -1.98636 
vt -0.30715 -1.99246 
vt -0.303699 -1.98981 
vt -0.223391 -2.06495 
vt -0.110371 -2.07825 
vt -0.110372 -2.06495 
vt -0.290197 -2.06495 
vt -0.290195 -2.07825 
vt -0.290195 -2.06495 
vt -0.260965 -2.06495 
vt -0.260965 -2.06551 
vt -0.256964 -2.06495 
vt -0.256964 -2.06551 
vt -0.253515 -2.06495 
vt -0.235143 -2.06495 
vt -0.231693 -2.06551 
vt -0.231692 -2.06495 
vt -0.227702 -2.06495 
vt -0.227702 -2.06551 
vt -0.22339 -2.06495 
vt -0.223391 -2.06551 
vt -0.248647 -2.06495 
vt -0.248647 -2.06551 
vt -0.248645 -2.06495 
vt -0.248647 -2.06551 
vt -0.290195 -2.06551 
vt -0.106064 -2.06551 
vt -0.106064 -2.06495 
vt -0.110372 -2.06551 
vt -0.110372 -2.06495 
vt -0.102065 -2.06495 
vt -0.102066 -2.06551 
vt -0.0986185 -2.06495 
vt -0.28188 -2.06551 
vt -0.28188 -2.06495 
vt -0.285327 -2.06495 
vt -0.277879 -2.06551 
vt -0.277879 -2.06495 
vt -0.235352 -2.06495 
vt -0.235352 -1.9739 
vt -0.235352 -1.88285 
vt -0.0472099 -2.00797 
vt -0.109357 -1.99468 
vt -0.222377 -1.99468 
vt -0.23843 -1.98236 
vt -0.234989 -1.99067 
vt -0.236774 -1.98636 
vt -0.047211 -1.98056 
vt -0.0933039 -1.98236 
vt -0.0949615 -1.98636 
vt -0.0976071 -1.98981 
vt -0.101045 -1.99245 
vt -0.109357 -1.99468 
vt -0.109357 -1.99468 
vt -0.105055 -1.99411 
vt -0.230683 -1.99245 
vt -0.226681 -1.99411 
vt -0.222384 -1.99468 
vt -0.222377 -1.99468 
vt -0.234129 -1.98981 
vt -0.429485 -2.06495 
vt -0.316465 -2.06551 
vt -0.316466 -2.06495 
vt -0.248647 -2.06495 
vt -0.248647 -2.06551 
vt -0.248645 -2.06495 
vt -0.256962 -2.06495 
vt -0.256962 -2.06551 
vt -0.253511 -2.06495 
vt -0.441235 -2.06495 
vt -0.437797 -2.06551 
vt -0.437797 -2.06495 
vt -0.433787 -2.06495 
vt -0.433787 -2.06551 
vt -0.429485 -2.06495 
vt -0.429485 -2.06551 
vt -0.429485 -2.06495 
vt -0.429485 -2.06551 
vt -0.276072 -2.06495 
vt -0.277879 -2.06495 
vt -0.277879 -2.06551 
vt -0.265266 -2.06551 
vt -0.260965 -2.06551 
vt -0.260963 -2.06495 
vt -0.290197 -2.06495 
vt -0.290195 -2.06551 
vt -0.290195 -2.06495 
vt -0.308159 -2.06495 
vt -0.30816 -2.06551 
vt -0.304713 -2.06495 
vt -0.28188 -2.06551 
vt -0.28188 -2.06495 
vt -0.285327 -2.06495 
vt -0.316459 -2.06551 
vt -0.316458 -2.06495 
vt -0.316466 -2.06495 
vt -0.312161 -2.06495 
vt -0.312161 -2.06551 
vt -0.269421 -2.06495 
vt -0.491628 -2.06495 
vt -0.0472099 -2.06495 
vt -0.0472099 -1.88285 
vt -0.047211 -1.9739 
vt -0.491629 -1.96144 
vt -0.436492 -1.96144 
vt -0.49163 -1.95313 
vt -0.428465 -1.96144 
vt -0.432775 -1.962 
vt -0.315455 -1.96144 
vt -0.269421 -1.95313 
vt -0.315452 -1.96144 
vt -0.428458 -1.96144 
vt -0.315462 -1.96144 
vt -0.442865 -1.96975 
vt -0.440228 -1.96631 
vt -0.445091 -1.97806 
vt -0.311142 -1.962 
vt -0.444524 -1.97375 
vt -0.307147 -1.96366 
vt -0.303698 -1.9663 
vt -0.301055 -1.96975 
vt -0.436777 -1.96366 
vt -0.299398 -1.97375 
vt -0.428465 -2.06495 
vt -0.428465 -2.06551 
vt -0.428458 -2.06495 
vt -0.428458 -2.06551 
vt -0.265268 -2.06495 
vt -0.265266 -2.06551 
vt -0.311142 -2.06495 
vt -0.311142 -2.06551 
vt -0.307147 -2.06495 
vt -0.307146 -2.06551 
vt -0.303698 -2.06495 
vt -0.277021 -2.06495 
vt -0.273574 -2.06551 
vt -0.273574 -2.06495 
vt -0.269573 -2.06495 
vt -0.269573 -2.06551 
vt -0.315454 -2.06551 
vt -0.315455 -2.06495 
vt -0.315462 -2.06551 
vt -0.315462 -2.06495 
vt -0.315452 -2.06495 
vt -0.440228 -2.06495 
vt -0.436777 -2.06551 
vt -0.436777 -2.06495 
vt -0.432775 -2.06495 
vt -0.432776 -2.06551 
vt -0.428458 -2.06495 
vt -0.315462 -2.06551 
vt -0.315462 -2.06495 
vt -0.269269 -2.06551 
vt -0.269269 -2.06495 
vt -0.273576 -2.06551 
vt -0.273574 -2.06495 
vt -0.265264 -2.06551 
vt -0.265264 -2.06495 
vt -0.261825 -2.06495 
vt -0.109357 -1.96144 
vt -0.047211 -1.95313 
vt -0.222384 -1.96144 
vt -0.222377 -1.96144 
vt -0.109364 -1.96144 
vt -0.226683 -1.962 
vt -0.234132 -1.96631 
vt -0.230679 -1.96366 
vt -0.236772 -1.96975 
vt -0.047211 -1.96144 
vt -0.0927368 -1.97806 
vt -0.0933039 -1.97375 
vt -0.23843 -1.97375 
vt -0.0949615 -1.96975 
vt -0.238998 -1.97806 
vt -0.0976051 -1.9663 
vt -0.238668 -1.98055 
vt -0.101048 -1.96366 
vt -0.105053 -1.962 
vt -0.226683 -2.06495 
vt -0.226683 -2.06551 
vt -0.222384 -2.06495 
vt -0.222383 -2.06551 
vt -0.230679 -2.06495 
vt -0.230678 -2.06551 
vt -0.269573 -2.06495 
vt -0.269573 -2.06551 
vt -0.265268 -2.06495 
vt -0.273574 -2.06495 
vt -0.273574 -2.06551 
vt -0.277021 -2.06495 
vt -0.101048 -2.06495 
vt -0.101048 -2.06551 
vt -0.0976051 -2.06495 
vt -0.105053 -2.06495 
vt -0.105053 -2.06551 
vt -0.109357 -2.06495 
vt -0.109357 -2.06551 
vt -0.273576 -2.06551 
vt -0.273574 -2.06495 
vt -0.269269 -2.06551 
vt -0.269269 -2.06495 
vt -0.265266 -2.06551 
vt -0.265264 -2.06495 
vt -0.109364 -2.06495 
vt -0.109364 -2.06551 
vt -0.261823 -2.06495 
vt -0.234132 -2.06495 
vt -0.222377 -2.06495 
vt -0.109364 -2.06551 
vt -0.109364 -2.06495 
vt -0.222377 -2.06551 
vt -0.222377 -2.06495 
vt -0.290193 -2.06495 
vt -0.281886 -2.06495 
vt -0.262768 -2.06495 
vt -0.30349 -2.06495 
vt -0.256956 -2.06495 
vt -0.30349 -1.9739 
vt -0.24865 -2.06495 
vt -0.24865 -1.88285 
vt -0.491628 -1.88285 
vt -0.0339147 -1.86956 
vt -0.504926 -1.86956 
vt -0.491629 -1.9739 
vt -0.504926 -2.07825 
vt -0.316466 -2.07825 
vt -0.429485 -2.07825 
vt -0.429484 -2.06551 
vt -0.248647 -2.07825 
vt -0.248647 -2.07825 
vt -0.113309 -2.07825 
vt -0.248647 -2.06551 
vt -0.256962 -2.07825 
vt -0.253511 -2.07825 
vt -0.441235 -2.07825 
vt -0.437797 -2.07825 
vt -0.223391 -2.07825 
vt -0.22339 -2.06551 
vt -0.260965 -2.07825 
vt -0.256964 -2.07825 
vt -0.253515 -2.07825 
vt -0.235143 -2.07825 
vt -0.231692 -2.07825 
vt -0.227701 -2.07825 
vt -0.22339 -2.07825 
vt -0.24865 -2.07825 
vt -0.248647 -2.07825 
vt -0.433787 -2.07825 
vt -0.429486 -2.07825 
vt -0.429485 -2.07825 
vt -0.290193 -2.07825 
vt -0.106064 -2.07825 
vt -0.110371 -2.07825 
vt -0.102065 -2.07825 
vt -0.0986195 -2.07825 
vt -0.28188 -2.07825 
vt -0.285325 -2.07825 
vt -0.277877 -2.07825 
vt -0.273576 -2.07825 
vt -0.277877 -2.07825 
vt -0.276072 -2.07825 
vt -0.260965 -2.07825 
vt -0.290195 -2.07825 
vt -0.290193 -2.07825 
vt -0.308159 -2.07825 
vt -0.304714 -2.07825 
vt -0.28188 -2.07825 
vt -0.285327 -2.07825 
vt -0.316459 -2.07825 
vt -0.316465 -2.07825 
vt -0.315913 -2.07825 
vt -0.31216 -2.07825 
vt -0.0339147 -2.07825 
vt -0.222383 -2.07825 
vt -0.222377 -2.07825 
vt -0.226684 -2.07825 
vt -0.22293 -2.07825 
vt -0.230679 -2.07825 
vt -0.269575 -2.07825 
vt -0.265266 -2.07825 
vt -0.273574 -2.07825 
vt -0.277021 -2.07825 
vt -0.101048 -2.07825 
vt -0.0976051 -2.07825 
vt -0.105054 -2.07825 
vt -0.109356 -2.07825 
vt -0.109357 -2.07825 
vt -0.428458 -2.06551 
vt -0.315461 -2.07825 
vt -0.428464 -2.07825 
vt -0.428458 -2.07825 
vt -0.265266 -2.07825 
vt -0.311142 -2.07825 
vt -0.307147 -2.07825 
vt -0.303698 -2.07825 
vt -0.277019 -2.07825 
vt -0.273574 -2.07825 
vt -0.269575 -2.07825 
vt -0.315454 -2.07825 
vt -0.315461 -2.07825 
vt -0.440228 -2.07825 
vt -0.436777 -2.07825 
vt -0.432776 -2.07825 
vt -0.429022 -2.07825 
vt -0.428458 -2.07825 
vt -0.269267 -2.07825 
vt -0.265264 -2.07825 
vt -0.261827 -2.07825 
vt -0.273576 -2.07825 
vt -0.269269 -2.07825 
vt -0.265264 -2.07825 
vt -0.109363 -2.07825 
vt -0.261825 -2.07825 
vt -0.234131 -2.07825 
vt -0.222377 -2.07825 
vt -0.109363 -2.07825 
vt -0.222377 -2.06551 
vt -0.30349 -1.88285 
vt -0.047212 -1.95313 
vt -0.491631 -1.95313 
vt -0.047214 -2.00797 
vt -0.491632 -2.00797 
vt -0.290193 -1.88285 

usemtl Union1Mtl

f 1/1/1 2/2/2 3/3/3 
f 2/2/2 4/4/4 3/3/3 
f 5/5/5 3/3/3 4/4/4 
f 6/6/6 7/7/7 8/8/8 
f 8/8/8 9/9/9 10/10/10 
f 10/10/10 9/9/9 11/11/11 
f 11/11/11 9/9/9 12/12/12 
f 12/12/12 9/9/9 13/13/13 
f 13/13/13 9/9/9 14/14/14 
f 14/14/14 9/9/9 15/15/15 
f 15/15/15 9/9/9 16/16/16 
f 17/17/17 18/18/18 19/19/19 
f 20/20/20 21/21/21 22/22/22 
f 23/23/23 21/21/21 20/20/20 
f 24/24/24 25/25/25 26/26/26 
f 24/24/24 27/27/27 25/25/25 
f 28/28/28 27/27/27 24/24/24 
f 29/29/29 30/30/30 31/31/31 
f 31/31/31 30/30/30 32/32/32 
f 32/32/32 30/30/30 33/33/33 
f 33/33/33 30/30/30 34/34/34 
f 34/34/34 30/30/30 35/35/35 
f 35/35/35 30/30/30 36/36/36 
f 30/30/30 25/25/25 36/36/36 
f 37/37/37 38/38/38 25/25/25 
f 38/38/38 36/36/36 25/25/25 
f 25/25/25 27/27/27 37/37/37 
f 21/21/21 23/23/23 25/25/25 
f 26/26/26 25/25/25 23/23/23 
f 39/39/39 21/21/21 40/40/40 
f 40/40/40 21/21/21 41/41/41 
f 41/41/41 21/21/21 42/42/42 
f 42/42/42 21/21/21 43/43/43 
f 43/43/43 21/21/21 44/44/44 
f 44/44/44 21/21/21 45/45/45 
f 46/46/46 45/45/45 21/21/21 
f 21/21/21 47/47/47 46/46/46 
f 21/21/21 7/7/7 47/47/47 
f 9/9/9 8/8/8 7/7/7 
f 48/48/48 49/49/49 50/50/50 
f 49/49/49 51/51/51 50/50/50 
f 7/7/7 21/21/21 9/9/9 
f 21/21/21 25/25/25 9/9/9 
f 25/25/25 30/30/30 9/9/9 
f 52/52/52 53/53/53 54/54/54 
f 53/53/53 55/55/55 54/54/54 
f 56/56/56 57/57/57 58/58/58 
f 57/57/57 59/59/59 58/58/58 
f 60/60/60 61/61/61 62/62/62 
f 63/63/63 62/62/62 61/61/61 
f 64/64/64 9/9/9 65/65/65 
f 66/66/66 9/9/9 64/64/64 
f 16/16/16 9/9/9 66/66/66 
f 9/9/9 67/67/67 65/65/65 
f 68/68/68 65/65/65 69/69/69 
f 64/64/64 65/65/65 68/68/68 
f 70/70/70 71/71/71 65/65/65 
f 71/71/71 72/72/72 65/65/65 
f 72/72/72 69/69/69 65/65/65 
f 70/70/70 65/65/65 73/73/73 
f 73/73/73 74/74/74 75/75/75 
f 65/65/65 74/74/74 73/73/73 
f 76/76/76 75/75/75 74/74/74 
f 77/77/77 76/76/76 74/74/74 
f 78/78/78 77/77/77 74/74/74 
f 79/79/79 78/78/78 74/74/74 
f 39/39/39 79/79/79 74/74/74 
f 80/80/80 81/81/81 82/82/82 
f 81/81/81 83/83/83 82/82/82 
f 84/84/84 83/83/83 85/85/85 
f 82/82/82 83/83/83 84/84/84 
f 86/86/86 85/85/85 83/83/83 
f 87/87/87 86/86/86 83/83/83 
f 88/88/88 87/87/87 83/83/83 
f 89/89/89 88/88/88 83/83/83 
f 29/29/29 89/89/89 83/83/83 
f 29/29/29 83/83/83 30/30/30 
f 81/81/81 67/67/67 83/83/83 
f 65/65/65 67/67/67 74/74/74 
f 90/90/90 21/21/21 74/74/74 
f 91/91/91 21/21/21 90/90/90 
f 92/92/92 21/21/21 91/91/91 
f 18/18/18 21/21/21 92/92/92 
f 17/17/17 21/21/21 18/18/18 
f 93/93/93 21/21/21 17/17/17 
f 22/22/22 21/21/21 93/93/93 
f 21/21/21 39/39/39 74/74/74 
f 94/94/94 74/74/74 95/95/95 
f 90/90/90 74/74/74 94/94/94 
f 95/95/95 74/74/74 96/96/96 
f 74/74/74 67/67/67 96/96/96 
f 67/67/67 97/97/97 96/96/96 
f 97/97/97 67/67/67 81/81/81 
f 98/98/98 99/99/99 100/100/100 
f 99/99/99 101/101/101 100/100/100 
f 102/102/102 100/100/100 103/103/103 
f 100/100/100 101/101/101 104/104/104 
f 101/101/101 105/105/105 104/104/104 
f 103/103/103 100/100/100 106/106/106 
f 100/100/100 104/104/104 107/107/107 
f 106/106/106 100/100/100 107/107/107 
f 108/108/108 109/109/109 98/98/98 
f 110/110/110 99/99/99 111/111/111 
f 99/99/99 98/98/98 111/111/111 
f 109/109/109 112/112/112 98/98/98 
f 111/111/111 98/98/98 113/113/113 
f 98/98/98 114/114/114 113/113/113 
f 98/98/98 112/112/112 114/114/114 
f 115/115/115 116/116/116 117/117/117 
f 118/118/118 119/119/119 120/120/120 
f 121/121/121 122/122/122 123/123/123 
f 122/122/122 124/124/124 123/123/123 
f 123/123/123 124/124/124 125/125/125 
f 126/126/126 127/127/127 128/128/128 
f 128/128/128 127/127/127 129/129/129 
f 127/127/127 130/130/130 129/129/129 
f 129/129/129 130/130/130 131/131/131 
f 130/130/130 132/132/132 131/131/131 
f 133/133/133 134/134/134 135/135/135 
f 134/134/134 136/136/136 135/135/135 
f 119/119/119 137/137/137 120/120/120 
f 138/138/138 139/139/139 140/140/140 
f 139/139/139 141/141/141 140/140/140 
f 139/139/139 138/138/138 142/142/142 
f 138/138/138 143/143/143 142/142/142 
f 142/142/142 143/143/143 144/144/144 
f 145/145/145 146/146/146 147/147/147 
f 148/148/148 149/149/149 145/145/145 
f 149/149/149 146/146/146 145/145/145 
f 150/150/150 151/151/151 152/152/152 
f 153/153/153 154/154/154 98/98/98 
f 154/154/154 155/155/155 98/98/98 
f 108/108/108 98/98/98 156/156/156 
f 98/98/98 157/157/157 156/156/156 
f 157/157/157 158/158/158 156/156/156 
f 159/159/159 160/160/160 153/153/153 
f 160/160/160 161/161/161 153/153/153 
f 153/153/153 161/161/161 162/162/162 
f 153/153/153 162/162/162 163/163/163 
f 164/164/164 154/154/154 165/165/165 
f 154/154/154 153/153/153 165/165/165 
f 153/153/153 163/163/163 166/166/166 
f 165/165/165 153/153/153 166/166/166 
f 157/157/157 98/98/98 167/167/167 
f 98/98/98 168/168/168 167/167/167 
f 155/155/155 168/168/168 98/98/98 
f 168/168/168 155/155/155 169/169/169 
f 169/169/169 155/155/155 170/170/170 
f 157/157/157 167/167/167 171/171/171 
f 158/158/158 157/157/157 171/171/171 
f 172/172/172 173/173/173 174/174/174 
f 175/175/175 176/176/176 177/177/177 
f 178/178/178 179/179/179 180/180/180 
f 181/181/181 182/182/182 183/183/183 
f 183/183/183 182/182/182 184/184/184 
f 182/182/182 185/185/185 184/184/184 
f 184/184/184 185/185/185 186/186/186 
f 185/185/185 187/187/187 186/186/186 
f 186/186/186 187/187/187 188/188/188 
f 187/187/187 189/189/189 188/188/188 
f 190/190/190 191/191/191 192/192/192 
f 193/193/193 194/194/194 195/195/195 
f 195/195/195 194/194/194 178/178/178 
f 194/194/194 179/179/179 178/178/178 
f 196/196/196 197/197/197 198/198/198 
f 199/199/199 200/200/200 201/201/201 
f 202/202/202 203/203/203 204/204/204 
f 205/205/205 206/206/206 207/207/207 
f 206/206/206 205/205/205 208/208/208 
f 205/205/205 209/209/209 208/208/208 
f 208/208/208 209/209/209 199/199/199 
f 209/209/209 200/200/200 199/199/199 
f 192/192/192 191/191/191 202/202/202 
f 191/191/191 203/203/203 202/202/202 
f 210/210/210 211/211/211 212/212/212 
f 212/212/212 213/213/213 214/214/214 
f 215/215/215 216/216/216 217/217/217 
f 216/216/216 218/218/218 217/217/217 
f 219/219/219 218/218/218 216/216/216 
f 217/217/217 220/220/220 221/221/221 
f 220/220/220 222/222/222 221/221/221 
f 217/217/217 218/218/218 220/220/220 
f 218/218/218 223/223/223 220/220/220 
f 223/223/223 224/224/224 220/220/220 
f 215/215/215 100/100/100 216/216/216 
f 100/100/100 225/225/225 216/216/216 
f 225/225/225 226/226/226 216/216/216 
f 227/227/227 100/100/100 102/102/102 
f 221/221/221 222/222/222 228/228/228 
f 225/225/225 100/100/100 229/229/229 
f 221/221/221 228/228/228 230/230/230 
f 229/229/229 100/100/100 227/227/227 
f 221/221/221 230/230/230 231/231/231 
f 221/221/221 231/231/231 232/232/232 
f 219/219/219 216/216/216 233/233/233 
f 216/216/216 226/226/226 233/233/233 
f 221/221/221 232/232/232 234/234/234 
f 108/108/108 221/221/221 234/234/234 
f 235/235/235 236/236/236 237/237/237 
f 236/236/236 238/238/238 237/237/237 
f 239/239/239 240/240/240 121/121/121 
f 241/241/241 242/242/242 243/243/243 
f 242/242/242 244/244/244 243/243/243 
f 243/243/243 244/244/244 245/245/245 
f 246/246/246 247/247/247 248/248/248 
f 248/248/248 247/247/247 249/249/249 
f 247/247/247 250/250/250 249/249/249 
f 249/249/249 250/250/250 239/239/239 
f 250/250/250 240/240/240 239/239/239 
f 251/251/251 252/252/252 253/253/253 
f 252/252/252 254/254/254 253/253/253 
f 252/252/252 251/251/251 255/255/255 
f 251/251/251 241/241/241 255/255/255 
f 256/256/256 257/257/257 258/258/258 
f 258/258/258 257/257/257 259/259/259 
f 257/257/257 260/260/260 259/259/259 
f 236/236/236 235/235/235 260/260/260 
f 235/235/235 259/259/259 260/260/260 
f 261/261/261 262/262/262 263/263/263 
f 264/264/264 265/265/265 266/266/266 
f 265/265/265 267/267/267 266/266/266 
f 268/268/268 269/269/269 264/264/264 
f 269/269/269 265/265/265 264/264/264 
f 266/266/266 267/267/267 148/148/148 
f 267/267/267 149/149/149 148/148/148 
f 270/270/270 269/269/269 268/268/268 
f 221/221/221 271/271/271 272/272/272 
f 221/221/221 273/273/273 271/271/271 
f 273/273/273 274/274/274 271/271/271 
f 274/274/274 275/275/275 271/271/271 
f 221/221/221 276/276/276 273/273/273 
f 277/277/277 278/278/278 108/108/108 
f 221/221/221 108/108/108 276/276/276 
f 277/277/277 108/108/108 279/279/279 
f 276/276/276 108/108/108 278/278/278 
f 280/280/280 272/272/272 159/159/159 
f 272/272/272 281/281/281 159/159/159 
f 281/281/281 160/160/160 159/159/159 
f 272/272/272 282/282/282 281/281/281 
f 279/279/279 108/108/108 283/283/283 
f 272/272/272 284/284/284 282/282/282 
f 283/283/283 108/108/108 285/285/285 
f 108/108/108 156/156/156 285/285/285 
f 272/272/272 286/286/286 284/284/284 
f 285/285/285 156/156/156 287/287/287 
f 272/272/272 288/288/288 286/286/286 
f 271/271/271 289/289/289 272/272/272 
f 288/288/288 272/272/272 289/289/289 
f 290/290/290 291/291/291 292/292/292 
f 291/291/291 293/293/293 292/292/292 
f 294/294/294 295/295/295 290/290/290 
f 295/295/295 291/291/291 290/290/290 
f 296/296/296 297/297/297 298/298/298 
f 297/297/297 193/193/193 298/298/298 
f 299/299/299 300/300/300 296/296/296 
f 300/300/300 297/297/297 296/296/296 
f 301/301/301 300/300/300 299/299/299 
f 302/302/302 303/303/303 304/304/304 
f 305/305/305 306/306/306 302/302/302 
f 306/306/306 303/303/303 302/302/302 
f 307/307/307 308/308/308 305/305/305 
f 308/308/308 306/306/306 305/305/305 
f 309/309/309 310/310/310 192/192/192 
f 310/310/310 190/190/190 192/192/192 
f 311/311/311 312/312/312 309/309/309 
f 312/312/312 310/310/310 309/309/309 
f 313/313/313 314/314/314 311/311/311 
f 314/314/314 312/312/312 311/311/311 
f 307/307/307 315/315/315 316/316/316 
f 298/298/298 193/193/193 195/195/195 
f 317/317/317 314/314/314 313/313/313 
f 318/318/318 295/295/295 294/294/294 
f 319/319/319 320/320/320 321/321/321 
f 322/322/322 323/323/323 293/293/293 
f 323/323/323 292/292/292 293/293/293 
f 324/324/324 325/325/325 326/326/326 
f 327/327/327 328/328/328 329/329/329 
f 330/330/330 331/331/331 328/328/328 
f 326/326/326 150/150/150 152/152/152 
f 332/332/332 333/333/333 334/334/334 
f 213/213/213 333/333/333 332/332/332 
f 335/335/335 332/332/332 336/336/336 
f 332/332/332 334/334/334 336/336/336 
f 211/211/211 335/335/335 336/336/336 
f 212/212/212 333/333/333 213/213/213 
f 172/172/172 337/337/337 173/173/173 
f 338/338/338 337/337/337 339/339/339 
f 175/175/175 340/340/340 176/176/176 
f 340/340/340 341/341/341 176/176/176 
f 339/339/339 337/337/337 172/172/172 
f 115/115/115 342/342/342 116/116/116 
f 343/343/343 340/340/340 175/175/175 
f 179/179/179 344/344/344 180/180/180 
f 344/344/344 345/345/345 180/180/180 
f 181/181/181 346/346/346 182/182/182 
f 346/346/346 347/347/347 182/182/182 
f 348/348/348 342/342/342 349/349/349 
f 349/349/349 342/342/342 115/115/115 
f 121/121/121 350/350/350 122/122/122 
f 122/122/122 350/350/350 124/124/124 
f 350/350/350 351/351/351 124/124/124 
f 124/124/124 351/351/351 125/125/125 
f 351/351/351 352/352/352 125/125/125 
f 126/126/126 353/353/353 127/127/127 
f 353/353/353 354/354/354 127/127/127 
f 127/127/127 354/354/354 130/130/130 
f 354/354/354 355/355/355 130/130/130 
f 130/130/130 355/355/355 132/132/132 
f 355/355/355 356/356/356 132/132/132 
f 134/134/134 357/357/357 136/136/136 
f 357/357/357 358/358/358 136/136/136 
f 182/182/182 347/347/347 185/185/185 
f 347/347/347 359/359/359 185/185/185 
f 185/185/185 359/359/359 187/187/187 
f 359/359/359 360/360/360 187/187/187 
f 187/187/187 360/360/360 189/189/189 
f 360/360/360 361/361/361 189/189/189 
f 119/119/119 362/362/362 137/137/137 
f 138/138/138 140/140/140 363/363/363 
f 140/140/140 364/364/364 363/363/363 
f 138/138/138 363/363/363 143/143/143 
f 363/363/363 365/365/365 143/143/143 
f 143/143/143 365/365/365 144/144/144 
f 365/365/365 366/366/366 144/144/144 
f 145/145/145 147/147/147 367/367/367 
f 147/147/147 368/368/368 367/367/367 
f 148/148/148 145/145/145 369/369/369 
f 145/145/145 367/367/367 369/369/369 
f 148/148/148 369/369/369 370/370/370 
f 192/192/192 371/371/371 372/372/372 
f 193/193/193 373/373/373 194/194/194 
f 194/194/194 373/373/373 179/179/179 
f 373/373/373 344/344/344 179/179/179 
f 197/197/197 374/374/374 198/198/198 
f 374/374/374 375/375/375 198/198/198 
f 200/200/200 376/376/376 201/201/201 
f 376/376/376 377/377/377 201/201/201 
f 202/202/202 204/204/204 378/378/378 
f 204/204/204 379/379/379 378/378/378 
f 380/380/380 205/205/205 381/381/381 
f 205/205/205 207/207/207 381/381/381 
f 205/205/205 380/380/380 209/209/209 
f 380/380/380 382/382/382 209/209/209 
f 382/382/382 383/383/383 209/209/209 
f 209/209/209 383/383/383 200/200/200 
f 383/383/383 376/376/376 200/200/200 
f 192/192/192 202/202/202 371/371/371 
f 202/202/202 378/378/378 371/371/371 
f 333/333/333 212/212/212 384/384/384 
f 212/212/212 211/211/211 384/384/384 
f 211/211/211 336/336/336 384/384/384 
f 385/385/385 386/386/386 293/293/293 
f 291/291/291 387/387/387 293/293/293 
f 387/387/387 388/388/388 293/293/293 
f 388/388/388 385/385/385 293/293/293 
f 295/295/295 389/389/389 291/291/291 
f 389/389/389 387/387/387 291/291/291 
f 297/297/297 390/390/390 193/193/193 
f 390/390/390 391/391/391 193/193/193 
f 300/300/300 392/392/392 297/297/297 
f 392/392/392 390/390/390 297/297/297 
f 301/301/301 393/393/393 300/300/300 
f 393/393/393 392/392/392 300/300/300 
f 303/303/303 394/394/394 304/304/304 
f 394/394/394 395/395/395 304/304/304 
f 306/306/306 396/396/396 303/303/303 
f 396/396/396 394/394/394 303/303/303 
f 308/308/308 397/397/397 306/306/306 
f 397/397/397 396/396/396 306/306/306 
f 397/397/397 308/308/308 398/398/398 
f 308/308/308 307/307/307 398/398/398 
f 399/399/399 400/400/400 261/261/261 
f 236/236/236 401/401/401 238/238/238 
f 401/401/401 402/402/402 238/238/238 
f 240/240/240 403/403/403 121/121/121 
f 403/403/403 350/350/350 121/121/121 
f 242/242/242 241/241/241 404/404/404 
f 242/242/242 404/404/404 244/244/244 
f 404/404/404 405/405/405 244/244/244 
f 244/244/244 405/405/405 245/245/245 
f 405/405/405 406/406/406 245/245/245 
f 246/246/246 407/407/407 247/247/247 
f 407/407/407 408/408/408 247/247/247 
f 247/247/247 408/408/408 250/250/250 
f 408/408/408 409/409/409 250/250/250 
f 250/250/250 409/409/409 240/240/240 
f 409/409/409 403/403/403 240/240/240 
f 410/410/410 251/251/251 411/411/411 
f 251/251/251 253/253/253 411/411/411 
f 251/251/251 410/410/410 241/241/241 
f 410/410/410 404/404/404 241/241/241 
f 256/256/256 412/412/412 257/257/257 
f 412/412/412 413/413/413 257/257/257 
f 257/257/257 413/413/413 260/260/260 
f 413/413/413 414/414/414 260/260/260 
f 414/414/414 415/415/415 260/260/260 
f 415/415/415 401/401/401 260/260/260 
f 416/416/416 400/400/400 399/399/399 
f 236/236/236 260/260/260 401/401/401 
f 261/261/261 400/400/400 262/262/262 
f 264/264/264 266/266/266 417/417/417 
f 266/266/266 370/370/370 417/417/417 
f 268/268/268 264/264/264 418/418/418 
f 264/264/264 417/417/417 418/418/418 
f 266/266/266 148/148/148 370/370/370 
f 270/270/270 268/268/268 419/419/419 
f 268/268/268 418/418/418 419/419/419 
f 309/309/309 192/192/192 420/420/420 
f 192/192/192 372/372/372 420/420/420 
f 311/311/311 309/309/309 421/421/421 
f 309/309/309 420/420/420 421/421/421 
f 313/313/313 311/311/311 422/422/422 
f 311/311/311 421/421/421 422/422/422 
f 398/398/398 307/307/307 423/423/423 
f 307/307/307 316/316/316 423/423/423 
f 391/391/391 373/373/373 193/193/193 
f 317/317/317 313/313/313 424/424/424 
f 313/313/313 422/422/422 424/424/424 
f 318/318/318 425/425/425 295/295/295 
f 425/425/425 389/389/389 295/295/295 
f 319/319/319 426/426/426 320/320/320 
f 426/426/426 427/427/427 320/320/320 
f 428/428/428 426/426/426 319/319/319 
f 322/322/322 293/293/293 386/386/386 
f 331/331/331 429/429/429 328/328/328 
f 429/429/429 329/329/329 328/328/328 
f 430/430/430 431/431/431 432/432/432 
f 431/431/431 433/433/433 432/432/432 
f 434/434/434 326/326/326 152/152/152 
f 324/324/324 326/326/326 434/434/434 

g Part1

v 21.2226 1.56316 -18.2223 
v 20.7838 1.56316 -18.2223 
v 21.2226 0.106372 -18.2223 
v 20.7838 0.106372 -18.2223 
v 20.7838 1.56316 -21.7777 
v 20.7838 1.56316 -18.2223 
v 21.2226 1.56316 -21.7777 
v 21.2226 1.56316 -18.2223 
v 20.7838 1.56316 -18.2223 
v 20.7838 1.56316 -21.7777 
v 20.7838 0.106372 -18.2223 
v 20.7838 0.106372 -21.7777 
v 20.7838 1.56316 -21.7777 
v 21.2226 1.56316 -21.7777 
v 20.7838 0.106372 -21.7777 
v 21.2226 0.106372 -21.7777 
v 21.2226 0.106372 -21.7777 
v 21.2226 0.106372 -18.2223 
v 20.7838 0.106372 -21.7777 
v 20.7838 0.106372 -18.2223 
v 21.2226 1.56316 -21.7777 
v 21.2226 1.56316 -18.2223 
v 21.2226 0.106372 -21.7777 
v 21.2226 0.106372 -18.2223 

vn 0 0 1 
vn 0 0 1 
vn 0 0 1 
vn 0 0 1 
vn 0 1 0 
vn 0 1 0 
vn 0 1 0 
vn 0 1 0 
vn -1 0 0 
vn -1 0 0 
vn -1 0 0 
vn -1 0 0 
vn 0 0 -1 
vn 0 0 -1 
vn 0 0 -1 
vn 0 0 -1 
vn 0 -1 0 
vn 0 -1 0 
vn 0 -1 0 
vn 0 -1 0 
vn 1 0 0 
vn 1 0 0 
vn 1 0 0 
vn 1 0 0 

vt 0.282191 0.778257 
vt 0.227348 0.778257 
vt 0.282191 0.596158 
vt 0.227348 0.596158 
vt 0.671766 0.778257 
vt 0.227348 0.778257 
vt 0.671766 0.723414 
vt 0.227348 0.723414 
vt 0.671766 0.778257 
vt 0.227348 0.778257 
vt 0.671766 0.596158 
vt 0.227348 0.596158 
vt 0.282191 0.778257 
vt 0.227348 0.778257 
vt 0.282191 0.596158 
vt 0.227348 0.596158 
vt 0.671766 0.778257 
vt 0.227348 0.778257 
vt 0.671766 0.723414 
vt 0.227348 0.723414 
vt 0.671766 0.778257 
vt 0.227348 0.778257 
vt 0.671766 0.596158 
vt 0.227348 0.596158 

usemtl Part1Mtl

f 435/435/435 436/436/436 437/437/437 
f 437/437/437 436/436/436 438/438/438 
f 439/439/439 440/440/440 441/441/441 
f 441/441/441 440/440/440 442/442/442 
f 443/443/443 444/444/444 445/445/445 
f 445/445/445 444/444/444 446/446/446 
f 447/447/447 448/448/448 449/449/449 
f 449/449/449 448/448/448 450/450/450 
f 451/451/451 452/452/452 453/453/453 
f 453/453/453 452/452/452 454/454/454 
f 455/455/455 456/456/456 457/457/457 
f 457/457/457 456/456/456 458/458/458 

g Part2

v 21.2426 1.56316 -21.7777 
v 21.2426 1.56316 -18.2223 
v 21.2426 0.106372 -21.7777 
v 21.2426 0.106372 -18.2223 

vn 1 0 0 
vn 1 0 0 
vn 1 0 0 
vn 1 0 0 

vt 1 1 
vt 0 1 
vt 1 0 
vt 0 0 

usemtl Part2Mtl

f 459/459/459 460/460/460 461/461/461 
f 461/461/461 460/460/460 462/462/462 

