# This file is brought to you by Roblox Corporation
# Generated by Roblox Studio

mtllib carpa.mtl

g Part1

v 35.1745 14.9742 -167.944 
v 32.2601 14.9742 -167.944 
v 35.1745 13.5315 -168.149 
v 32.2601 13.5315 -168.149 
v 32.2601 18.6186 -193.626 
v 32.2601 14.9742 -167.944 
v 35.1745 18.6186 -193.626 
v 35.1745 14.9742 -167.944 
v 32.2601 14.9742 -167.944 
v 32.2601 18.6186 -193.626 
v 32.2601 13.5315 -168.149 
v 32.2601 17.1759 -193.83 
v 32.2601 18.6186 -193.626 
v 35.1745 18.6186 -193.626 
v 32.2601 17.1759 -193.83 
v 35.1745 17.1759 -193.83 
v 35.1745 17.1759 -193.83 
v 35.1745 13.5315 -168.149 
v 32.2601 17.1759 -193.83 
v 32.2601 13.5315 -168.149 
v 35.1745 18.6186 -193.626 
v 35.1745 14.9742 -167.944 
v 35.1745 17.1759 -193.83 
v 35.1745 13.5315 -168.149 

vn 0 -0.141732 0.992126 
vn 0 -0.141732 0.992126 
vn 0 -0.141732 0.992126 
vn 0 -0.141732 0.992126 
vn 0 0.992126 0.141732 
vn 0 0.992126 0.141732 
vn 0 0.992126 0.141732 
vn 0 0.992126 0.141732 
vn -1 0 0 
vn -1 0 0 
vn -1 0 0 
vn -1 0 0 
vn 0 0.141732 -0.992126 
vn 0 0.141732 -0.992126 
vn 0 0.141732 -0.992126 
vn 0 0.141732 -0.992126 
vn 0 -0.992126 -0.141732 
vn 0 -0.992126 -0.141732 
vn 0 -0.992126 -0.141732 
vn 0 -0.992126 -0.141732 
vn 1 0 0 
vn 1 0 0 
vn 1 0 0 
vn 1 0 0 

vt 0.364306 -1.75 
vt 0 -1.75 
vt 0.364306 -1.93215 
vt 0 -1.93215 
vt 3.24233 -1.75 
vt 0 -1.75 
vt 3.24233 -2.11431 
vt 0 -2.11431 
vt 3.24233 -1.75 
vt 0 -1.75 
vt 3.24233 -1.93215 
vt 0 -1.93215 
vt 0.364306 -1.75 
vt 0 -1.75 
vt 0.364306 -1.93215 
vt 0 -1.93215 
vt 3.24233 -1.75 
vt 0 -1.75 
vt 3.24233 -2.11431 
vt 0 -2.11431 
vt 3.24233 -1.75 
vt 0 -1.75 
vt 3.24233 -1.93215 
vt 0 -1.93215 

usemtl Part1Mtl

f 1/1/1 2/2/2 3/3/3 
f 3/3/3 2/2/2 4/4/4 
f 5/5/5 6/6/6 7/7/7 
f 7/7/7 6/6/6 8/8/8 
f 9/9/9 10/10/10 11/11/11 
f 11/11/11 10/10/10 12/12/12 
f 13/13/13 14/14/14 15/15/15 
f 15/15/15 14/14/14 16/16/16 
f 17/17/17 18/18/18 19/19/19 
f 19/19/19 18/18/18 20/20/20 
f 21/21/21 22/22/22 23/23/23 
f 23/23/23 22/22/22 24/24/24 

g Part2

v 12.5921 14.9742 -167.944 
v 9.67765 14.9742 -167.944 
v 12.5921 13.5315 -168.149 
v 9.67765 13.5315 -168.149 
v 9.67765 18.6186 -193.626 
v 9.67765 14.9742 -167.944 
v 12.5921 18.6186 -193.626 
v 12.5921 14.9742 -167.944 
v 9.67765 14.9742 -167.944 
v 9.67765 18.6186 -193.626 
v 9.67765 13.5315 -168.149 
v 9.67765 17.1759 -193.83 
v 9.67765 18.6186 -193.626 
v 12.5921 18.6186 -193.626 
v 9.67765 17.1759 -193.83 
v 12.5921 17.1759 -193.83 
v 12.5921 17.1759 -193.83 
v 12.5921 13.5315 -168.149 
v 9.67765 17.1759 -193.83 
v 9.67765 13.5315 -168.149 
v 12.5921 18.6186 -193.626 
v 12.5921 14.9742 -167.944 
v 12.5921 17.1759 -193.83 
v 12.5921 13.5315 -168.149 

vn 0 -0.141732 0.992126 
vn 0 -0.141732 0.992126 
vn 0 -0.141732 0.992126 
vn 0 -0.141732 0.992126 
vn 0 0.992126 0.141732 
vn 0 0.992126 0.141732 
vn 0 0.992126 0.141732 
vn 0 0.992126 0.141732 
vn -1 0 0 
vn -1 0 0 
vn -1 0 0 
vn -1 0 0 
vn 0 0.141732 -0.992126 
vn 0 0.141732 -0.992126 
vn 0 0.141732 -0.992126 
vn 0 0.141732 -0.992126 
vn 0 -0.992126 -0.141732 
vn 0 -0.992126 -0.141732 
vn 0 -0.992126 -0.141732 
vn 0 -0.992126 -0.141732 
vn 1 0 0 
vn 1 0 0 
vn 1 0 0 
vn 1 0 0 

vt 1.61431 -1.25 
vt 1.25 -1.25 
vt 1.61431 -1.43215 
vt 1.25 -1.43215 
vt 4.49233 -1.25 
vt 1.25 -1.25 
vt 4.49233 -1.61431 
vt 1.25 -1.61431 
vt 4.49233 -1.25 
vt 1.25 -1.25 
vt 4.49233 -1.43215 
vt 1.25 -1.43215 
vt 1.61431 -1.25 
vt 1.25 -1.25 
vt 1.61431 -1.43215 
vt 1.25 -1.43215 
vt 4.49233 -1.25 
vt 1.25 -1.25 
vt 4.49233 -1.61431 
vt 1.25 -1.61431 
vt 4.49233 -1.25 
vt 1.25 -1.25 
vt 4.49233 -1.43215 
vt 1.25 -1.43215 

usemtl Part2Mtl

f 25/25/25 26/26/26 27/27/27 
f 27/27/27 26/26/26 28/28/28 
f 29/29/29 30/30/30 31/31/31 
f 31/31/31 30/30/30 32/32/32 
f 33/33/33 34/34/34 35/35/35 
f 35/35/35 34/34/34 36/36/36 
f 37/37/37 38/38/38 39/39/39 
f 39/39/39 38/38/38 40/40/40 
f 41/41/41 42/42/42 43/43/43 
f 43/43/43 42/42/42 44/44/44 
f 45/45/45 46/46/46 47/47/47 
f 47/47/47 46/46/46 48/48/48 

g Part3

v 26.8018 14.9742 -167.944 
v 23.8873 14.9742 -167.944 
v 26.8018 13.5315 -168.149 
v 23.8873 13.5315 -168.149 
v 23.8873 18.6186 -193.626 
v 23.8873 14.9742 -167.944 
v 26.8018 18.6186 -193.626 
v 26.8018 14.9742 -167.944 
v 23.8873 14.9742 -167.944 
v 23.8873 18.6186 -193.626 
v 23.8873 13.5315 -168.149 
v 23.8873 17.1759 -193.83 
v 23.8873 18.6186 -193.626 
v 26.8018 18.6186 -193.626 
v 23.8873 17.1759 -193.83 
v 26.8018 17.1759 -193.83 
v 26.8018 17.1759 -193.83 
v 26.8018 13.5315 -168.149 
v 23.8873 17.1759 -193.83 
v 23.8873 13.5315 -168.149 
v 26.8018 18.6186 -193.626 
v 26.8018 14.9742 -167.944 
v 26.8018 17.1759 -193.83 
v 26.8018 13.5315 -168.149 

vn 0 -0.141732 0.992126 
vn 0 -0.141732 0.992126 
vn 0 -0.141732 0.992126 
vn 0 -0.141732 0.992126 
vn 0 0.992126 0.141732 
vn 0 0.992126 0.141732 
vn 0 0.992126 0.141732 
vn 0 0.992126 0.141732 
vn -1 0 0 
vn -1 0 0 
vn -1 0 0 
vn -1 0 0 
vn 0 0.141732 -0.992126 
vn 0 0.141732 -0.992126 
vn 0 0.141732 -0.992126 
vn 0 0.141732 -0.992126 
vn 0 -0.992126 -0.141732 
vn 0 -0.992126 -0.141732 
vn 0 -0.992126 -0.141732 
vn 0 -0.992126 -0.141732 
vn 1 0 0 
vn 1 0 0 
vn 1 0 0 
vn 1 0 0 

vt 7.11431 -4 
vt 6.75 -4 
vt 7.11431 -4.18215 
vt 6.75 -4.18215 
vt 9.99233 -4 
vt 6.75 -4 
vt 9.99233 -4.36431 
vt 6.75 -4.36431 
vt 9.99233 -4 
vt 6.75 -4 
vt 9.99233 -4.18215 
vt 6.75 -4.18215 
vt 7.11431 -4 
vt 6.75 -4 
vt 7.11431 -4.18215 
vt 6.75 -4.18215 
vt 9.99233 -4 
vt 6.75 -4 
vt 9.99233 -4.36431 
vt 6.75 -4.36431 
vt 9.99233 -4 
vt 6.75 -4 
vt 9.99233 -4.18215 
vt 6.75 -4.18215 

usemtl Part1Mtl

f 49/49/49 50/50/50 51/51/51 
f 51/51/51 50/50/50 52/52/52 
f 53/53/53 54/54/54 55/55/55 
f 55/55/55 54/54/54 56/56/56 
f 57/57/57 58/58/58 59/59/59 
f 59/59/59 58/58/58 60/60/60 
f 61/61/61 62/62/62 63/63/63 
f 63/63/63 62/62/62 64/64/64 
f 65/65/65 66/66/66 67/67/67 
f 67/67/67 66/66/66 68/68/68 
f 69/69/69 70/70/70 71/71/71 
f 71/71/71 70/70/70 72/72/72 

g Part4

v 11.6003 13.5268 -168.034 
v 10.4345 13.5268 -168.034 
v 11.6003 0.26606 -168.034 
v 10.4345 0.26606 -168.034 
v 10.4345 13.5268 -169.025 
v 10.4345 13.5268 -168.034 
v 11.6003 13.5268 -169.025 
v 11.6003 13.5268 -168.034 
v 10.4345 13.5268 -168.034 
v 10.4345 13.5268 -169.025 
v 10.4345 0.26606 -168.034 
v 10.4345 0.26606 -169.025 
v 10.4345 13.5268 -169.025 
v 11.6003 13.5268 -169.025 
v 10.4345 0.26606 -169.025 
v 11.6003 0.26606 -169.025 
v 11.6003 0.26606 -169.025 
v 11.6003 0.26606 -168.034 
v 10.4345 0.26606 -169.025 
v 10.4345 0.26606 -168.034 
v 11.6003 13.5268 -169.025 
v 11.6003 13.5268 -168.034 
v 11.6003 0.26606 -169.025 
v 11.6003 0.26606 -168.034 

vn 0 0 1 
vn 0 0 1 
vn 0 0 1 
vn 0 0 1 
vn 0 1 0 
vn 0 1 0 
vn 0 1 0 
vn 0 1 0 
vn -1 0 0 
vn -1 0 0 
vn -1 0 0 
vn -1 0 0 
vn 0 0 -1 
vn 0 0 -1 
vn 0 0 -1 
vn 0 0 -1 
vn 0 -1 0 
vn 0 -1 0 
vn 0 -1 0 
vn 0 -1 0 
vn 1 0 0 
vn 1 0 0 
vn 1 0 0 
vn 1 0 0 

vt 3.27072 -5.125 
vt 3.125 -5.125 
vt 3.27072 -6.78259 
vt 3.125 -6.78259 
vt 3.24886 -5.125 
vt 3.125 -5.125 
vt 3.24886 -5.27072 
vt 3.125 -5.27072 
vt 3.24886 -5.125 
vt 3.125 -5.125 
vt 3.24886 -6.78259 
vt 3.125 -6.78259 
vt 3.27072 -5.125 
vt 3.125 -5.125 
vt 3.27072 -6.78259 
vt 3.125 -6.78259 
vt 3.24886 -5.125 
vt 3.125 -5.125 
vt 3.24886 -5.27072 
vt 3.125 -5.27072 
vt 3.24886 -5.125 
vt 3.125 -5.125 
vt 3.24886 -6.78259 
vt 3.125 -6.78259 

usemtl Part4Mtl

f 73/73/73 74/74/74 75/75/75 
f 75/75/75 74/74/74 76/76/76 
f 77/77/77 78/78/78 79/79/79 
f 79/79/79 78/78/78 80/80/80 
f 81/81/81 82/82/82 83/83/83 
f 83/83/83 82/82/82 84/84/84 
f 85/85/85 86/86/86 87/87/87 
f 87/87/87 86/86/86 88/88/88 
f 89/89/89 90/90/90 91/91/91 
f 91/91/91 90/90/90 92/92/92 
f 93/93/93 94/94/94 95/95/95 
f 95/95/95 94/94/94 96/96/96 

g Part5

v 34.4798 0.615791 -188.812 
v 10.3919 0.615791 -188.812 
v 34.4798 -3.46444 -188.812 
v 10.3919 -3.46444 -188.812 
v 10.3919 0.615791 -193.927 
v 10.3919 0.615791 -188.812 
v 34.4798 0.615791 -193.927 
v 34.4798 0.615791 -188.812 
v 10.3919 0.615791 -188.812 
v 10.3919 0.615791 -193.927 
v 10.3919 -3.46444 -188.812 
v 10.3919 -3.46444 -193.927 
v 10.3919 0.615791 -193.927 
v 34.4798 0.615791 -193.927 
v 10.3919 -3.46444 -193.927 
v 34.4798 -3.46444 -193.927 
v 34.4798 -3.46444 -193.927 
v 34.4798 -3.46444 -188.812 
v 10.3919 -3.46444 -193.927 
v 10.3919 -3.46444 -188.812 
v 34.4798 0.615791 -193.927 
v 34.4798 0.615791 -188.812 
v 34.4798 -3.46444 -193.927 
v 34.4798 -3.46444 -188.812 

vn 0 0 1 
vn 0 0 1 
vn 0 0 1 
vn 0 0 1 
vn 0 1 0 
vn 0 1 0 
vn 0 1 0 
vn 0 1 0 
vn -1 0 0 
vn -1 0 0 
vn -1 0 0 
vn -1 0 0 
vn 0 0 -1 
vn 0 0 -1 
vn 0 0 -1 
vn 0 0 -1 
vn 0 -1 0 
vn 0 -1 0 
vn 0 -1 0 
vn 0 -1 0 
vn 1 0 0 
vn 1 0 0 
vn 1 0 0 
vn 1 0 0 

vt 8.51099 -4.75 
vt 5.5 -4.75 
vt 8.51099 -5.26003 
vt 5.5 -5.26003 
vt 6.13936 -4.75 
vt 5.5 -4.75 
vt 6.13936 -7.76099 
vt 5.5 -7.76099 
vt 6.13936 -4.75 
vt 5.5 -4.75 
vt 6.13936 -5.26003 
vt 5.5 -5.26003 
vt 8.51099 -4.75 
vt 5.5 -4.75 
vt 8.51099 -5.26003 
vt 5.5 -5.26003 
vt 6.13936 -4.75 
vt 5.5 -4.75 
vt 6.13936 -7.76099 
vt 5.5 -7.76099 
vt 6.13936 -4.75 
vt 5.5 -4.75 
vt 6.13936 -5.26003 
vt 5.5 -5.26003 

usemtl Part5Mtl

f 97/97/97 98/98/98 99/99/99 
f 99/99/99 98/98/98 100/100/100 
f 101/101/101 102/102/102 103/103/103 
f 103/103/103 102/102/102 104/104/104 
f 105/105/105 106/106/106 107/107/107 
f 107/107/107 106/106/106 108/108/108 
f 109/109/109 110/110/110 111/111/111 
f 111/111/111 110/110/110 112/112/112 
f 113/113/113 114/114/114 115/115/115 
f 115/115/115 114/114/114 116/116/116 
f 117/117/117 118/118/118 119/119/119 
f 119/119/119 118/118/118 120/120/120 

g Part6

v 31.4748 0.615796 -171.3 
v 31.4748 0.615796 -188.845 
v 31.4748 -3.46443 -171.3 
v 31.4748 -3.46443 -188.845 
v 34.2873 0.615796 -188.845 
v 31.4748 0.615796 -188.845 
v 34.2873 0.615796 -171.3 
v 31.4748 0.615796 -171.3 
v 31.4748 0.615796 -188.845 
v 34.2873 0.615796 -188.845 
v 31.4748 -3.46443 -188.845 
v 34.2873 -3.46443 -188.845 
v 34.2873 0.615796 -188.845 
v 34.2873 0.615796 -171.3 
v 34.2873 -3.46443 -188.845 
v 34.2873 -3.46443 -171.3 
v 34.2873 -3.46443 -171.3 
v 31.4748 -3.46443 -171.3 
v 34.2873 -3.46443 -188.845 
v 31.4748 -3.46443 -188.845 
v 34.2873 0.615796 -171.3 
v 31.4748 0.615796 -171.3 
v 34.2873 -3.46443 -171.3 
v 31.4748 -3.46443 -171.3 

vn -1 0 0 
vn -1 0 0 
vn -1 0 0 
vn -1 0 0 
vn 0 1 0 
vn 0 1 0 
vn 0 1 0 
vn 0 1 0 
vn 0 0 -1 
vn 0 0 -1 
vn 0 0 -1 
vn 0 0 -1 
vn 1 0 0 
vn 1 0 0 
vn 1 0 0 
vn 1 0 0 
vn 0 -1 0 
vn 0 -1 0 
vn 0 -1 0 
vn 0 -1 0 
vn 0 0 1 
vn 0 0 1 
vn 0 0 1 
vn 0 0 1 

vt 9.81812 -0.875 
vt 7.625 -0.875 
vt 9.81812 -1.38503 
vt 7.625 -1.38503 
vt 7.97656 -0.875 
vt 7.625 -0.875 
vt 7.97656 -3.06812 
vt 7.625 -3.06812 
vt 7.97656 -0.875 
vt 7.625 -0.875 
vt 7.97656 -1.38503 
vt 7.625 -1.38503 
vt 9.81812 -0.875 
vt 7.625 -0.875 
vt 9.81812 -1.38503 
vt 7.625 -1.38503 
vt 7.97656 -0.875 
vt 7.625 -0.875 
vt 7.97656 -3.06812 
vt 7.625 -3.06812 
vt 7.97656 -0.875 
vt 7.625 -0.875 
vt 7.97656 -1.38503 
vt 7.625 -1.38503 

usemtl Part6Mtl

f 121/121/121 122/122/122 123/123/123 
f 123/123/123 122/122/122 124/124/124 
f 125/125/125 126/126/126 127/127/127 
f 127/127/127 126/126/126 128/128/128 
f 129/129/129 130/130/130 131/131/131 
f 131/131/131 130/130/130 132/132/132 
f 133/133/133 134/134/134 135/135/135 
f 135/135/135 134/134/134 136/136/136 
f 137/137/137 138/138/138 139/139/139 
f 139/139/139 138/138/138 140/140/140 
f 141/141/141 142/142/142 143/143/143 
f 143/143/143 142/142/142 144/144/144 

g Part7

v 13.1487 -3.39157 -171.3 
v 13.1487 -3.39157 -188.845 
v 13.1487 -3.46444 -171.3 
v 13.1487 -3.46444 -188.845 
v 31.4368 -3.39157 -188.845 
v 13.1487 -3.39157 -188.845 
v 31.4368 -3.39157 -171.3 
v 13.1487 -3.39157 -171.3 
v 13.1487 -3.39157 -188.845 
v 31.4368 -3.39157 -188.845 
v 13.1487 -3.46444 -188.845 
v 31.4368 -3.46444 -188.845 
v 31.4368 -3.39157 -188.845 
v 31.4368 -3.39157 -171.3 
v 31.4368 -3.46444 -188.845 
v 31.4368 -3.46444 -171.3 
v 31.4368 -3.46444 -171.3 
v 13.1487 -3.46444 -171.3 
v 31.4368 -3.46444 -188.845 
v 13.1487 -3.46444 -188.845 
v 31.4368 -3.39157 -171.3 
v 13.1487 -3.39157 -171.3 
v 31.4368 -3.46444 -171.3 
v 13.1487 -3.46444 -171.3 

vn -1 0 0 
vn -1 0 0 
vn -1 0 0 
vn -1 0 0 
vn 0 1 0 
vn 0 1 0 
vn 0 1 0 
vn 0 1 0 
vn 0 0 -1 
vn 0 0 -1 
vn 0 0 -1 
vn 0 0 -1 
vn 1 0 0 
vn 1 0 0 
vn 1 0 0 
vn 1 0 0 
vn 0 -1 0 
vn 0 -1 0 
vn 0 -1 0 
vn 0 -1 0 
vn 0 0 1 
vn 0 0 1 
vn 0 0 1 
vn 0 0 1 

vt 6.81812 -0.375 
vt 4.625 -0.375 
vt 6.81812 -0.384108 
vt 4.625 -0.384108 
vt 6.91102 -0.375 
vt 4.625 -0.375 
vt 6.91102 -2.56812 
vt 4.625 -2.56812 
vt 6.91102 -0.375 
vt 4.625 -0.375 
vt 6.91102 -0.384108 
vt 4.625 -0.384108 
vt 6.81812 -0.375 
vt 4.625 -0.375 
vt 6.81812 -0.384108 
vt 4.625 -0.384108 
vt 6.91102 -0.375 
vt 4.625 -0.375 
vt 6.91102 -2.56812 
vt 4.625 -2.56812 
vt 6.91102 -0.375 
vt 4.625 -0.375 
vt 6.91102 -0.384108 
vt 4.625 -0.384108 

usemtl Part7Mtl

f 145/145/145 146/146/146 147/147/147 
f 147/147/147 146/146/146 148/148/148 
f 149/149/149 150/150/150 151/151/151 
f 151/151/151 150/150/150 152/152/152 
f 153/153/153 154/154/154 155/155/155 
f 155/155/155 154/154/154 156/156/156 
f 157/157/157 158/158/158 159/159/159 
f 159/159/159 158/158/158 160/160/160 
f 161/161/161 162/162/162 163/163/163 
f 163/163/163 162/162/162 164/164/164 
f 165/165/165 166/166/166 167/167/167 
f 167/167/167 166/166/166 168/168/168 

g Part8

v 18.4242 14.9742 -167.944 
v 15.5097 14.9742 -167.944 
v 18.4242 13.5315 -168.149 
v 15.5097 13.5315 -168.149 
v 15.5097 18.6186 -193.626 
v 15.5097 14.9742 -167.944 
v 18.4242 18.6186 -193.626 
v 18.4242 14.9742 -167.944 
v 15.5097 14.9742 -167.944 
v 15.5097 18.6186 -193.626 
v 15.5097 13.5315 -168.149 
v 15.5097 17.1759 -193.83 
v 15.5097 18.6186 -193.626 
v 18.4242 18.6186 -193.626 
v 15.5097 17.1759 -193.83 
v 18.4242 17.1759 -193.83 
v 18.4242 17.1759 -193.83 
v 18.4242 13.5315 -168.149 
v 15.5097 17.1759 -193.83 
v 15.5097 13.5315 -168.149 
v 18.4242 18.6186 -193.626 
v 18.4242 14.9742 -167.944 
v 18.4242 17.1759 -193.83 
v 18.4242 13.5315 -168.149 

vn 0 -0.141732 0.992126 
vn 0 -0.141732 0.992126 
vn 0 -0.141732 0.992126 
vn 0 -0.141732 0.992126 
vn 0 0.992126 0.141732 
vn 0 0.992126 0.141732 
vn 0 0.992126 0.141732 
vn 0 0.992126 0.141732 
vn -1 0 0 
vn -1 0 0 
vn -1 0 0 
vn -1 0 0 
vn 0 0.141732 -0.992126 
vn 0 0.141732 -0.992126 
vn 0 0.141732 -0.992126 
vn 0 0.141732 -0.992126 
vn 0 -0.992126 -0.141732 
vn 0 -0.992126 -0.141732 
vn 0 -0.992126 -0.141732 
vn 0 -0.992126 -0.141732 
vn 1 0 0 
vn 1 0 0 
vn 1 0 0 
vn 1 0 0 

vt 6.61431 -0.25 
vt 6.25 -0.25 
vt 6.61431 -0.432153 
vt 6.25 -0.432153 
vt 9.49233 -0.25 
vt 6.25 -0.25 
vt 9.49233 -0.614306 
vt 6.25 -0.614306 
vt 9.49233 -0.25 
vt 6.25 -0.25 
vt 9.49233 -0.432153 
vt 6.25 -0.432153 
vt 6.61431 -0.25 
vt 6.25 -0.25 
vt 6.61431 -0.432153 
vt 6.25 -0.432153 
vt 9.49233 -0.25 
vt 6.25 -0.25 
vt 9.49233 -0.614306 
vt 6.25 -0.614306 
vt 9.49233 -0.25 
vt 6.25 -0.25 
vt 9.49233 -0.432153 
vt 6.25 -0.432153 

usemtl Part1Mtl

f 169/169/169 170/170/170 171/171/171 
f 171/171/171 170/170/170 172/172/172 
f 173/173/173 174/174/174 175/175/175 
f 175/175/175 174/174/174 176/176/176 
f 177/177/177 178/178/178 179/179/179 
f 179/179/179 178/178/178 180/180/180 
f 181/181/181 182/182/182 183/183/183 
f 183/183/183 182/182/182 184/184/184 
f 185/185/185 186/186/186 187/187/187 
f 187/187/187 186/186/186 188/188/188 
f 189/189/189 190/190/190 191/191/191 
f 191/191/191 190/190/190 192/192/192 

g Part9

v 32.3239 14.9742 -167.944 
v 29.4094 14.9742 -167.944 
v 32.3239 13.5315 -168.149 
v 29.4094 13.5315 -168.149 
v 29.4094 18.6186 -193.626 
v 29.4094 14.9742 -167.944 
v 32.3239 18.6186 -193.626 
v 32.3239 14.9742 -167.944 
v 29.4094 14.9742 -167.944 
v 29.4094 18.6186 -193.626 
v 29.4094 13.5315 -168.149 
v 29.4094 17.1759 -193.83 
v 29.4094 18.6186 -193.626 
v 32.3239 18.6186 -193.626 
v 29.4094 17.1759 -193.83 
v 32.3239 17.1759 -193.83 
v 32.3239 17.1759 -193.83 
v 32.3239 13.5315 -168.149 
v 29.4094 17.1759 -193.83 
v 29.4094 13.5315 -168.149 
v 32.3239 18.6186 -193.626 
v 32.3239 14.9742 -167.944 
v 32.3239 17.1759 -193.83 
v 32.3239 13.5315 -168.149 

vn 0 -0.141732 0.992126 
vn 0 -0.141732 0.992126 
vn 0 -0.141732 0.992126 
vn 0 -0.141732 0.992126 
vn 0 0.992126 0.141732 
vn 0 0.992126 0.141732 
vn 0 0.992126 0.141732 
vn 0 0.992126 0.141732 
vn -1 0 0 
vn -1 0 0 
vn -1 0 0 
vn -1 0 0 
vn 0 0.141732 -0.992126 
vn 0 0.141732 -0.992126 
vn 0 0.141732 -0.992126 
vn 0 0.141732 -0.992126 
vn 0 -0.992126 -0.141732 
vn 0 -0.992126 -0.141732 
vn 0 -0.992126 -0.141732 
vn 0 -0.992126 -0.141732 
vn 1 0 0 
vn 1 0 0 
vn 1 0 0 
vn 1 0 0 

vt 6.61431 -2.5 
vt 6.25 -2.5 
vt 6.61431 -2.68215 
vt 6.25 -2.68215 
vt 9.49233 -2.5 
vt 6.25 -2.5 
vt 9.49233 -2.86431 
vt 6.25 -2.86431 
vt 9.49233 -2.5 
vt 6.25 -2.5 
vt 9.49233 -2.68215 
vt 6.25 -2.68215 
vt 6.61431 -2.5 
vt 6.25 -2.5 
vt 6.61431 -2.68215 
vt 6.25 -2.68215 
vt 9.49233 -2.5 
vt 6.25 -2.5 
vt 9.49233 -2.86431 
vt 6.25 -2.86431 
vt 9.49233 -2.5 
vt 6.25 -2.5 
vt 9.49233 -2.68215 
vt 6.25 -2.68215 

usemtl Part9Mtl

f 193/193/193 194/194/194 195/195/195 
f 195/195/195 194/194/194 196/196/196 
f 197/197/197 198/198/198 199/199/199 
f 199/199/199 198/198/198 200/200/200 
f 201/201/201 202/202/202 203/203/203 
f 203/203/203 202/202/202 204/204/204 
f 205/205/205 206/206/206 207/207/207 
f 207/207/207 206/206/206 208/208/208 
f 209/209/209 210/210/210 211/211/211 
f 211/211/211 210/210/210 212/212/212 
f 213/213/213 214/214/214 215/215/215 
f 215/215/215 214/214/214 216/216/216 

g Part10

v 34.4798 0.615798 -166.329 
v 10.3919 0.615798 -166.329 
v 34.4798 -3.46443 -166.329 
v 10.3919 -3.46443 -166.329 
v 10.3919 0.615798 -171.444 
v 10.3919 0.615798 -166.329 
v 34.4798 0.615798 -171.444 
v 34.4798 0.615798 -166.329 
v 10.3919 0.615798 -166.329 
v 10.3919 0.615798 -171.444 
v 10.3919 -3.46443 -166.329 
v 10.3919 -3.46443 -171.444 
v 10.3919 0.615798 -171.444 
v 34.4798 0.615798 -171.444 
v 10.3919 -3.46443 -171.444 
v 34.4798 -3.46443 -171.444 
v 34.4798 -3.46443 -171.444 
v 34.4798 -3.46443 -166.329 
v 10.3919 -3.46443 -171.444 
v 10.3919 -3.46443 -166.329 
v 34.4798 0.615798 -171.444 
v 34.4798 0.615798 -166.329 
v 34.4798 -3.46443 -171.444 
v 34.4798 -3.46443 -166.329 

vn 0 0 1 
vn 0 0 1 
vn 0 0 1 
vn 0 0 1 
vn 0 1 0 
vn 0 1 0 
vn 0 1 0 
vn 0 1 0 
vn -1 0 0 
vn -1 0 0 
vn -1 0 0 
vn -1 0 0 
vn 0 0 -1 
vn 0 0 -1 
vn 0 0 -1 
vn 0 0 -1 
vn 0 -1 0 
vn 0 -1 0 
vn 0 -1 0 
vn 0 -1 0 
vn 1 0 0 
vn 1 0 0 
vn 1 0 0 
vn 1 0 0 

vt 8.13599 -3.625 
vt 5.125 -3.625 
vt 8.13599 -4.13503 
vt 5.125 -4.13503 
vt 5.76436 -3.625 
vt 5.125 -3.625 
vt 5.76436 -6.63599 
vt 5.125 -6.63599 
vt 5.76436 -3.625 
vt 5.125 -3.625 
vt 5.76436 -4.13503 
vt 5.125 -4.13503 
vt 8.13599 -3.625 
vt 5.125 -3.625 
vt 8.13599 -4.13503 
vt 5.125 -4.13503 
vt 5.76436 -3.625 
vt 5.125 -3.625 
vt 5.76436 -6.63599 
vt 5.125 -6.63599 
vt 5.76436 -3.625 
vt 5.125 -3.625 
vt 5.76436 -4.13503 
vt 5.125 -4.13503 

usemtl Part10Mtl

f 217/217/217 218/218/218 219/219/219 
f 219/219/219 218/218/218 220/220/220 
f 221/221/221 222/222/222 223/223/223 
f 223/223/223 222/222/222 224/224/224 
f 225/225/225 226/226/226 227/227/227 
f 227/227/227 226/226/226 228/228/228 
f 229/229/229 230/230/230 231/231/231 
f 231/231/231 230/230/230 232/232/232 
f 233/233/233 234/234/234 235/235/235 
f 235/235/235 234/234/234 236/236/236 
f 237/237/237 238/238/238 239/239/239 
f 239/239/239 238/238/238 240/240/240 

g Part11

v 34.3693 16.8493 -192.912 
v 33.2036 16.8493 -192.912 
v 34.3693 0.266061 -192.912 
v 33.2036 0.266061 -192.912 
v 33.2036 16.8493 -193.903 
v 33.2036 16.8493 -192.912 
v 34.3693 16.8493 -193.903 
v 34.3693 16.8493 -192.912 
v 33.2036 16.8493 -192.912 
v 33.2036 16.8493 -193.903 
v 33.2036 0.266061 -192.912 
v 33.2036 0.266061 -193.903 
v 33.2036 16.8493 -193.903 
v 34.3693 16.8493 -193.903 
v 33.2036 0.266061 -193.903 
v 34.3693 0.266061 -193.903 
v 34.3693 0.266061 -193.903 
v 34.3693 0.266061 -192.912 
v 33.2036 0.266061 -193.903 
v 33.2036 0.266061 -192.912 
v 34.3693 16.8493 -193.903 
v 34.3693 16.8493 -192.912 
v 34.3693 0.266061 -193.903 
v 34.3693 0.266061 -192.912 

vn 0 0 1 
vn 0 0 1 
vn 0 0 1 
vn 0 0 1 
vn 0 1 0 
vn 0 1 0 
vn 0 1 0 
vn 0 1 0 
vn -1 0 0 
vn -1 0 0 
vn -1 0 0 
vn -1 0 0 
vn 0 0 -1 
vn 0 0 -1 
vn 0 0 -1 
vn 0 0 -1 
vn 0 -1 0 
vn 0 -1 0 
vn 0 -1 0 
vn 0 -1 0 
vn 1 0 0 
vn 1 0 0 
vn 1 0 0 
vn 1 0 0 

vt 1.27072 -5.625 
vt 1.125 -5.625 
vt 1.27072 -7.6979 
vt 1.125 -7.6979 
vt 1.24886 -5.625 
vt 1.125 -5.625 
vt 1.24886 -5.77072 
vt 1.125 -5.77072 
vt 1.24886 -5.625 
vt 1.125 -5.625 
vt 1.24886 -7.6979 
vt 1.125 -7.6979 
vt 1.27072 -5.625 
vt 1.125 -5.625 
vt 1.27072 -7.6979 
vt 1.125 -7.6979 
vt 1.24886 -5.625 
vt 1.125 -5.625 
vt 1.24886 -5.77072 
vt 1.125 -5.77072 
vt 1.24886 -5.625 
vt 1.125 -5.625 
vt 1.24886 -7.6979 
vt 1.125 -7.6979 

usemtl Part11Mtl

f 241/241/241 242/242/242 243/243/243 
f 243/243/243 242/242/242 244/244/244 
f 245/245/245 246/246/246 247/247/247 
f 247/247/247 246/246/246 248/248/248 
f 249/249/249 250/250/250 251/251/251 
f 251/251/251 250/250/250 252/252/252 
f 253/253/253 254/254/254 255/255/255 
f 255/255/255 254/254/254 256/256/256 
f 257/257/257 258/258/258 259/259/259 
f 259/259/259 258/258/258 260/260/260 
f 261/261/261 262/262/262 263/263/263 
f 263/263/263 262/262/262 264/264/264 

g Part12

v 11.6982 16.8493 -192.912 
v 10.5324 16.8493 -192.912 
v 11.6982 0.266058 -192.912 
v 10.5324 0.266058 -192.912 
v 10.5324 16.8493 -193.903 
v 10.5324 16.8493 -192.912 
v 11.6982 16.8493 -193.903 
v 11.6982 16.8493 -192.912 
v 10.5324 16.8493 -192.912 
v 10.5324 16.8493 -193.903 
v 10.5324 0.266058 -192.912 
v 10.5324 0.266058 -193.903 
v 10.5324 16.8493 -193.903 
v 11.6982 16.8493 -193.903 
v 10.5324 0.266058 -193.903 
v 11.6982 0.266058 -193.903 
v 11.6982 0.266058 -193.903 
v 11.6982 0.266058 -192.912 
v 10.5324 0.266058 -193.903 
v 10.5324 0.266058 -192.912 
v 11.6982 16.8493 -193.903 
v 11.6982 16.8493 -192.912 
v 11.6982 0.266058 -193.903 
v 11.6982 0.266058 -192.912 

vn 0 0 1 
vn 0 0 1 
vn 0 0 1 
vn 0 0 1 
vn 0 1 0 
vn 0 1 0 
vn 0 1 0 
vn 0 1 0 
vn -1 0 0 
vn -1 0 0 
vn -1 0 0 
vn -1 0 0 
vn 0 0 -1 
vn 0 0 -1 
vn 0 0 -1 
vn 0 0 -1 
vn 0 -1 0 
vn 0 -1 0 
vn 0 -1 0 
vn 0 -1 0 
vn 1 0 0 
vn 1 0 0 
vn 1 0 0 
vn 1 0 0 

vt 3.14572 -0.375 
vt 3 -0.375 
vt 3.14572 -2.4479 
vt 3 -2.4479 
vt 3.12386 -0.375 
vt 3 -0.375 
vt 3.12386 -0.520721 
vt 3 -0.520721 
vt 3.12386 -0.375 
vt 3 -0.375 
vt 3.12386 -2.4479 
vt 3 -2.4479 
vt 3.14572 -0.375 
vt 3 -0.375 
vt 3.14572 -2.4479 
vt 3 -2.4479 
vt 3.12386 -0.375 
vt 3 -0.375 
vt 3.12386 -0.520721 
vt 3 -0.520721 
vt 3.12386 -0.375 
vt 3 -0.375 
vt 3.12386 -2.4479 
vt 3 -2.4479 

usemtl Part12Mtl

f 265/265/265 266/266/266 267/267/267 
f 267/267/267 266/266/266 268/268/268 
f 269/269/269 270/270/270 271/271/271 
f 271/271/271 270/270/270 272/272/272 
f 273/273/273 274/274/274 275/275/275 
f 275/275/275 274/274/274 276/276/276 
f 277/277/277 278/278/278 279/279/279 
f 279/279/279 278/278/278 280/280/280 
f 281/281/281 282/282/282 283/283/283 
f 283/283/283 282/282/282 284/284/284 
f 285/285/285 286/286/286 287/287/287 
f 287/287/287 286/286/286 288/288/288 

g Part13

v 24.0684 14.9742 -167.944 
v 21.1539 14.9742 -167.944 
v 24.0684 13.5315 -168.149 
v 21.1539 13.5315 -168.149 
v 21.1539 18.6186 -193.626 
v 21.1539 14.9742 -167.944 
v 24.0684 18.6186 -193.626 
v 24.0684 14.9742 -167.944 
v 21.1539 14.9742 -167.944 
v 21.1539 18.6186 -193.626 
v 21.1539 13.5315 -168.149 
v 21.1539 17.1759 -193.83 
v 21.1539 18.6186 -193.626 
v 24.0684 18.6186 -193.626 
v 21.1539 17.1759 -193.83 
v 24.0684 17.1759 -193.83 
v 24.0684 17.1759 -193.83 
v 24.0684 13.5315 -168.149 
v 21.1539 17.1759 -193.83 
v 21.1539 13.5315 -168.149 
v 24.0684 18.6186 -193.626 
v 24.0684 14.9742 -167.944 
v 24.0684 17.1759 -193.83 
v 24.0684 13.5315 -168.149 

vn 0 -0.141732 0.992126 
vn 0 -0.141732 0.992126 
vn 0 -0.141732 0.992126 
vn 0 -0.141732 0.992126 
vn 0 0.992126 0.141732 
vn 0 0.992126 0.141732 
vn 0 0.992126 0.141732 
vn 0 0.992126 0.141732 
vn -1 0 0 
vn -1 0 0 
vn -1 0 0 
vn -1 0 0 
vn 0 0.141732 -0.992126 
vn 0 0.141732 -0.992126 
vn 0 0.141732 -0.992126 
vn 0 0.141732 -0.992126 
vn 0 -0.992126 -0.141732 
vn 0 -0.992126 -0.141732 
vn 0 -0.992126 -0.141732 
vn 0 -0.992126 -0.141732 
vn 1 0 0 
vn 1 0 0 
vn 1 0 0 
vn 1 0 0 

vt 2.36431 -6.75 
vt 2 -6.75 
vt 2.36431 -6.93215 
vt 2 -6.93215 
vt 5.24233 -6.75 
vt 2 -6.75 
vt 5.24233 -7.11431 
vt 2 -7.11431 
vt 5.24233 -6.75 
vt 2 -6.75 
vt 5.24233 -6.93215 
vt 2 -6.93215 
vt 2.36431 -6.75 
vt 2 -6.75 
vt 2.36431 -6.93215 
vt 2 -6.93215 
vt 5.24233 -6.75 
vt 2 -6.75 
vt 5.24233 -7.11431 
vt 2 -7.11431 
vt 5.24233 -6.75 
vt 2 -6.75 
vt 5.24233 -6.93215 
vt 2 -6.93215 

usemtl Part9Mtl

f 289/289/289 290/290/290 291/291/291 
f 291/291/291 290/290/290 292/292/292 
f 293/293/293 294/294/294 295/295/295 
f 295/295/295 294/294/294 296/296/296 
f 297/297/297 298/298/298 299/299/299 
f 299/299/299 298/298/298 300/300/300 
f 301/301/301 302/302/302 303/303/303 
f 303/303/303 302/302/302 304/304/304 
f 305/305/305 306/306/306 307/307/307 
f 307/307/307 306/306/306 308/308/308 
f 309/309/309 310/310/310 311/311/311 
f 311/311/311 310/310/310 312/312/312 

g Part14

v 15.552 14.9742 -167.944 
v 12.6376 14.9742 -167.944 
v 15.552 13.5315 -168.149 
v 12.6376 13.5315 -168.149 
v 12.6376 18.6186 -193.626 
v 12.6376 14.9742 -167.944 
v 15.552 18.6186 -193.626 
v 15.552 14.9742 -167.944 
v 12.6376 14.9742 -167.944 
v 12.6376 18.6186 -193.626 
v 12.6376 13.5315 -168.149 
v 12.6376 17.1759 -193.83 
v 12.6376 18.6186 -193.626 
v 15.552 18.6186 -193.626 
v 12.6376 17.1759 -193.83 
v 15.552 17.1759 -193.83 
v 15.552 17.1759 -193.83 
v 15.552 13.5315 -168.149 
v 12.6376 17.1759 -193.83 
v 12.6376 13.5315 -168.149 
v 15.552 18.6186 -193.626 
v 15.552 14.9742 -167.944 
v 15.552 17.1759 -193.83 
v 15.552 13.5315 -168.149 

vn 0 -0.141732 0.992126 
vn 0 -0.141732 0.992126 
vn 0 -0.141732 0.992126 
vn 0 -0.141732 0.992126 
vn 0 0.992126 0.141732 
vn 0 0.992126 0.141732 
vn 0 0.992126 0.141732 
vn 0 0.992126 0.141732 
vn -1 0 0 
vn -1 0 0 
vn -1 0 0 
vn -1 0 0 
vn 0 0.141732 -0.992126 
vn 0 0.141732 -0.992126 
vn 0 0.141732 -0.992126 
vn 0 0.141732 -0.992126 
vn 0 -0.992126 -0.141732 
vn 0 -0.992126 -0.141732 
vn 0 -0.992126 -0.141732 
vn 0 -0.992126 -0.141732 
vn 1 0 0 
vn 1 0 0 
vn 1 0 0 
vn 1 0 0 

vt 8.11431 -3.75 
vt 7.75 -3.75 
vt 8.11431 -3.93215 
vt 7.75 -3.93215 
vt 10.9923 -3.75 
vt 7.75 -3.75 
vt 10.9923 -4.11431 
vt 7.75 -4.11431 
vt 10.9923 -3.75 
vt 7.75 -3.75 
vt 10.9923 -3.93215 
vt 7.75 -3.93215 
vt 8.11431 -3.75 
vt 7.75 -3.75 
vt 8.11431 -3.93215 
vt 7.75 -3.93215 
vt 10.9923 -3.75 
vt 7.75 -3.75 
vt 10.9923 -4.11431 
vt 7.75 -4.11431 
vt 10.9923 -3.75 
vt 7.75 -3.75 
vt 10.9923 -3.93215 
vt 7.75 -3.93215 

usemtl Part9Mtl

f 313/313/313 314/314/314 315/315/315 
f 315/315/315 314/314/314 316/316/316 
f 317/317/317 318/318/318 319/319/319 
f 319/319/319 318/318/318 320/320/320 
f 321/321/321 322/322/322 323/323/323 
f 323/323/323 322/322/322 324/324/324 
f 325/325/325 326/326/326 327/327/327 
f 327/327/327 326/326/326 328/328/328 
f 329/329/329 330/330/330 331/331/331 
f 331/331/331 330/330/330 332/332/332 
f 333/333/333 334/334/334 335/335/335 
f 335/335/335 334/334/334 336/336/336 

g Part15

v 34.4798 13.5268 -168.034 
v 33.314 13.5268 -168.034 
v 34.4798 0.266061 -168.034 
v 33.314 0.266061 -168.034 
v 33.314 13.5268 -169.025 
v 33.314 13.5268 -168.034 
v 34.4798 13.5268 -169.025 
v 34.4798 13.5268 -168.034 
v 33.314 13.5268 -168.034 
v 33.314 13.5268 -169.025 
v 33.314 0.266061 -168.034 
v 33.314 0.266061 -169.025 
v 33.314 13.5268 -169.025 
v 34.4798 13.5268 -169.025 
v 33.314 0.266061 -169.025 
v 34.4798 0.266061 -169.025 
v 34.4798 0.266061 -169.025 
v 34.4798 0.266061 -168.034 
v 33.314 0.266061 -169.025 
v 33.314 0.266061 -168.034 
v 34.4798 13.5268 -169.025 
v 34.4798 13.5268 -168.034 
v 34.4798 0.266061 -169.025 
v 34.4798 0.266061 -168.034 

vn 0 0 1 
vn 0 0 1 
vn 0 0 1 
vn 0 0 1 
vn 0 1 0 
vn 0 1 0 
vn 0 1 0 
vn 0 1 0 
vn -1 0 0 
vn -1 0 0 
vn -1 0 0 
vn -1 0 0 
vn 0 0 -1 
vn 0 0 -1 
vn 0 0 -1 
vn 0 0 -1 
vn 0 -1 0 
vn 0 -1 0 
vn 0 -1 0 
vn 0 -1 0 
vn 1 0 0 
vn 1 0 0 
vn 1 0 0 
vn 1 0 0 

vt 3.39572 1 
vt 3.25 1 
vt 3.39572 -0.657594 
vt 3.25 -0.657594 
vt 3.37386 1 
vt 3.25 1 
vt 3.37386 0.854279 
vt 3.25 0.854279 
vt 3.37386 1 
vt 3.25 1 
vt 3.37386 -0.657594 
vt 3.25 -0.657594 
vt 3.39572 1 
vt 3.25 1 
vt 3.39572 -0.657594 
vt 3.25 -0.657594 
vt 3.37386 1 
vt 3.25 1 
vt 3.37386 0.854279 
vt 3.25 0.854279 
vt 3.37386 1 
vt 3.25 1 
vt 3.37386 -0.657594 
vt 3.25 -0.657594 

usemtl Part15Mtl

f 337/337/337 338/338/338 339/339/339 
f 339/339/339 338/338/338 340/340/340 
f 341/341/341 342/342/342 343/343/343 
f 343/343/343 342/342/342 344/344/344 
f 345/345/345 346/346/346 347/347/347 
f 347/347/347 346/346/346 348/348/348 
f 349/349/349 350/350/350 351/351/351 
f 351/351/351 350/350/350 352/352/352 
f 353/353/353 354/354/354 355/355/355 
f 355/355/355 354/354/354 356/356/356 
f 357/357/357 358/358/358 359/359/359 
f 359/359/359 358/358/358 360/360/360 

g Part16

v 10.337 0.615794 -171.3 
v 10.337 0.615794 -188.845 
v 10.337 -3.46444 -171.3 
v 10.337 -3.46444 -188.845 
v 13.1494 0.615794 -188.845 
v 10.337 0.615794 -188.845 
v 13.1494 0.615794 -171.3 
v 10.337 0.615794 -171.3 
v 10.337 0.615794 -188.845 
v 13.1494 0.615794 -188.845 
v 10.337 -3.46444 -188.845 
v 13.1494 -3.46444 -188.845 
v 13.1494 0.615794 -188.845 
v 13.1494 0.615794 -171.3 
v 13.1494 -3.46444 -188.845 
v 13.1494 -3.46444 -171.3 
v 13.1494 -3.46444 -171.3 
v 10.337 -3.46444 -171.3 
v 13.1494 -3.46444 -188.845 
v 10.337 -3.46444 -188.845 
v 13.1494 0.615794 -171.3 
v 10.337 0.615794 -171.3 
v 13.1494 -3.46444 -171.3 
v 10.337 -3.46444 -171.3 

vn -1 0 0 
vn -1 0 0 
vn -1 0 0 
vn -1 0 0 
vn 0 1 0 
vn 0 1 0 
vn 0 1 0 
vn 0 1 0 
vn 0 0 -1 
vn 0 0 -1 
vn 0 0 -1 
vn 0 0 -1 
vn 1 0 0 
vn 1 0 0 
vn 1 0 0 
vn 1 0 0 
vn 0 -1 0 
vn 0 -1 0 
vn 0 -1 0 
vn 0 -1 0 
vn 0 0 1 
vn 0 0 1 
vn 0 0 1 
vn 0 0 1 

vt 7.19312 -2.375 
vt 5 -2.375 
vt 7.19312 -2.88503 
vt 5 -2.88503 
vt 5.35156 -2.375 
vt 5 -2.375 
vt 5.35156 -4.56812 
vt 5 -4.56812 
vt 5.35156 -2.375 
vt 5 -2.375 
vt 5.35156 -2.88503 
vt 5 -2.88503 
vt 7.19312 -2.375 
vt 5 -2.375 
vt 7.19312 -2.88503 
vt 5 -2.88503 
vt 5.35156 -2.375 
vt 5 -2.375 
vt 5.35156 -4.56812 
vt 5 -4.56812 
vt 5.35156 -2.375 
vt 5 -2.375 
vt 5.35156 -2.88503 
vt 5 -2.88503 

usemtl Part16Mtl

f 361/361/361 362/362/362 363/363/363 
f 363/363/363 362/362/362 364/364/364 
f 365/365/365 366/366/366 367/367/367 
f 367/367/367 366/366/366 368/368/368 
f 369/369/369 370/370/370 371/371/371 
f 371/371/371 370/370/370 372/372/372 
f 373/373/373 374/374/374 375/375/375 
f 375/375/375 374/374/374 376/376/376 
f 377/377/377 378/378/378 379/379/379 
f 379/379/379 378/378/378 380/380/380 
f 381/381/381 382/382/382 383/383/383 
f 383/383/383 382/382/382 384/384/384 

g Part17

v 29.4402 14.9742 -167.944 
v 26.5257 14.9742 -167.944 
v 29.4402 13.5315 -168.149 
v 26.5257 13.5315 -168.149 
v 26.5257 18.6186 -193.626 
v 26.5257 14.9742 -167.944 
v 29.4402 18.6186 -193.626 
v 29.4402 14.9742 -167.944 
v 26.5257 14.9742 -167.944 
v 26.5257 18.6186 -193.626 
v 26.5257 13.5315 -168.149 
v 26.5257 17.1759 -193.83 
v 26.5257 18.6186 -193.626 
v 29.4402 18.6186 -193.626 
v 26.5257 17.1759 -193.83 
v 29.4402 17.1759 -193.83 
v 29.4402 17.1759 -193.83 
v 29.4402 13.5315 -168.149 
v 26.5257 17.1759 -193.83 
v 26.5257 13.5315 -168.149 
v 29.4402 18.6186 -193.626 
v 29.4402 14.9742 -167.944 
v 29.4402 17.1759 -193.83 
v 29.4402 13.5315 -168.149 

vn 0 -0.141732 0.992126 
vn 0 -0.141732 0.992126 
vn 0 -0.141732 0.992126 
vn 0 -0.141732 0.992126 
vn 0 0.992126 0.141732 
vn 0 0.992126 0.141732 
vn 0 0.992126 0.141732 
vn 0 0.992126 0.141732 
vn -1 0 0 
vn -1 0 0 
vn -1 0 0 
vn -1 0 0 
vn 0 0.141732 -0.992126 
vn 0 0.141732 -0.992126 
vn 0 0.141732 -0.992126 
vn 0 0.141732 -0.992126 
vn 0 -0.992126 -0.141732 
vn 0 -0.992126 -0.141732 
vn 0 -0.992126 -0.141732 
vn 0 -0.992126 -0.141732 
vn 1 0 0 
vn 1 0 0 
vn 1 0 0 
vn 1 0 0 

vt 2.36431 -3.25 
vt 2 -3.25 
vt 2.36431 -3.43215 
vt 2 -3.43215 
vt 5.24233 -3.25 
vt 2 -3.25 
vt 5.24233 -3.61431 
vt 2 -3.61431 
vt 5.24233 -3.25 
vt 2 -3.25 
vt 5.24233 -3.43215 
vt 2 -3.43215 
vt 2.36431 -3.25 
vt 2 -3.25 
vt 2.36431 -3.43215 
vt 2 -3.43215 
vt 5.24233 -3.25 
vt 2 -3.25 
vt 5.24233 -3.61431 
vt 2 -3.61431 
vt 5.24233 -3.25 
vt 2 -3.25 
vt 5.24233 -3.43215 
vt 2 -3.43215 

usemtl Part2Mtl

f 385/385/385 386/386/386 387/387/387 
f 387/387/387 386/386/386 388/388/388 
f 389/389/389 390/390/390 391/391/391 
f 391/391/391 390/390/390 392/392/392 
f 393/393/393 394/394/394 395/395/395 
f 395/395/395 394/394/394 396/396/396 
f 397/397/397 398/398/398 399/399/399 
f 399/399/399 398/398/398 400/400/400 
f 401/401/401 402/402/402 403/403/403 
f 403/403/403 402/402/402 404/404/404 
f 405/405/405 406/406/406 407/407/407 
f 407/407/407 406/406/406 408/408/408 

g Part18

v 21.173 14.9742 -167.944 
v 18.2585 14.9742 -167.944 
v 21.173 13.5315 -168.149 
v 18.2585 13.5315 -168.149 
v 18.2585 18.6186 -193.626 
v 18.2585 14.9742 -167.944 
v 21.173 18.6186 -193.626 
v 21.173 14.9742 -167.944 
v 18.2585 14.9742 -167.944 
v 18.2585 18.6186 -193.626 
v 18.2585 13.5315 -168.149 
v 18.2585 17.1759 -193.83 
v 18.2585 18.6186 -193.626 
v 21.173 18.6186 -193.626 
v 18.2585 17.1759 -193.83 
v 21.173 17.1759 -193.83 
v 21.173 17.1759 -193.83 
v 21.173 13.5315 -168.149 
v 18.2585 17.1759 -193.83 
v 18.2585 13.5315 -168.149 
v 21.173 18.6186 -193.626 
v 21.173 14.9742 -167.944 
v 21.173 17.1759 -193.83 
v 21.173 13.5315 -168.149 

vn 0 -0.141732 0.992126 
vn 0 -0.141732 0.992126 
vn 0 -0.141732 0.992126 
vn 0 -0.141732 0.992126 
vn 0 0.992126 0.141732 
vn 0 0.992126 0.141732 
vn 0 0.992126 0.141732 
vn 0 0.992126 0.141732 
vn -1 0 0 
vn -1 0 0 
vn -1 0 0 
vn -1 0 0 
vn 0 0.141732 -0.992126 
vn 0 0.141732 -0.992126 
vn 0 0.141732 -0.992126 
vn 0 0.141732 -0.992126 
vn 0 -0.992126 -0.141732 
vn 0 -0.992126 -0.141732 
vn 0 -0.992126 -0.141732 
vn 0 -0.992126 -0.141732 
vn 1 0 0 
vn 1 0 0 
vn 1 0 0 
vn 1 0 0 

vt 7.11431 0.5 
vt 6.75 0.5 
vt 7.11431 0.317847 
vt 6.75 0.317847 
vt 9.99233 0.5 
vt 6.75 0.5 
vt 9.99233 0.135694 
vt 6.75 0.135694 
vt 9.99233 0.5 
vt 6.75 0.5 
vt 9.99233 0.317847 
vt 6.75 0.317847 
vt 7.11431 0.5 
vt 6.75 0.5 
vt 7.11431 0.317847 
vt 6.75 0.317847 
vt 9.99233 0.5 
vt 6.75 0.5 
vt 9.99233 0.135694 
vt 6.75 0.135694 
vt 9.99233 0.5 
vt 6.75 0.5 
vt 9.99233 0.317847 
vt 6.75 0.317847 

usemtl Part2Mtl

f 409/409/409 410/410/410 411/411/411 
f 411/411/411 410/410/410 412/412/412 
f 413/413/413 414/414/414 415/415/415 
f 415/415/415 414/414/414 416/416/416 
f 417/417/417 418/418/418 419/419/419 
f 419/419/419 418/418/418 420/420/420 
f 421/421/421 422/422/422 423/423/423 
f 423/423/423 422/422/422 424/424/424 
f 425/425/425 426/426/426 427/427/427 
f 427/427/427 426/426/426 428/428/428 
f 429/429/429 430/430/430 431/431/431 
f 431/431/431 430/430/430 432/432/432 

